<svg width="44" height="45" viewBox="0 0 44 45" fill="none" xmlns="http://www.w3.org/2000/svg">
<path opacity="0.15" d="M8.7085 40.8296C8.7085 41.0102 9.05229 41.189 9.72026 41.3558C10.3882 41.5226 11.3673 41.6742 12.6015 41.8019C13.8358 41.9295 15.301 42.0308 16.9137 42.0999C18.5263 42.169 20.2547 42.2046 22.0002 42.2046C23.7456 42.2046 25.474 42.169 27.0867 42.0999C28.6993 42.0308 30.1645 41.9295 31.3988 41.8019C32.633 41.6742 33.6121 41.5226 34.2801 41.3558C34.948 41.189 35.2918 41.0102 35.2918 40.8296C35.2918 40.649 34.948 40.4702 34.2801 40.3034C33.6121 40.1366 32.633 39.985 31.3988 39.8573C30.1645 39.7296 28.6993 39.6284 27.0867 39.5593C25.474 39.4902 23.7456 39.4546 22.0002 39.4546C20.2547 39.4546 18.5263 39.4902 16.9137 39.5593C15.301 39.6284 13.8358 39.7296 12.6015 39.8573C11.3673 39.985 10.3882 40.1366 9.72026 40.3034C9.05229 40.4702 8.7085 40.649 8.7085 40.8296Z" fill="#45413C"/>
<path d="M16.3075 41.187L2.26417 27.1529C2.17757 27.0841 2.1105 26.9939 2.06965 26.8911C2.0288 26.7884 2.0156 26.6767 2.03137 26.5673C2.04713 26.4578 2.09132 26.3544 2.15951 26.2674C2.2277 26.1804 2.31752 26.1127 2.42001 26.0712L3.28167 25.7045C3.51749 25.6312 3.77002 25.6312 4.00584 25.7045L11 27.1437L16.335 32.4787L17.7925 39.4545C17.8406 39.7002 17.8183 39.9544 17.7283 40.1879L17.38 41.0404C17.3389 41.1423 17.2716 41.2316 17.1849 41.2991C17.0982 41.3666 16.9952 41.4101 16.8863 41.425C16.7774 41.4398 16.6665 41.4257 16.5649 41.3839C16.4632 41.3421 16.3744 41.2742 16.3075 41.187Z" fill="#4ACFFF"/>
<path d="M13.42 31.8829L14.4742 30.6454L11 27.1437L4.00584 25.7045C3.76354 25.6518 3.51092 25.6742 3.28167 25.7687L2.42001 26.1079C2.31752 26.1494 2.2277 26.217 2.15951 26.3041C2.09132 26.3911 2.04713 26.4945 2.03137 26.6039C2.0156 26.7134 2.0288 26.8251 2.06965 26.9278C2.1105 27.0306 2.17757 27.1208 2.26417 27.1895L3.18084 28.1062H3.29084C3.52009 28.0117 3.77271 27.9893 4.01501 28.042L11 29.4354L13.42 31.8829Z" fill="#80DDFF"/>
<path d="M16.3074 32.4787L15.8399 32.0112L10.1382 35.0362L13.0715 37.9604C13.5217 37.9627 13.9697 37.8978 14.4007 37.7679C15.4066 37.4465 16.3405 36.9328 17.1507 36.2554L16.3074 32.4787Z" fill="#00B8F0"/>
<path d="M16.3075 41.187L2.26417 27.1529C2.17757 27.0841 2.1105 26.9939 2.06965 26.8911C2.0288 26.7884 2.0156 26.6767 2.03137 26.5673C2.04713 26.4578 2.09132 26.3544 2.15951 26.2674C2.2277 26.1804 2.31752 26.1127 2.42001 26.0712L3.28167 25.7045C3.51749 25.6312 3.77002 25.6312 4.00584 25.7045L11 27.1437L16.335 32.4787L17.7925 39.4545C17.8406 39.7002 17.8183 39.9544 17.7283 40.1879L17.38 41.0404C17.3389 41.1423 17.2716 41.2316 17.1849 41.2991C17.0982 41.3666 16.9952 41.4101 16.8863 41.425C16.7774 41.4398 16.6665 41.4257 16.5649 41.3839C16.4632 41.3421 16.3744 41.2742 16.3075 41.187Z" stroke="#45413C" stroke-width="0.5" stroke-linecap="round" stroke-linejoin="round"/>
<path d="M36.9846 24.6312L38.7995 26.4461C39.0402 26.6868 39.1754 27.0132 39.1754 27.3536C39.1754 27.6939 39.0402 28.0204 38.7995 28.261L33.802 33.2585L30.1722 29.6287L35.1697 24.6312C35.2889 24.512 35.4303 24.4175 35.586 24.353C35.7417 24.2885 35.9086 24.2553 36.0771 24.2553C36.2457 24.2553 36.4126 24.2885 36.5683 24.353C36.724 24.4175 36.8654 24.512 36.9846 24.6312Z" fill="#C0DCEB" stroke="#45413C" stroke-width="0.5" stroke-linecap="round" stroke-linejoin="round"/>
<path d="M17.0012 4.66099L18.8161 6.4759C19.0568 6.71657 19.192 7.04299 19.192 7.38335C19.192 7.72372 19.0568 8.05014 18.8161 8.29081L13.8251 13.2818L10.1953 9.65199L15.1863 4.66099C15.427 4.42032 15.7534 4.28511 16.0937 4.28511C16.4341 4.28511 16.7605 4.42032 17.0012 4.66099Z" fill="#C0DCEB" stroke="#45413C" stroke-width="0.5" stroke-linecap="round" stroke-linejoin="round"/>
<path d="M34.6958 37.4287L26.0792 26.4287L17.0042 17.3446L6.00416 8.72791C5.827 8.58899 5.6895 8.40592 5.60546 8.19706C5.52142 7.9882 5.4938 7.76091 5.52538 7.53801C5.55696 7.3151 5.64662 7.10442 5.78536 6.92713C5.92411 6.74983 6.10705 6.61215 6.31583 6.52791L8.06666 5.83124C8.53713 5.63862 9.05512 5.59386 9.55166 5.70291L23.8333 8.75541L34.7142 19.6546L37.73 33.8721C37.8244 34.3709 37.7735 34.8864 37.5833 35.3571L36.8775 37.1079C36.7927 37.3134 36.656 37.4934 36.4808 37.6302C36.3055 37.767 36.0978 37.8559 35.8778 37.8883C35.6579 37.9206 35.4333 37.8953 35.2261 37.8147C35.0189 37.7342 34.8362 37.6012 34.6958 37.4287Z" fill="#4ACFFF"/>
<path d="M33.8893 18.8296L34.7143 19.6454L35.7502 24.5313L28.6735 29.7471L26.0885 26.4563L25.4102 25.7871L33.8893 18.8296Z" fill="#00B8F0"/>
<path d="M24.3924 9.32371L22.7058 11.3495L9.59745 8.59954C9.09791 8.48975 8.57678 8.53451 8.10328 8.72788L6.68245 9.29621L6.04078 8.79204C5.86362 8.65313 5.72612 8.47005 5.64208 8.2612C5.55804 8.05234 5.53043 7.82505 5.562 7.60214C5.59358 7.37924 5.68324 7.16856 5.82199 6.99126C5.96073 6.81396 6.14367 6.67628 6.35245 6.59204L8.10328 5.88621C8.57893 5.70193 9.09734 5.65741 9.59745 5.75788L23.8333 8.74621L24.3924 9.32371Z" fill="#80DDFF"/>
<path d="M34.6958 37.4287L26.0792 26.4287L17.0042 17.3446L6.00416 8.72791C5.827 8.58899 5.6895 8.40592 5.60546 8.19706C5.52142 7.9882 5.4938 7.76091 5.52538 7.53801C5.55696 7.3151 5.64662 7.10442 5.78536 6.92713C5.92411 6.74983 6.10705 6.61215 6.31583 6.52791L8.06666 5.83124C8.53713 5.63862 9.05512 5.59386 9.55166 5.70291L23.8333 8.75541L34.7142 19.6546L37.73 33.8721C37.8244 34.3709 37.7735 34.8864 37.5833 35.3571L36.8775 37.1079C36.7927 37.3134 36.656 37.4934 36.4808 37.6302C36.3055 37.767 36.0978 37.8559 35.8778 37.8883C35.6579 37.9206 35.4333 37.8953 35.2261 37.8147C35.0189 37.7342 34.8362 37.6012 34.6958 37.4287Z" stroke="#45413C" stroke-width="0.5" stroke-linecap="round" stroke-linejoin="round"/>
<path d="M8.25009 32.1211L24.8784 12.1195C25.2867 11.6297 25.7513 11.1897 26.2626 10.8086C30.3326 7.28865 36.4743 4.80448 39.2518 7.58198C39.7293 8.07038 40.0733 8.67326 40.2509 9.33281C40.6726 7.27948 40.4618 5.40948 39.2518 4.19948C36.5018 1.44948 30.3326 3.91531 26.2626 7.43531C25.7493 7.81047 25.2844 8.24767 24.8784 8.73698L8.25009 28.7661C7.6865 29.4238 7.30933 30.2204 7.1578 31.0732C7.00627 31.926 7.0859 32.8037 7.38843 33.6153C7.59011 33.0726 7.88137 32.5675 8.25009 32.1211Z" fill="white"/>
<path d="M36.0251 17.1979C39.5451 13.1279 42.0385 6.9862 39.2518 4.19953C36.4651 1.41287 30.3326 3.91537 26.2626 7.43537C25.7493 7.81052 25.2844 8.24773 24.8785 8.73703L8.25013 28.7662C7.476 29.6418 7.05714 30.7751 7.07579 31.9437C7.09445 33.1122 7.54928 34.2316 8.35097 35.082C9.20121 35.8831 10.3196 36.3383 11.4876 36.3586C12.6556 36.3789 13.7892 35.963 14.6668 35.192L34.7235 18.5729C35.2102 18.1677 35.6472 17.7061 36.0251 17.1979Z" fill="#E8F4FA"/>
<path d="M36.0251 17.1979C39.5451 13.1279 42.0385 6.9862 39.2518 4.19953C36.4651 1.41287 30.3326 3.91537 26.2626 7.43537C25.7493 7.81052 25.2844 8.24773 24.8785 8.73703L8.25013 28.7662C7.476 29.6418 7.05714 30.7751 7.07579 31.9437C7.09445 33.1122 7.54928 34.2316 8.35097 35.082C9.20121 35.8831 10.3196 36.3383 11.4876 36.3586C12.6556 36.3789 13.7892 35.963 14.6668 35.192L34.7235 18.5729C35.2102 18.1677 35.6472 17.7061 36.0251 17.1979Z" stroke="#45413C" stroke-width="0.5" stroke-linecap="round" stroke-linejoin="round"/>
<path d="M35.594 7.85701C34.8268 7.10962 33.8938 6.55401 32.8711 6.23543C31.8485 5.91684 30.765 5.84429 29.709 6.02367L29.3974 8.77367C29.3845 8.87305 29.3952 8.97404 29.4284 9.06858C29.4616 9.16311 29.5165 9.24855 29.5887 9.31805C29.6608 9.38755 29.7483 9.43918 29.844 9.46881C29.9397 9.49844 30.0411 9.50524 30.1399 9.48867C31.0565 9.33284 32.5507 9.34201 33.3207 10.112C34.0907 10.882 34.109 12.4128 33.944 13.302C33.9275 13.4008 33.9343 13.5022 33.9639 13.5979C33.9935 13.6936 34.0452 13.781 34.1147 13.8532C34.1842 13.9254 34.2696 13.9803 34.3641 14.0135C34.4587 14.0467 34.5597 14.0573 34.659 14.0445L37.409 13.7328C37.5856 12.6797 37.5134 11.5999 37.1983 10.5797C36.8831 9.55947 36.3338 8.62708 35.594 7.85701Z" fill="#00B8F0"/>
<path d="M29.709 6.00534L29.3974 8.75534C29.3845 8.85471 29.3952 8.95571 29.4284 9.05024C29.4616 9.14477 29.5165 9.23021 29.5887 9.29971C29.6608 9.36921 29.7483 9.42084 29.844 9.45047C29.9397 9.4801 30.0411 9.48691 30.1399 9.47034C30.6641 9.38422 31.1974 9.3688 31.7257 9.4245L35.5024 7.72867C34.7337 7.0161 33.8114 6.49003 32.8067 6.19118C31.8021 5.89234 30.7422 5.82875 29.709 6.00534Z" fill="#4ACFFF"/>
<path d="M35.594 7.85701C34.8268 7.10962 33.8938 6.55401 32.8711 6.23543C31.8485 5.91684 30.765 5.84429 29.709 6.02367L29.3974 8.77367C29.3845 8.87305 29.3952 8.97404 29.4284 9.06858C29.4616 9.16311 29.5165 9.24855 29.5887 9.31805C29.6608 9.38755 29.7483 9.43918 29.844 9.46881C29.9397 9.49844 30.0411 9.50525 30.1399 9.48867C31.0565 9.33284 32.5507 9.34201 33.3207 10.112C34.0907 10.882 34.109 12.4128 33.944 13.302C33.9275 13.4008 33.9343 13.5022 33.9639 13.5979C33.9935 13.6936 34.0452 13.781 34.1147 13.8532C34.1842 13.9254 34.2696 13.9803 34.3641 14.0135C34.4587 14.0467 34.5597 14.0573 34.659 14.0445L37.409 13.7328C37.5856 12.6797 37.5134 11.5999 37.1983 10.5797C36.8831 9.55947 36.3338 8.62708 35.594 7.85701V7.85701Z" stroke="#45413C" stroke-width="0.5" stroke-linecap="round" stroke-linejoin="round"/>
<path d="M36.0252 17.1979C37.076 15.844 37.6099 14.16 37.5309 12.4481C37.4519 10.7361 36.7653 9.10835 35.5944 7.85702C34.3452 6.68465 32.7179 5.99774 31.0065 5.92041C29.2951 5.84307 27.6125 6.38042 26.2627 7.43535" stroke="#45413C" stroke-width="0.5" stroke-linecap="round" stroke-linejoin="round"/>
<path d="M8.3691 35.082C8.24826 34.9619 8.15236 34.8191 8.08692 34.6618C8.02148 34.5045 7.98779 34.3357 7.98779 34.1654C7.98779 33.995 8.02148 33.8263 8.08692 33.669C8.15236 33.5116 8.24826 33.3688 8.3691 33.2487L13.3649 28.2529C13.4853 28.1325 13.6282 28.037 13.7855 27.9718C13.9428 27.9067 14.1114 27.8732 14.2816 27.8732C14.4518 27.8732 14.6204 27.9067 14.7777 27.9718C14.935 28.037 15.0779 28.1325 15.1983 28.2529C15.3186 28.3732 15.4141 28.5162 15.4793 28.6734C15.5444 28.8307 15.578 28.9993 15.578 29.1695C15.578 29.3398 15.5444 29.5083 15.4793 29.6656C15.4141 29.8229 15.3186 29.9658 15.1983 30.0862L10.2024 35.082C10.0823 35.2029 9.93949 35.2988 9.78217 35.3642C9.62485 35.4296 9.45615 35.4633 9.28576 35.4633C9.11538 35.4633 8.94668 35.4296 8.78936 35.3642C8.63204 35.2988 8.48922 35.2029 8.3691 35.082Z" fill="#4ACFFF" stroke="#45413C" stroke-width="0.5" stroke-linecap="round" stroke-linejoin="round"/>
</svg>
