<svg width="255" height="81" viewBox="0 0 255 81" fill="none" xmlns="http://www.w3.org/2000/svg">
<rect width="254.65" height="80.4972" rx="10" fill="black"/>
<path d="M55.0254 42.0856C55.0479 40.3353 55.5128 38.6191 56.3769 37.0968C57.2409 35.5744 58.476 34.2953 59.9672 33.3785C59.0199 32.0256 57.7702 30.9122 56.3173 30.1267C54.8644 29.3413 53.2483 28.9054 51.5975 28.8538C48.0761 28.4841 44.6622 30.961 42.8677 30.961C41.0385 30.961 38.2756 28.8905 35.3005 28.9517C33.3761 29.0139 31.5006 29.5735 29.8568 30.576C28.2129 31.5785 26.8568 32.9897 25.9205 34.6722C21.8648 41.694 24.89 52.0137 28.7751 57.6896C30.7188 60.4689 32.9905 63.5735 35.963 63.4634C38.8717 63.3428 39.9581 61.6086 43.4692 61.6086C46.9477 61.6086 47.9669 63.4634 50.9997 63.3934C54.1209 63.3427 56.0874 60.6017 57.963 57.7961C59.3596 55.8157 60.4342 53.627 61.1472 51.3109C59.3338 50.544 57.7864 49.2602 56.6978 47.6197C55.6091 45.9792 55.0275 44.0545 55.0254 42.0856Z" fill="white"/>
<path d="M49.2965 25.1223C50.9983 23.0793 51.8367 20.4534 51.6337 17.8022C49.0337 18.0753 46.632 19.318 44.9072 21.2825C44.0639 22.2423 43.418 23.3588 43.0065 24.5683C42.595 25.7779 42.4258 27.0566 42.5088 28.3315C43.8093 28.3449 45.0958 28.0631 46.2716 27.5072C47.4473 26.9513 48.4816 26.1358 49.2965 25.1223Z" fill="white"/>
<path d="M100.379 56.6357H91.2202L89.0206 63.1305H85.1411L93.8166 39.1013H97.8473L106.523 63.1305H102.577L100.379 56.6357ZM92.1688 53.6386H99.429L95.85 43.098H95.7498L92.1688 53.6386Z" fill="white"/>
<path d="M125.259 54.3712C125.259 59.8153 122.345 63.3131 117.948 63.3131C116.834 63.3714 115.726 63.1148 114.751 62.5727C113.776 62.0306 112.974 61.225 112.436 60.248H112.352V68.9254H108.756V45.6106H112.237V48.5245H112.303C112.866 47.5522 113.682 46.7507 114.665 46.2054C115.647 45.66 116.759 45.3911 117.882 45.4273C122.328 45.4273 125.259 48.9421 125.259 54.3712ZM121.563 54.3712C121.563 50.8242 119.73 48.4924 116.933 48.4924C114.185 48.4924 112.337 50.8734 112.337 54.3712C112.337 57.9011 114.185 60.2651 116.933 60.2651C119.73 60.2651 121.563 57.9502 121.563 54.3712Z" fill="white"/>
<path d="M144.541 54.3711C144.541 59.8153 141.627 63.3131 137.23 63.3131C136.116 63.3713 135.008 63.1148 134.033 62.5727C133.059 62.0306 132.256 61.225 131.718 60.248H131.635V68.9254H128.039V45.6106H131.519V48.5245H131.585C132.148 47.5522 132.965 46.7507 133.947 46.2053C134.929 45.66 136.041 45.3911 137.164 45.4273C141.61 45.4273 144.541 48.9421 144.541 54.3711ZM140.845 54.3711C140.845 50.8242 139.012 48.4924 136.215 48.4924C133.468 48.4924 131.62 50.8733 131.62 54.3711C131.62 57.9011 133.468 60.265 136.215 60.265C139.012 60.265 140.845 57.9502 140.845 54.3711H140.845Z" fill="white"/>
<path d="M157.285 56.4352C157.552 58.818 159.866 60.3826 163.03 60.3826C166.061 60.3826 168.241 58.818 168.241 56.6694C168.241 54.8043 166.926 53.6875 163.812 52.9222L160.698 52.172C156.286 51.1062 154.237 49.0426 154.237 45.6941C154.237 41.5482 157.85 38.7004 162.981 38.7004C168.058 38.7004 171.539 41.5482 171.656 45.6941H168.026C167.809 43.2961 165.826 41.8487 162.93 41.8487C160.033 41.8487 158.05 43.3132 158.05 45.4447C158.05 47.1435 159.317 48.1432 162.414 48.9084L165.061 49.5585C169.991 50.7244 172.04 52.7048 172.04 56.2196C172.04 60.7151 168.459 63.5307 162.763 63.5307C157.434 63.5307 153.836 60.7812 153.604 56.435L157.285 56.4352Z" fill="white"/>
<path d="M179.801 41.4668V45.6128H183.132V48.4605H179.801V58.1186C179.801 59.619 180.468 60.3182 181.933 60.3182C182.328 60.3113 182.723 60.2835 183.115 60.235V63.0657C182.457 63.1888 181.788 63.2445 181.118 63.232C177.571 63.232 176.188 61.8998 176.188 58.5022V48.4605H173.641V45.6128H176.188V41.4668H179.801Z" fill="white"/>
<path d="M185.062 54.3732C185.062 48.861 188.308 45.3972 193.37 45.3972C198.45 45.3972 201.681 48.8609 201.681 54.3732C201.681 59.9005 198.467 63.3491 193.37 63.3491C188.276 63.3491 185.062 59.9005 185.062 54.3732ZM198.017 54.3732C198.017 50.5919 196.284 48.3602 193.37 48.3602C190.457 48.3602 188.726 50.6089 188.726 54.3732C188.726 58.1695 190.457 60.3842 193.37 60.3842C196.284 60.3842 198.017 58.1695 198.017 54.3732H198.017Z" fill="white"/>
<path d="M204.646 45.6104H208.076V48.5923H208.159C208.391 47.661 208.937 46.838 209.704 46.2616C210.471 45.6852 211.414 45.3905 212.373 45.4271C212.787 45.4257 213.201 45.4707 213.605 45.5613V48.9249C213.082 48.765 212.536 48.6916 211.989 48.7076C211.467 48.6864 210.946 48.7785 210.463 48.9776C209.979 49.1767 209.544 49.4781 209.188 49.861C208.832 50.2439 208.564 50.6993 208.4 51.196C208.237 51.6927 208.183 52.2188 208.242 52.7383V63.1296H204.646L204.646 45.6104Z" fill="white"/>
<path d="M230.185 57.9862C229.701 61.1666 226.604 63.3491 222.642 63.3491C217.545 63.3491 214.382 59.9345 214.382 54.4563C214.382 48.9612 217.562 45.3972 222.49 45.3972C227.337 45.3972 230.386 48.7268 230.386 54.0387V55.2708H218.012V55.4881C217.955 56.1328 218.036 56.7824 218.249 57.3935C218.462 58.0047 218.803 58.5635 219.248 59.0328C219.694 59.5022 220.235 59.8713 220.834 60.1157C221.433 60.3601 222.078 60.4742 222.725 60.4504C223.575 60.53 224.427 60.3332 225.156 59.8892C225.885 59.4452 226.451 58.7778 226.771 57.9862L230.185 57.9862ZM218.029 52.7575H226.788C226.82 52.1778 226.732 51.5976 226.529 51.0535C226.327 50.5093 226.014 50.0129 225.61 49.5954C225.207 49.1779 224.722 48.8483 224.185 48.6273C223.648 48.4063 223.071 48.2986 222.49 48.3111C221.905 48.3076 221.324 48.4201 220.782 48.6421C220.241 48.8642 219.748 49.1913 219.333 49.6047C218.918 50.0181 218.59 50.5095 218.366 51.0507C218.142 51.5918 218.027 52.1719 218.029 52.7575V52.7575Z" fill="white"/>
<path d="M186.083 24.536C186.733 24.7424 187.239 25.0779 187.6 25.5423C187.971 25.9963 188.157 26.533 188.157 27.1522C188.157 27.8024 187.946 28.37 187.522 28.855C187.099 29.3298 186.532 29.6961 185.82 29.9541C185.118 30.2121 184.349 30.3411 183.513 30.3411C182.791 30.3411 182.063 30.2431 181.33 30.047C180.608 29.8406 179.937 29.5362 179.318 29.1337L179.968 27.6631C180.443 27.983 180.969 28.2307 181.547 28.4061C182.125 28.5712 182.698 28.6538 183.265 28.6538C184.081 28.6538 184.757 28.4938 185.293 28.1739C185.84 27.854 186.114 27.4154 186.114 26.8581C186.114 26.3834 185.918 26.0221 185.525 25.7745C185.133 25.5268 184.591 25.4029 183.9 25.4029H181.377V23.824H183.745C184.344 23.824 184.813 23.7001 185.154 23.4524C185.494 23.2047 185.665 22.8693 185.665 22.4462C185.665 21.9405 185.433 21.5484 184.968 21.2697C184.514 20.9911 183.931 20.8518 183.219 20.8518C182.734 20.8518 182.233 20.924 181.717 21.0685C181.201 21.2026 180.716 21.4039 180.262 21.6722L179.627 20.0468C180.185 19.7475 180.773 19.5256 181.392 19.3811C182.022 19.2263 182.646 19.1489 183.265 19.1489C184.07 19.1489 184.808 19.2728 185.479 19.5205C186.16 19.7681 186.702 20.1242 187.104 20.5886C187.507 21.0427 187.708 21.5793 187.708 22.1985C187.708 22.7352 187.564 23.2047 187.275 23.6072C186.986 24.0097 186.588 24.3193 186.083 24.536Z" fill="white"/>
<path d="M167.673 19.3501H169.654V27.0438L175.475 19.3501H177.348V30.1863H175.367V22.5081L169.546 30.1863H167.673V19.3501Z" fill="white"/>
<path d="M157.283 23.0189C158.583 23.0189 159.579 23.313 160.271 23.9013C160.972 24.4792 161.323 25.3409 161.323 26.4865C161.323 27.6836 160.941 28.6021 160.178 29.242C159.414 29.8715 158.341 30.1863 156.958 30.1863H152.298V19.3501H154.28V23.0189H157.283ZM156.865 28.6382C157.649 28.6382 158.253 28.4576 158.676 28.0964C159.099 27.7352 159.311 27.2089 159.311 26.5174C159.311 25.2068 158.496 24.5515 156.865 24.5515H154.28V28.6382H156.865Z" fill="white"/>
<path d="M150.547 21.0529H146.956V30.1863H144.959V21.0529H141.383V19.3501H150.547V21.0529Z" fill="white"/>
<path d="M138.376 27.6785H132.958L131.89 30.1863H129.816L134.692 19.3501H136.674L141.565 30.1863H139.46L138.376 27.6785ZM137.711 26.0995L135.667 21.3625L133.64 26.0995H137.711Z" fill="white"/>
<path d="M128.157 19.3501V30.1863H126.16V26.0995C125.139 26.4813 124.169 26.6722 123.25 26.6722C121.867 26.6722 120.799 26.342 120.046 25.6815C119.303 25.0107 118.931 24.0509 118.931 22.8022V19.3501H120.928V22.5855C120.928 23.3492 121.15 23.9322 121.594 24.3347C122.038 24.7372 122.672 24.9385 123.498 24.9385C124.437 24.9385 125.324 24.7475 126.16 24.3657V19.3501H128.157Z" fill="white"/>
<path d="M115.625 27.6785H110.207L109.139 30.1863H107.064L111.941 19.3501H113.922L118.814 30.1863H116.709L115.625 27.6785ZM114.959 26.0995L112.916 21.3625L110.888 26.0995H114.959Z" fill="white"/>
<path d="M101.809 25.6196H99.7964V30.1863H97.8149V19.3501H99.7964V23.8858H101.871L104.982 19.3501H107.119L103.419 24.5979L107.258 30.1863H104.982L101.809 25.6196Z" fill="white"/>
<path d="M91.6431 30.3413C90.5492 30.3413 89.5584 30.104 88.6709 29.6292C87.7937 29.1442 87.1023 28.4785 86.5966 27.6323C86.1012 26.786 85.8535 25.8314 85.8535 24.7684C85.8535 23.7055 86.1064 22.7508 86.612 21.9046C87.1177 21.0583 87.8092 20.3979 88.6864 19.9231C89.5739 19.4381 90.5647 19.1956 91.6586 19.1956C92.5461 19.1956 93.3563 19.3504 94.089 19.66C94.8217 19.9696 95.4409 20.4185 95.9466 21.0067L94.6463 22.2297C93.862 21.3834 92.897 20.9603 91.7515 20.9603C91.0084 20.9603 90.3428 21.1254 89.7545 21.4557C89.1663 21.7756 88.707 22.2245 88.3768 22.8024C88.0465 23.3804 87.8814 24.0357 87.8814 24.7684C87.8814 25.5012 88.0465 26.1565 88.3768 26.7344C88.707 27.3124 89.1663 27.7664 89.7545 28.0967C90.3428 28.4166 91.0084 28.5766 91.7515 28.5766C92.897 28.5766 93.862 28.1483 94.6463 27.2917L95.9466 28.5301C95.4409 29.1184 94.8166 29.5673 94.0735 29.8769C93.3408 30.1865 92.5307 30.3413 91.6431 30.3413Z" fill="white"/>
</svg>
