<svg width="44" height="45" viewBox="0 0 44 45" fill="none" xmlns="http://www.w3.org/2000/svg">
<path d="M38.3717 10.3687C38.5124 10.5539 38.5988 10.7745 38.6215 11.0059C38.6442 11.2374 38.6021 11.4706 38.5 11.6795L36.245 16.1803L32.5784 12.0278L35.75 9.9195C36.1609 9.64263 36.6626 9.53481 37.1509 9.61847C37.6392 9.70213 38.0765 9.97083 38.3717 10.3687Z" fill="#DAEDF7" stroke="#45413C" stroke-width="0.5" stroke-linecap="round" stroke-linejoin="round"/>
<path opacity="0.15" d="M2.76831 38.8129C2.76831 39.0175 3.26575 39.2201 4.23223 39.4092C5.19872 39.5983 6.61531 39.7701 8.40114 39.9148C10.187 40.0595 12.307 40.1742 14.6403 40.2526C16.9736 40.3309 19.4744 40.3712 22 40.3712C24.5255 40.3712 27.0263 40.3309 29.3596 40.2526C31.6929 40.1742 33.813 40.0595 35.5988 39.9148C37.3846 39.7701 38.8012 39.5983 39.7677 39.4092C40.7342 39.2201 41.2316 39.0175 41.2316 38.8129C41.2316 38.6082 40.7342 38.4056 39.7677 38.2165C38.8012 38.0274 37.3846 37.8556 35.5988 37.7109C33.813 37.5662 31.6929 37.4515 29.3596 37.3731C27.0263 37.2948 24.5255 37.2545 22 37.2545C19.4744 37.2545 16.9736 37.2948 14.6403 37.3731C12.307 37.4515 10.187 37.5662 8.40114 37.7109C6.61531 37.8556 5.19872 38.0274 4.23223 38.2165C3.26575 38.4056 2.76831 38.6082 2.76831 38.8129Z" fill="#45413C"/>
<path d="M38.0049 21.7261L37.5466 21.3778L36.2999 14.1361C36.1718 13.529 35.8422 12.9831 35.3646 12.587C34.8869 12.1909 34.2894 11.968 33.6691 11.9545L22.9166 11.3953C20.4948 11.247 18.084 11.8268 15.9946 13.0602C13.9052 14.2936 12.2327 16.1241 11.1924 18.3161L9.11156 22.9545C7.6437 22.9151 6.21709 23.4427 5.12802 24.4277C4.03895 25.4126 3.37112 26.7792 3.26323 28.2436L3.0524 32.4878C3.04456 32.7402 3.08897 32.9916 3.18284 33.2261C3.2767 33.4605 3.41801 33.6731 3.59789 33.8504C3.77777 34.0277 3.99234 34.1659 4.22815 34.2564C4.46396 34.3468 4.71592 34.3876 4.96823 34.3761H39.4166C39.7222 34.3863 40.0264 34.3302 40.3083 34.2117C40.5902 34.0931 40.8431 33.9149 41.0495 33.6893C41.2559 33.4637 41.4111 33.196 41.5042 32.9048C41.5974 32.6135 41.6263 32.3055 41.5891 32.002L40.7182 26.2361C40.4449 24.4334 39.4695 22.8121 38.0049 21.7261Z" fill="#FF6242"/>
<path d="M3.2541 31.0303C3.34325 29.7864 3.84099 28.6069 4.6699 27.6752C5.49881 26.7435 6.6124 26.1119 7.83743 25.8786C8.26057 25.7847 8.65552 25.5921 8.99005 25.3165C9.32459 25.0409 9.58925 24.6901 9.76243 24.2928L11.1924 21.1211C12.2323 18.9282 13.9045 17.0965 15.9938 15.8615C18.0831 14.6266 20.494 14.0448 22.9166 14.1911L33.6691 14.7045C34.2958 14.7202 34.8984 14.9497 35.3769 15.3548C35.8553 15.76 36.181 16.3164 36.2999 16.932L37.5833 24.1828L38.0416 24.5311C38.7743 25.0648 39.3945 25.7379 39.8664 26.5119C40.3383 27.2858 40.6527 28.1454 40.7916 29.0411L41.4333 33.267C41.6482 32.8825 41.7289 32.4374 41.6624 32.002L40.7916 26.2361C40.5092 24.4276 39.52 22.8054 38.0416 21.7261L37.5833 21.3778L36.3366 14.1361C36.2071 13.523 35.8721 12.9724 35.387 12.5757C34.9018 12.1789 34.2958 11.9597 33.6691 11.9545L22.9166 11.3953C20.4948 11.247 18.0841 11.8268 15.9946 13.0602C13.9052 14.2936 12.2327 16.1241 11.1924 18.3161L9.1116 22.9545C7.64338 22.9173 6.21695 23.4453 5.1269 24.4296C4.03684 25.4139 3.36642 26.7792 3.2541 28.2436L3.05243 32.4878C3.04343 32.7092 3.07768 32.9303 3.15327 33.1386L3.2541 31.0303Z" fill="#FF866E"/>
<path d="M38.0049 21.7261L37.5466 21.3778L36.2999 14.1361C36.1718 13.529 35.8422 12.9831 35.3646 12.587C34.8869 12.1909 34.2894 11.968 33.6691 11.9545L22.9166 11.3953C20.4948 11.247 18.084 11.8268 15.9946 13.0602C13.9052 14.2936 12.2327 16.1241 11.1924 18.3161L9.11156 22.9545C7.6437 22.9151 6.21709 23.4427 5.12802 24.4277C4.03895 25.4126 3.37112 26.7792 3.26323 28.2436L3.0524 32.4878C3.04456 32.7402 3.08897 32.9916 3.18284 33.2261C3.2767 33.4605 3.41801 33.6731 3.59789 33.8504C3.77777 34.0277 3.99234 34.1659 4.22815 34.2564C4.46396 34.3468 4.71592 34.3876 4.96823 34.3761H39.4166C39.7222 34.3863 40.0264 34.3302 40.3083 34.2117C40.5902 34.0931 40.8431 33.9149 41.0495 33.6893C41.2559 33.4637 41.4111 33.196 41.5042 32.9048C41.5974 32.6135 41.6263 32.3055 41.5891 32.002L40.7182 26.2361C40.4449 24.4334 39.4695 22.8121 38.0049 21.7261V21.7261Z" stroke="#45413C" stroke-width="0.5" stroke-linecap="round" stroke-linejoin="round"/>
<path d="M7.64502 34.3761C7.64502 35.4799 8.08348 36.5384 8.86394 37.3189C9.64441 38.0994 10.7029 38.5378 11.8067 38.5378C12.9104 38.5378 13.969 38.0994 14.7494 37.3189C15.5299 36.5384 15.9684 35.4799 15.9684 34.3761C15.9684 33.2724 15.5299 32.2139 14.7494 31.4334C13.969 30.6529 12.9104 30.2145 11.8067 30.2145C10.7029 30.2145 9.64441 30.6529 8.86394 31.4334C8.08348 32.2139 7.64502 33.2724 7.64502 34.3761Z" fill="#87898C"/>
<path d="M28.9575 34.3761C28.9575 34.9227 29.0652 35.4638 29.2743 35.9687C29.4835 36.4737 29.79 36.9324 30.1764 37.3189C30.5629 37.7053 31.0217 38.0119 31.5266 38.221C32.0315 38.4302 32.5727 38.5378 33.1192 38.5378C33.6657 38.5378 34.2069 38.4302 34.7118 38.221C35.2167 38.0119 35.6755 37.7053 36.0619 37.3189C36.4484 36.9324 36.7549 36.4737 36.9641 35.9687C37.1732 35.4638 37.2809 34.9227 37.2809 34.3761C37.2809 33.8296 37.1732 33.2885 36.9641 32.7835C36.7549 32.2786 36.4484 31.8199 36.0619 31.4334C35.6755 31.047 35.2167 30.7404 34.7118 30.5313C34.2069 30.3221 33.6657 30.2145 33.1192 30.2145C32.5727 30.2145 32.0315 30.3221 31.5266 30.5313C31.0217 30.7404 30.5629 31.047 30.1764 31.4334C29.79 31.8199 29.4835 32.2786 29.2743 32.7835C29.0652 33.2885 28.9575 33.8296 28.9575 34.3761Z" fill="#87898C"/>
<path d="M11.8067 32.0386C12.7515 32.0392 13.6679 32.362 14.4045 32.9536C15.1411 33.5452 15.654 34.3704 15.8584 35.2928C15.9271 34.992 15.9639 34.6847 15.9684 34.3761C15.9684 33.2724 15.5299 32.2139 14.7494 31.4334C13.969 30.6529 12.9104 30.2145 11.8067 30.2145C10.7029 30.2145 9.64441 30.6529 8.86394 31.4334C8.08348 32.2139 7.64502 33.2724 7.64502 34.3761C7.64944 34.6847 7.68631 34.992 7.75502 35.2928C7.95941 34.3704 8.47226 33.5452 9.20889 32.9536C9.94552 32.362 10.8619 32.0392 11.8067 32.0386Z" fill="#656769"/>
<path d="M33.1192 32.0386C34.064 32.0392 34.9804 32.362 35.717 32.9536C36.4536 33.5452 36.9665 34.3704 37.1709 35.2928C37.2396 34.992 37.2764 34.6847 37.2809 34.3761C37.2809 33.2724 36.8424 32.2139 36.0619 31.4334C35.2815 30.6529 34.2229 30.2145 33.1192 30.2145C32.0154 30.2145 30.9569 30.6529 30.1764 31.4334C29.396 32.2139 28.9575 33.2724 28.9575 34.3761C28.9619 34.6847 28.9988 34.992 29.0675 35.2928C29.2734 34.3712 29.7867 33.547 30.523 32.9556C31.2593 32.3642 32.1748 32.0409 33.1192 32.0386Z" fill="#656769"/>
<path d="M7.64502 34.3761C7.64502 35.4799 8.08348 36.5384 8.86394 37.3189C9.64441 38.0994 10.7029 38.5378 11.8067 38.5378C12.9104 38.5378 13.969 38.0994 14.7494 37.3189C15.5299 36.5384 15.9684 35.4799 15.9684 34.3761C15.9684 33.2724 15.5299 32.2139 14.7494 31.4334C13.969 30.6529 12.9104 30.2145 11.8067 30.2145C10.7029 30.2145 9.64441 30.6529 8.86394 31.4334C8.08348 32.2139 7.64502 33.2724 7.64502 34.3761V34.3761Z" stroke="#45413C" stroke-width="0.5" stroke-linecap="round" stroke-linejoin="round"/>
<path d="M28.9575 34.3761C28.9575 34.9227 29.0652 35.4638 29.2743 35.9687C29.4835 36.4737 29.79 36.9324 30.1764 37.3189C30.5629 37.7053 31.0217 38.0119 31.5266 38.221C32.0315 38.4302 32.5727 38.5378 33.1192 38.5378C33.6657 38.5378 34.2069 38.4302 34.7118 38.221C35.2167 38.0119 35.6755 37.7053 36.0619 37.3189C36.4484 36.9324 36.7549 36.4737 36.9641 35.9687C37.1732 35.4638 37.2809 34.9227 37.2809 34.3761C37.2809 33.8296 37.1732 33.2885 36.9641 32.7835C36.7549 32.2786 36.4484 31.8199 36.0619 31.4334C35.6755 31.047 35.2167 30.7404 34.7118 30.5313C34.2069 30.3221 33.6657 30.2145 33.1192 30.2145C32.5727 30.2145 32.0315 30.3221 31.5266 30.5313C31.0217 30.7404 30.5629 31.047 30.1764 31.4334C29.79 31.8199 29.4835 32.2786 29.2743 32.7835C29.0652 33.2885 28.9575 33.8296 28.9575 34.3761V34.3761Z" stroke="#45413C" stroke-width="0.5" stroke-linecap="round" stroke-linejoin="round"/>
<path d="M13.4933 22.0378C13.4793 22.0877 13.4769 22.1402 13.4864 22.1913C13.4958 22.2423 13.5169 22.2905 13.5479 22.3321C13.5788 22.3737 13.619 22.4076 13.6651 22.4313C13.7113 22.455 13.7623 22.4677 13.8142 22.4686H29.48C29.7572 22.4686 30.023 22.3585 30.2189 22.1625C30.4149 21.9666 30.525 21.7008 30.525 21.4236V15.6211C30.5255 15.3572 30.4252 15.103 30.2447 14.9105C30.0641 14.7179 29.8168 14.6016 29.5534 14.5853L24.75 14.2095C22.2604 14.025 19.7831 14.7022 17.7335 16.1275C15.684 17.5528 14.1869 19.6396 13.4933 22.0378Z" fill="#00B8F0"/>
<path d="M26.1525 14.3103L24.75 14.2095C22.2604 14.025 19.7831 14.7022 17.7335 16.1275C15.684 17.5528 14.1869 19.6396 13.4933 22.0378C13.4793 22.0877 13.4769 22.1402 13.4864 22.1913C13.4958 22.2423 13.5169 22.2905 13.5479 22.3321C13.5788 22.3737 13.619 22.4076 13.6651 22.4313C13.7113 22.455 13.7623 22.4677 13.8142 22.4686H21.5417L26.1525 14.3103Z" fill="#4ACFFF"/>
<path d="M13.4933 22.0378C13.4793 22.0877 13.4769 22.1402 13.4864 22.1913C13.4958 22.2423 13.5169 22.2905 13.5479 22.3321C13.5788 22.3737 13.619 22.4076 13.6651 22.4313C13.7113 22.455 13.7623 22.4677 13.8142 22.4686H29.48C29.7572 22.4686 30.023 22.3585 30.2189 22.1625C30.4149 21.9666 30.525 21.7008 30.525 21.4236V15.6211C30.5255 15.3572 30.4252 15.103 30.2447 14.9105C30.0641 14.7179 29.8168 14.6016 29.5534 14.5853L24.75 14.2095C22.2604 14.025 19.7831 14.7022 17.7335 16.1275C15.684 17.5528 14.1869 19.6396 13.4933 22.0378V22.0378Z" stroke="#45413C" stroke-width="0.5" stroke-linecap="round" stroke-linejoin="round"/>
<path d="M27.3991 25.017H24.2824C24.0234 25.0414 23.7827 25.1615 23.6075 25.3539C23.4323 25.5464 23.3352 25.7972 23.3352 26.0575C23.3352 26.3177 23.4323 26.5685 23.6075 26.761C23.7827 26.9534 24.0234 27.0735 24.2824 27.0979H27.3991C27.5439 27.1115 27.69 27.0947 27.828 27.0486C27.966 27.0025 28.0928 26.9281 28.2004 26.8302C28.308 26.7322 28.3939 26.6129 28.4527 26.4799C28.5115 26.3468 28.5419 26.2029 28.5419 26.0575C28.5419 25.912 28.5115 25.7681 28.4527 25.635C28.3939 25.502 28.308 25.3827 28.2004 25.2847C28.0928 25.1868 27.966 25.1124 27.828 25.0663C27.69 25.0202 27.5439 25.0034 27.3991 25.017Z" fill="#BDBEC0" stroke="#45413C" stroke-width="0.5" stroke-linecap="round" stroke-linejoin="round"/>
<path d="M6.0867 28.1428H3.26337V28.2345L3.1167 31.2595H5.73837C5.95752 31.2592 6.17102 31.19 6.34868 31.0617C6.52634 30.9333 6.65916 30.7524 6.72837 30.5445L7.0767 29.5087C7.12716 29.3523 7.14001 29.1861 7.11423 29.0238C7.08844 28.8615 7.02473 28.7076 6.92828 28.5745C6.83183 28.4415 6.70536 28.333 6.55913 28.258C6.4129 28.183 6.25104 28.1435 6.0867 28.1428Z" fill="#FFE500" stroke="#45413C" stroke-width="0.5" stroke-linecap="round" stroke-linejoin="round"/>
<path d="M40.9566 27.6204H39.3616C38.9483 27.6204 38.5519 27.7845 38.2596 28.0768C37.9674 28.369 37.8032 28.7654 37.8032 29.1787C37.8032 29.592 37.9674 29.9884 38.2596 30.2806C38.5519 30.5728 38.9483 30.737 39.3616 30.737H41.4241L40.9566 27.6204Z" fill="#FFE500" stroke="#45413C" stroke-width="0.5" stroke-linecap="round" stroke-linejoin="round"/>
<path d="M13.8875 30.7828V26.062" stroke="#45413C" stroke-width="0.5" stroke-linecap="round" stroke-linejoin="round"/>
<path d="M33.1191 30.2237V26.8962C33.1187 26.3197 32.9762 25.7522 32.7045 25.2438C32.4327 24.7354 32.0399 24.3018 31.5608 23.9812" stroke="#45413C" stroke-width="0.5" stroke-linecap="round" stroke-linejoin="round"/>
<path d="M10.2483 34.3762C10.2483 34.5808 10.2886 34.7835 10.3669 34.9726C10.4452 35.1616 10.56 35.3334 10.7047 35.4781C10.8494 35.6228 11.0212 35.7376 11.2103 35.8159C11.3993 35.8942 11.602 35.9345 11.8066 35.9345C12.0113 35.9345 12.2139 35.8942 12.403 35.8159C12.592 35.7376 12.7638 35.6228 12.9085 35.4781C13.0532 35.3334 13.168 35.1616 13.2463 34.9726C13.3246 34.7835 13.365 34.5808 13.365 34.3762C13.365 34.1716 13.3246 33.9689 13.2463 33.7799C13.168 33.5908 13.0532 33.419 12.9085 33.2743C12.7638 33.1296 12.592 33.0148 12.403 32.9365C12.2139 32.8582 12.0113 32.8179 11.8066 32.8179C11.602 32.8179 11.3993 32.8582 11.2103 32.9365C11.0212 33.0148 10.8494 33.1296 10.7047 33.2743C10.56 33.419 10.4452 33.5908 10.3669 33.7799C10.2886 33.9689 10.2483 34.1716 10.2483 34.3762Z" fill="#DAEDF7" stroke="#45413C" stroke-width="0.5" stroke-linecap="round" stroke-linejoin="round"/>
<path d="M31.5608 34.3762C31.5608 34.7895 31.725 35.1859 32.0172 35.4781C32.3095 35.7704 32.7058 35.9345 33.1191 35.9345C33.5324 35.9345 33.9288 35.7704 34.221 35.4781C34.5133 35.1859 34.6775 34.7895 34.6775 34.3762C34.6775 33.9629 34.5133 33.5665 34.221 33.2743C33.9288 32.9821 33.5324 32.8179 33.1191 32.8179C32.7058 32.8179 32.3095 32.9821 32.0172 33.2743C31.725 33.5665 31.5608 33.9629 31.5608 34.3762Z" fill="#DAEDF7" stroke="#45413C" stroke-width="0.5" stroke-linecap="round" stroke-linejoin="round"/>
</svg>
