<svg width="44" height="45" viewBox="0 0 44 45" fill="none" xmlns="http://www.w3.org/2000/svg">
<path opacity="0.15" d="M2.64917 38.7486C2.64917 39.1789 4.70047 39.5916 8.3518 39.8959C12.0031 40.2002 16.9554 40.3711 22.1192 40.3711C27.2829 40.3711 32.2352 40.2002 35.8865 39.8959C39.5379 39.5916 41.5892 39.1789 41.5892 38.7486C41.5892 38.3183 39.5379 37.9056 35.8865 37.6013C32.2352 37.297 27.2829 37.1261 22.1192 37.1261C16.9554 37.1261 12.0031 37.297 8.3518 37.6013C4.70047 37.9056 2.64917 38.3183 2.64917 38.7486Z" fill="#45413C"/>
<path d="M16.9583 30.9753C16.9583 32.4711 16.5147 33.9332 15.6837 35.1768C14.8528 36.4205 13.6717 37.3898 12.2898 37.9622C10.9079 38.5346 9.38737 38.6843 7.92038 38.3925C6.4534 38.1007 5.1059 37.3805 4.04826 36.3228C2.99063 35.2652 2.27037 33.9177 1.97857 32.4507C1.68677 30.9837 1.83653 29.4632 2.40892 28.0813C2.9813 26.6994 3.95061 25.5183 5.19426 24.6874C6.4379 23.8564 7.90003 23.4128 9.39576 23.4128C10.3889 23.4128 11.3723 23.6085 12.2898 23.9885C13.2073 24.3686 14.041 24.9256 14.7433 25.6278C15.4455 26.3301 16.0025 27.1638 16.3826 28.0813C16.7626 28.9988 16.9583 29.9822 16.9583 30.9753Z" fill="#656769"/>
<path d="M9.39575 25.5762C11.2127 25.5792 12.968 26.2355 14.3412 27.4253C15.7144 28.6151 16.614 30.259 16.8758 32.057C16.9264 31.6986 16.9539 31.3373 16.9583 30.9753C16.9583 28.9696 16.1615 27.0461 14.7432 25.6278C13.325 24.2096 11.4015 23.4128 9.39575 23.4128C7.39005 23.4128 5.4665 24.2096 4.04826 25.6278C2.63001 27.0461 1.83325 28.9696 1.83325 30.9753C1.83759 31.3373 1.86514 31.6986 1.91575 32.057C2.17751 30.259 3.0771 28.6151 4.45032 27.4253C5.82353 26.2355 7.5788 25.5792 9.39575 25.5762Z" fill="#87898C"/>
<path d="M16.9583 30.9753C16.9583 32.4711 16.5147 33.9332 15.6837 35.1768C14.8528 36.4205 13.6717 37.3898 12.2898 37.9622C10.9079 38.5346 9.38737 38.6843 7.92039 38.3925C6.4534 38.1007 5.1059 37.3805 4.04826 36.3228C2.99063 35.2652 2.27037 33.9177 1.97857 32.4507C1.68677 30.9837 1.83653 29.4632 2.40892 28.0813C2.9813 26.6994 3.95061 25.5183 5.19426 24.6874C6.4379 23.8564 7.90003 23.4128 9.39576 23.4128C10.3889 23.4128 11.3723 23.6085 12.2898 23.9885C13.2073 24.3686 14.041 24.9256 14.7433 25.6278C15.4455 26.3301 16.0025 27.1638 16.3826 28.0813C16.7626 28.9988 16.9583 29.9822 16.9583 30.9753V30.9753Z" stroke="#45413C" stroke-width="0.5" stroke-linecap="round" stroke-linejoin="round"/>
<path d="M42.3958 30.9753C42.3958 32.4711 41.9522 33.9332 41.1212 35.1768C40.2903 36.4205 39.1092 37.3898 37.7273 37.9622C36.3454 38.5346 34.8249 38.6843 33.3579 38.3925C31.8909 38.1007 30.5434 37.3805 29.4858 36.3228C28.4281 35.2652 27.7079 33.9177 27.4161 32.4507C27.1243 30.9837 27.274 29.4632 27.8464 28.0813C28.4188 26.6994 29.3881 25.5183 30.6318 24.6874C31.8754 23.8564 33.3375 23.4128 34.8333 23.4128C36.839 23.4128 38.7625 24.2096 40.1807 25.6278C41.599 27.0461 42.3958 28.9696 42.3958 30.9753Z" fill="#656769"/>
<path d="M34.8333 25.5762C36.6502 25.5792 38.4055 26.2355 39.7787 27.4253C41.1519 28.6151 42.0515 30.259 42.3133 32.057C42.3639 31.6986 42.3914 31.3373 42.3958 30.9753C42.3958 28.9696 41.599 27.0461 40.1807 25.6278C38.7625 24.2096 36.839 23.4128 34.8333 23.4128C32.8276 23.4128 30.904 24.2096 29.4858 25.6278C28.0675 27.0461 27.2708 28.9696 27.2708 30.9753C27.2751 31.3373 27.3026 31.6986 27.3533 32.057C27.615 30.259 28.5146 28.6151 29.8878 27.4253C31.261 26.2355 33.0163 25.5792 34.8333 25.5762Z" fill="#87898C"/>
<path d="M42.3958 30.9753C42.3958 32.4711 41.9522 33.9332 41.1212 35.1768C40.2903 36.4205 39.1092 37.3898 37.7273 37.9622C36.3454 38.5346 34.8249 38.6843 33.3579 38.3925C31.8909 38.1007 30.5434 37.3805 29.4858 36.3228C28.4281 35.2652 27.7079 33.9177 27.4161 32.4507C27.1243 30.9837 27.274 29.4632 27.8464 28.0813C28.4188 26.6994 29.3881 25.5183 30.6318 24.6874C31.8754 23.8564 33.3375 23.4128 34.8333 23.4128C36.839 23.4128 38.7625 24.2096 40.1807 25.6278C41.599 27.0461 42.3958 28.9696 42.3958 30.9753V30.9753Z" stroke="#45413C" stroke-width="0.5" stroke-linecap="round" stroke-linejoin="round"/>
<path d="M39.6915 30.9295C39.6915 31.8904 39.4066 32.8297 38.8727 33.6286C38.3389 34.4276 37.5801 35.0503 36.6924 35.418C35.8046 35.7857 34.8278 35.8819 33.8854 35.6945C32.943 35.507 32.0773 35.0443 31.3978 34.3649C30.7184 33.6854 30.2557 32.8197 30.0682 31.8773C29.8807 30.9349 29.977 29.958 30.3447 29.0703C30.7124 28.1826 31.3351 27.4238 32.134 26.8899C32.933 26.3561 33.8723 26.0712 34.8332 26.0712C36.1217 26.0712 37.3574 26.583 38.2685 27.4941C39.1797 28.4053 39.6915 29.641 39.6915 30.9295Z" fill="#E8F4FA"/>
<path d="M34.8332 28.2253C35.9334 28.2289 37 28.6051 37.859 29.2926C38.718 29.9802 39.3187 30.9384 39.5632 32.0112C39.6481 31.6569 39.6912 31.2938 39.6915 30.9295C39.6915 29.641 39.1797 28.4053 38.2685 27.4941C37.3574 26.583 36.1217 26.0712 34.8332 26.0712C33.5447 26.0712 32.3089 26.583 31.3978 27.4941C30.4867 28.4053 29.9749 29.641 29.9749 30.9295C29.9752 31.2938 30.0182 31.6569 30.1032 32.0112C30.3477 30.9384 30.9484 29.9802 31.8074 29.2926C32.6664 28.6051 33.7329 28.2289 34.8332 28.2253Z" fill="#C0DCEB"/>
<path d="M39.6915 30.9295C39.6915 31.8904 39.4066 32.8297 38.8727 33.6286C38.3389 34.4276 37.5801 35.0503 36.6924 35.418C35.8046 35.7857 34.8278 35.8819 33.8854 35.6945C32.943 35.507 32.0773 35.0443 31.3978 34.3649C30.7184 33.6854 30.2557 32.8197 30.0682 31.8773C29.8807 30.9349 29.977 29.958 30.3447 29.0703C30.7124 28.1826 31.3351 27.4238 32.134 26.8899C32.933 26.3561 33.8723 26.0712 34.8332 26.0712C36.1217 26.0712 37.3574 26.583 38.2685 27.4941C39.1797 28.4053 39.6915 29.641 39.6915 30.9295V30.9295Z" stroke="#45413C" stroke-width="0.5" stroke-linecap="round" stroke-linejoin="round"/>
<path d="M29.9749 30.9753H39.6915" stroke="#45413C" stroke-width="0.5" stroke-linecap="round" stroke-linejoin="round"/>
<path d="M32.4224 35.1462L37.2807 26.7312" stroke="#45413C" stroke-width="0.5" stroke-linecap="round" stroke-linejoin="round"/>
<path d="M37.2441 35.1462L32.3857 26.7312" stroke="#45413C" stroke-width="0.5" stroke-linecap="round" stroke-linejoin="round"/>
<path d="M14.2723 30.9753C14.2723 31.9362 13.9874 32.8755 13.4536 33.6744C12.9197 34.4734 12.1609 35.0961 11.2732 35.4638C10.3855 35.8315 9.40861 35.9277 8.46619 35.7403C7.52376 35.5528 6.65809 35.0901 5.97864 34.4106C5.29919 33.7312 4.83648 32.8655 4.64902 31.9231C4.46156 30.9807 4.55777 30.0038 4.92548 29.1161C5.2932 28.2283 5.91591 27.4696 6.71485 26.9357C7.5138 26.4019 8.45311 26.1169 9.414 26.1169C10.052 26.1169 10.6838 26.2426 11.2732 26.4868C11.8626 26.7309 12.3982 27.0888 12.8494 27.5399C13.3005 27.9911 13.6584 28.5266 13.9025 29.1161C14.1467 29.7055 14.2723 30.3373 14.2723 30.9753Z" fill="#E8F4FA"/>
<path d="M9.414 28.2253C10.5183 28.2277 11.589 28.6056 12.4502 29.2969C13.3114 29.9882 13.9119 30.9518 14.1532 32.0294C14.2305 31.6833 14.2705 31.3299 14.2723 30.9753C14.2723 29.6868 13.7605 28.451 12.8494 27.5399C11.9382 26.6288 10.7025 26.1169 9.414 26.1169C8.12549 26.1169 6.88975 26.6288 5.97864 27.5399C5.06752 28.451 4.55566 29.6868 4.55566 30.9753C4.55751 31.3299 4.59746 31.6833 4.67483 32.0294C4.91608 30.9518 5.5166 29.9882 6.3778 29.2969C7.239 28.6056 8.30967 28.2277 9.414 28.2253Z" fill="#C0DCEB"/>
<path d="M14.2723 30.9753C14.2723 31.9362 13.9874 32.8755 13.4536 33.6744C12.9197 34.4734 12.1609 35.0961 11.2732 35.4638C10.3855 35.8315 9.40861 35.9277 8.46619 35.7403C7.52376 35.5528 6.65809 35.0901 5.97864 34.4106C5.29919 33.7312 4.83648 32.8655 4.64902 31.9231C4.46156 30.9807 4.55777 30.0038 4.92548 29.1161C5.2932 28.2283 5.91591 27.4696 6.71485 26.9357C7.5138 26.4019 8.45311 26.1169 9.414 26.1169C10.052 26.1169 10.6838 26.2426 11.2732 26.4868C11.8626 26.7309 12.3982 27.0888 12.8494 27.5399C13.3005 27.9911 13.6584 28.5266 13.9025 29.1161C14.1467 29.7055 14.2723 30.3373 14.2723 30.9753V30.9753Z" stroke="#45413C" stroke-width="0.5" stroke-linecap="round" stroke-linejoin="round"/>
<path d="M4.55566 30.9753H14.2723" stroke="#45413C" stroke-width="0.5" stroke-linecap="round" stroke-linejoin="round"/>
<path d="M6.98486 35.1828L11.8432 26.7678" stroke="#45413C" stroke-width="0.5" stroke-linecap="round" stroke-linejoin="round"/>
<path d="M11.8432 35.1828L6.98486 26.7678" stroke="#45413C" stroke-width="0.5" stroke-linecap="round" stroke-linejoin="round"/>
<path d="M28.2517 15.557V17.5187H14.9692C14.9692 17.2528 15.0242 16.9962 15.0334 16.7303L15.29 12.477C15.2988 12.3297 15.2773 12.1821 15.2269 12.0433C15.1765 11.9046 15.0982 11.7777 14.9968 11.6703C14.8955 11.563 14.7733 11.4775 14.6377 11.4192C14.5021 11.3609 14.356 11.3309 14.2084 11.3312H8.02088C7.734 11.3312 7.45887 11.4451 7.25602 11.648C7.05317 11.8508 6.93921 12.126 6.93921 12.4128C6.93921 12.6997 7.05317 12.9748 7.25602 13.1777C7.45887 13.3806 7.734 13.4945 8.02088 13.4945H12.4759C12.5505 13.4944 12.6243 13.5095 12.6929 13.5388C12.7615 13.5682 12.8234 13.6112 12.8748 13.6652C12.9263 13.7192 12.9662 13.7831 12.9922 13.8531C13.0181 13.923 13.0296 13.9975 13.0259 14.072L12.8792 16.6112C12.5872 21.5092 11.0712 26.2557 8.47004 30.4162C8.37513 30.5363 8.3068 30.6751 8.26955 30.8236C8.2323 30.9721 8.22698 31.1268 8.25395 31.2774C8.28093 31.4281 8.33957 31.5714 8.42602 31.6977C8.51246 31.824 8.62473 31.9306 8.75541 32.0103C8.88608 32.09 9.03219 32.141 9.18407 32.1601C9.33595 32.1791 9.49015 32.1658 9.63647 32.1208C9.78278 32.0758 9.91789 32.0003 10.0329 31.8992C10.1478 31.7982 10.24 31.6739 10.3034 31.5345C12.1455 28.5656 13.4865 25.3139 14.2725 21.9095C14.2962 21.8153 14.3451 21.7293 14.4142 21.6609C14.4832 21.5925 14.5697 21.5444 14.6642 21.5217C14.7587 21.499 14.8576 21.5027 14.9501 21.5323C15.0427 21.5618 15.1254 21.6162 15.1892 21.6895L22.935 31.6353C23.0374 31.764 23.1669 31.8684 23.3142 31.9413C23.4616 32.0142 23.6232 32.0537 23.7875 32.057H34.8334C35.0138 32.0573 35.1915 32.0125 35.3502 31.9266C35.5088 31.8407 35.6435 31.7165 35.7419 31.5652C35.8403 31.414 35.8993 31.2405 35.9135 31.0606C35.9278 30.8808 35.8968 30.7002 35.8234 30.5353L30.415 18.3712V15.557H28.2517ZM27.335 20.4428L23.5767 28.8853L17.0959 20.5528C17.0341 20.4726 16.9961 20.3767 16.9861 20.276C16.9762 20.1753 16.9947 20.0737 17.0396 19.983C17.0845 19.8923 17.1539 19.816 17.2401 19.7628C17.3262 19.7095 17.4255 19.6816 17.5267 19.682H26.84C26.9303 19.6819 27.0191 19.7043 27.0984 19.7472C27.1778 19.7902 27.2451 19.8523 27.2943 19.9279C27.3435 20.0035 27.373 20.0903 27.3801 20.1802C27.3872 20.2701 27.3717 20.3604 27.335 20.4428ZM25.5017 29.8937L29.3334 21.2678L33.165 29.8937H25.5017Z" fill="#6DD627" stroke="#45413C" stroke-width="0.5" stroke-linecap="round" stroke-linejoin="round"/>
<path d="M26.5833 30.9294C26.5833 31.4733 26.422 32.005 26.1198 32.4573C25.8176 32.9095 25.3881 33.262 24.8856 33.4701C24.3831 33.6783 23.8302 33.7327 23.2968 33.6266C22.7633 33.5205 22.2733 33.2586 21.8887 32.874C21.5041 32.4894 21.2422 31.9994 21.1361 31.4659C21.03 30.9325 21.0844 30.3796 21.2926 29.8771C21.5007 29.3746 21.8532 28.9451 22.3054 28.6429C22.7577 28.3407 23.2894 28.1794 23.8333 28.1794C24.5626 28.1794 25.2621 28.4692 25.7778 28.9849C26.2935 29.5006 26.5833 30.2001 26.5833 30.9294Z" fill="#DAEDF7"/>
<path d="M23.8333 29.8936C24.4116 29.896 24.9745 30.0806 25.4419 30.4213C25.9092 30.7619 26.2573 31.2413 26.4366 31.7911C26.5276 31.5127 26.577 31.2223 26.5833 30.9294C26.5833 30.2001 26.2935 29.5006 25.7778 28.9849C25.2621 28.4692 24.5626 28.1794 23.8333 28.1794C23.1039 28.1794 22.4044 28.4692 21.8887 28.9849C21.373 29.5006 21.0833 30.2001 21.0833 30.9294C21.0895 31.2223 21.1389 31.5127 21.2299 31.7911C21.4092 31.2413 21.7573 30.7619 22.2247 30.4213C22.692 30.0806 23.2549 29.896 23.8333 29.8936Z" fill="#E8F4FA"/>
<path d="M21.0833 30.9294C21.0833 31.6588 21.373 32.3583 21.8887 32.874C22.4044 33.3897 23.1039 33.6794 23.8333 33.6794C24.5626 33.6794 25.2621 33.3897 25.7778 32.874C26.2935 32.3583 26.5833 31.6588 26.5833 30.9294C26.5833 30.2001 26.2935 29.5006 25.7778 28.9849C25.2621 28.4692 24.5626 28.1794 23.8333 28.1794C23.1039 28.1794 22.4044 28.4692 21.8887 28.9849C21.373 29.5006 21.0833 30.2001 21.0833 30.9294V30.9294Z" stroke="#45413C" stroke-width="0.5" stroke-linecap="round" stroke-linejoin="round"/>
<path d="M24.4658 15.557H33.1191C35.0808 15.557 35.1908 11.7711 33.1191 11.7711C31.0475 11.7711 28.16 12.9903 26.0883 12.8711C22.2841 12.6053 23.1825 15.557 24.4658 15.557Z" fill="#DEBB7E"/>
<path d="M26.0882 14.1361C28.1599 14.2003 31.0474 13.5586 33.119 13.5586C33.3979 13.5192 33.6823 13.5614 33.9377 13.6801C34.1931 13.7989 34.4086 13.9891 34.5582 14.2278C34.8149 13.137 34.3657 11.7711 33.119 11.7711C31.0474 11.7711 28.1599 12.9903 26.0882 12.8528C23.6682 12.697 23.1549 13.8245 23.4207 14.6861C23.6407 14.347 24.3923 14.072 26.0882 14.1361Z" fill="#F0D5A8"/>
<path d="M33.1191 15.5569C33.2397 15.5564 33.3598 15.541 33.4766 15.5111C33.359 15.5366 33.2394 15.5519 33.1191 15.5569Z" fill="#F0D5A8"/>
<path d="M24.4658 15.557H33.1191C35.0808 15.557 35.1908 11.7711 33.1191 11.7711C31.0475 11.7711 28.16 12.9903 26.0883 12.8711C22.2841 12.6053 23.1825 15.557 24.4658 15.557Z" stroke="#45413C" stroke-width="0.5"/>
<path d="M8.87317 10.9645H6.9115C5.93793 10.9726 4.993 11.2949 4.2174 11.8834C3.4418 12.4719 2.87699 13.2952 2.60707 14.2306C2.33716 15.1661 2.37656 16.1637 2.71941 17.0749C3.06226 17.9861 3.69024 18.7623 4.50984 19.2878L5.27067 19.7645C5.43017 19.862 5.60732 19.9271 5.79199 19.9562C5.97667 19.9852 6.16525 19.9776 6.34698 19.9338C6.52872 19.8899 6.70004 19.8107 6.85116 19.7007C7.00228 19.5906 7.13025 19.4519 7.22776 19.2924C7.32526 19.1329 7.3904 18.9557 7.41944 18.7711C7.44849 18.5864 7.44088 18.3978 7.39704 18.2161C7.3532 18.0343 7.274 17.863 7.16395 17.7119C7.05391 17.5608 6.91517 17.4328 6.75567 17.3353L5.9215 16.8403C5.59944 16.6423 5.35098 16.3444 5.21405 15.992C5.07711 15.6395 5.05921 15.252 5.16308 14.8885C5.26694 14.525 5.48687 14.2054 5.78931 13.9785C6.09175 13.7517 6.4601 13.63 6.83817 13.632H8.87317C9.16005 13.632 9.43517 13.518 9.63803 13.3152C9.84088 13.1123 9.95484 12.8372 9.95484 12.5503V12.0461C9.95484 11.7593 9.84088 11.4841 9.63803 11.2813C9.43517 11.0784 9.16005 10.9645 8.87317 10.9645Z" fill="#DEBB7E"/>
<path d="M8.8733 10.9645H6.91163C5.71065 10.9645 4.55885 11.4416 3.70962 12.2908C2.86039 13.14 2.3833 14.2918 2.3833 15.4928C2.38499 15.7633 2.40952 16.0331 2.45663 16.2995C2.65702 15.2656 3.21145 14.334 4.02455 13.6647C4.83764 12.9955 5.85856 12.6306 6.91163 12.6328H8.8733C9.05995 12.6354 9.24269 12.6866 9.40346 12.7815C9.56422 12.8763 9.69745 13.0115 9.78997 13.1736C9.88633 13.0097 9.93698 12.823 9.93663 12.6328V12.0461C9.93667 11.7624 9.82523 11.49 9.62633 11.2877C9.42743 11.0854 9.15699 10.9693 8.8733 10.9645Z" fill="#F0D5A8"/>
<path d="M8.87317 10.9645H6.9115C5.93793 10.9726 4.993 11.2949 4.2174 11.8834C3.4418 12.4719 2.87699 13.2952 2.60707 14.2306C2.33716 15.1661 2.37656 16.1637 2.71941 17.0749C3.06226 17.9861 3.69024 18.7623 4.50984 19.2878L5.27067 19.7645C5.43017 19.862 5.60732 19.9271 5.79199 19.9562C5.97667 19.9852 6.16525 19.9776 6.34698 19.9338C6.52872 19.8899 6.70003 19.8107 6.85116 19.7007C7.00228 19.5906 7.13025 19.4519 7.22775 19.2924C7.32526 19.1329 7.3904 18.9557 7.41944 18.7711C7.44849 18.5864 7.44087 18.3978 7.39704 18.2161C7.3532 18.0343 7.274 17.863 7.16395 17.7119C7.05391 17.5608 6.91517 17.4328 6.75567 17.3353L5.9215 16.8403C5.59944 16.6423 5.35098 16.3444 5.21405 15.992C5.07711 15.6395 5.05921 15.252 5.16308 14.8885C5.26694 14.525 5.48687 14.2054 5.78931 13.9785C6.09175 13.7517 6.4601 13.63 6.83817 13.632H8.87317C9.16005 13.632 9.43517 13.518 9.63803 13.3152C9.84088 13.1123 9.95484 12.8372 9.95484 12.5503V12.0461C9.95484 11.7593 9.84088 11.4841 9.63803 11.2813C9.43517 11.0784 9.16005 10.9645 8.87317 10.9645V10.9645Z" stroke="#45413C" stroke-width="0.5" stroke-linecap="round" stroke-linejoin="round"/>
</svg>
