<svg width="44" height="45" viewBox="0 0 44 45" fill="none" xmlns="http://www.w3.org/2000/svg">
<path opacity="0.15" d="M8.59814 38.9962C8.59814 39.3609 10.24 39.7106 13.1624 39.9685C16.0848 40.2264 20.0485 40.3712 24.1815 40.3712C28.3144 40.3712 32.2781 40.2264 35.2006 39.9685C38.123 39.7106 39.7648 39.3609 39.7648 38.9962C39.7648 38.6315 38.123 38.2818 35.2006 38.0239C32.2781 37.7661 28.3144 37.6212 24.1815 37.6212C20.0485 37.6212 16.0848 37.7661 13.1624 38.0239C10.24 38.2818 8.59814 38.6315 8.59814 38.9962Z" fill="#45413C"/>
<path d="M25.4741 33.3588H34.3566V35.9529H25.4741V33.3588Z" fill="#656769" stroke="#45413C" stroke-width="0.5" stroke-linecap="round" stroke-linejoin="round"/>
<path d="M38.4996 34.5046C38.5014 35.212 38.2933 35.9041 37.9016 36.4932C37.5098 37.0823 36.9521 37.542 36.2991 37.814C35.646 38.086 34.9269 38.1581 34.2328 38.0212C33.5387 37.8843 32.9008 37.5445 32.4 37.0449C31.8991 36.5453 31.5577 35.9083 31.419 35.2146C31.2803 34.5208 31.3506 33.8015 31.6209 33.1478C31.8912 32.494 32.3494 31.9351 32.9375 31.5419C33.5256 31.1486 34.2171 30.9387 34.9246 30.9387C35.3936 30.9375 35.8583 31.0289 36.292 31.2075C36.7257 31.3862 37.1199 31.6487 37.452 31.9799C37.784 32.3111 38.0475 32.7046 38.2273 33.1379C38.4071 33.5711 38.4996 34.0355 38.4996 34.5046Z" fill="#ADC4D9"/>
<path d="M34.9247 30.9387C33.979 30.9387 33.072 31.3144 32.4033 31.9831C31.7346 32.6519 31.3589 33.5588 31.3589 34.5046C31.3582 34.7227 31.3766 34.9405 31.4139 35.1554H38.4447C38.482 34.9405 38.5004 34.7227 38.4997 34.5046C38.4997 34.0355 38.4072 33.5711 38.2274 33.1379C38.0477 32.7046 37.7842 32.3111 37.4521 31.9799C37.12 31.6487 36.7258 31.3862 36.2921 31.2075C35.8585 31.0289 35.3938 30.9375 34.9247 30.9387Z" fill="#8CA4B8"/>
<path d="M28.3614 34.5045C28.3632 35.2104 28.156 35.901 27.7658 36.4893C27.3757 37.0776 26.8201 37.5372 26.1692 37.8102C25.5183 38.0833 24.801 38.1575 24.108 38.0235C23.4149 37.8896 22.777 37.5534 22.2747 37.0575C21.7724 36.5615 21.4281 35.928 21.2853 35.2367C21.1425 34.5454 21.2076 33.8273 21.4723 33.1729C21.737 32.5185 22.1895 31.9572 22.7727 31.5596C23.356 31.1619 24.0439 30.9459 24.7497 30.9387C25.2215 30.9338 25.6896 31.0224 26.127 31.1993C26.5644 31.3763 26.9624 31.638 27.2981 31.9695C27.6339 32.301 27.9007 32.6956 28.0832 33.1307C28.2657 33.5658 28.3602 34.0327 28.3614 34.5045Z" fill="#ADC4D9"/>
<path d="M24.7499 30.9387C23.8042 30.9387 22.8972 31.3144 22.2285 31.9831C21.5598 32.6519 21.1841 33.5588 21.1841 34.5046C21.1834 34.7227 21.2018 34.9405 21.2391 35.1554H28.2608C28.3057 34.9414 28.3272 34.7232 28.3249 34.5046C28.3225 33.558 27.9448 32.651 27.2746 31.9826C26.6044 31.3141 25.6965 30.9387 24.7499 30.9387Z" fill="#8CA4B8"/>
<path d="M38.4996 34.5046C38.5014 35.212 38.2933 35.9041 37.9016 36.4932C37.5098 37.0823 36.9521 37.542 36.2991 37.814C35.646 38.086 34.9269 38.1581 34.2328 38.0212C33.5387 37.8843 32.9008 37.5445 32.4 37.0449C31.8991 36.5453 31.5577 35.9083 31.419 35.2146C31.2803 34.5208 31.3506 33.8015 31.6209 33.1478C31.8912 32.494 32.3494 31.9351 32.9375 31.5419C33.5256 31.1486 34.2171 30.9387 34.9246 30.9387C35.3936 30.9375 35.8583 31.0289 36.292 31.2075C36.7257 31.3862 37.1199 31.6487 37.452 31.9799C37.784 32.3111 38.0475 32.7046 38.2273 33.1379C38.4071 33.5711 38.4996 34.0355 38.4996 34.5046V34.5046Z" stroke="#45413C" stroke-width="0.5" stroke-linecap="round" stroke-linejoin="round"/>
<path d="M28.3614 34.5045C28.3632 35.2104 28.156 35.901 27.7658 36.4893C27.3757 37.0776 26.8201 37.5372 26.1692 37.8102C25.5183 38.0833 24.801 38.1575 24.108 38.0235C23.4149 37.8896 22.777 37.5534 22.2747 37.0575C21.7724 36.5615 21.4281 35.928 21.2853 35.2367C21.1425 34.5454 21.2076 33.8273 21.4723 33.1729C21.737 32.5185 22.1895 31.9572 22.7727 31.5596C23.356 31.1619 24.0439 30.9459 24.7497 30.9387C25.2215 30.9338 25.6896 31.0224 26.127 31.1993C26.5644 31.3763 26.9624 31.638 27.2981 31.9695C27.6339 32.301 27.9007 32.6956 28.0832 33.1307C28.2657 33.5658 28.3602 34.0327 28.3614 34.5045V34.5045Z" stroke="#45413C" stroke-width="0.5" stroke-linecap="round" stroke-linejoin="round"/>
<path d="M26.4548 34.5046C26.4548 34.8329 26.3578 35.154 26.176 35.4275C25.9943 35.701 25.7358 35.9148 25.4331 36.0421C25.1304 36.1694 24.7969 36.2045 24.4743 36.143C24.1517 36.0816 23.8544 35.9263 23.6197 35.6966C23.385 35.4669 23.2233 35.1731 23.1548 34.8519C23.0864 34.5308 23.1142 34.1965 23.2349 33.8911C23.3555 33.5857 23.5637 33.3227 23.8332 33.135C24.1026 32.9474 24.4215 32.8434 24.7498 32.8362C24.972 32.8313 25.1929 32.8709 25.3995 32.9525C25.6062 33.0342 25.7945 33.1563 25.9533 33.3117C26.1121 33.4671 26.2383 33.6527 26.3244 33.8575C26.4105 34.0624 26.4549 34.2823 26.4548 34.5046Z" fill="#627B8C" stroke="#45413C" stroke-width="0.5" stroke-linecap="round" stroke-linejoin="round"/>
<path d="M36.602 34.5045C36.6039 34.8367 36.507 35.1619 36.3238 35.439C36.1406 35.716 35.8792 35.9325 35.5729 36.0608C35.2665 36.1892 34.9289 36.2237 34.6029 36.1601C34.2769 36.0964 33.9772 35.9373 33.7417 35.7031C33.5061 35.4689 33.3455 35.17 33.28 34.8443C33.2145 34.5187 33.2472 34.1809 33.3739 33.8739C33.5006 33.5668 33.7156 33.3043 33.9916 33.1195C34.2677 32.9348 34.5924 32.8362 34.9245 32.8362C35.3679 32.8362 35.7932 33.0117 36.1075 33.3243C36.4218 33.6369 36.5996 34.0612 36.602 34.5045Z" fill="#627B8C" stroke="#45413C" stroke-width="0.5" stroke-linecap="round" stroke-linejoin="round"/>
<path d="M43.5416 6.45455C43.5416 5.96832 43.3485 5.502 43.0047 5.15819C42.6608 4.81437 42.1945 4.62122 41.7083 4.62122C29.425 4.67622 23.9983 5.40955 20.7991 7.59122C17.435 9.88288 13.86 14.5029 8.93747 16.7579C4.01497 19.0129 1.6958 21.7812 1.6958 25.7504C1.6958 29.7195 6.73747 33.2945 14.9875 33.2945H41.7083C42.1945 33.2945 42.6608 33.1014 43.0047 32.7576C43.3485 32.4138 43.5416 31.9474 43.5416 31.4612V6.45455Z" fill="white"/>
<path d="M1.91562 23.7887C1.75529 24.452 1.67527 25.1321 1.67728 25.8145C1.67728 29.7837 6.71895 33.3587 14.9689 33.3587H41.7081C42.1943 33.3587 42.6607 33.1655 43.0045 32.8217C43.3483 32.4779 43.5415 32.0116 43.5415 31.5254V29.8662H14.9689C7.75478 29.8662 2.98812 27.1345 1.91562 23.7887Z" fill="#E0E0E0"/>
<path d="M43.5416 6.45455C43.5416 5.96832 43.3485 5.502 43.0047 5.15819C42.6608 4.81437 42.1945 4.62122 41.7083 4.62122C29.425 4.67622 23.9983 5.40955 20.7991 7.59122C17.435 9.88288 13.86 14.5029 8.93747 16.7579C4.01497 19.0129 1.6958 21.7812 1.6958 25.7504C1.6958 29.7195 6.73747 33.2945 14.9875 33.2945H41.7083C42.1945 33.2945 42.6608 33.1014 43.0047 32.7576C43.3485 32.4138 43.5416 31.9474 43.5416 31.4612V6.45455Z" stroke="#45413C" stroke-width="0.5" stroke-linecap="round" stroke-linejoin="round"/>
<path d="M1.67725 25.8146C1.67725 29.0046 4.93141 31.9379 10.4956 32.9737C11.8722 30.8407 12.5984 28.3532 12.5856 25.8146C12.6188 22.4509 11.3243 19.2099 8.98308 16.7946H8.91891C4.08808 19.0771 1.67725 21.8454 1.67725 25.8146Z" fill="#00B8F0"/>
<path d="M1.91562 23.7887C1.75529 24.452 1.67527 25.1321 1.67728 25.8145C1.67728 29.0045 4.93145 31.9379 10.4956 32.9737C11.1545 31.96 11.6667 30.8583 12.0173 29.7012C6.46228 29.0687 2.84145 26.6212 1.91562 23.7887Z" fill="#009FD9"/>
<path d="M1.67725 25.8146C1.67725 29.0046 4.93141 31.9379 10.4956 32.9737C11.8722 30.8407 12.5984 28.3532 12.5856 25.8146C12.6188 22.4509 11.3243 19.2099 8.98308 16.7946H8.91891C4.08808 19.0771 1.67725 21.8454 1.67725 25.8146Z" stroke="#45413C" stroke-width="0.5" stroke-linecap="round" stroke-linejoin="round"/>
<path d="M13.2088 38.0796H21.5504C21.7426 38.0801 21.9301 38.0202 22.0863 37.9083C22.2426 37.7965 22.3598 37.6383 22.4213 37.4563L23.8329 33.3588H13.6121L12.3471 36.8513C12.2971 36.9897 12.2811 37.1381 12.3005 37.284C12.3199 37.4298 12.3742 37.5689 12.4587 37.6894C12.5432 37.8098 12.6555 37.9082 12.7861 37.9761C12.9166 38.044 13.0616 38.0795 13.2088 38.0796Z" fill="#00B8F0"/>
<path d="M23.1546 35.3113L23.8146 33.3588H13.6121L12.9062 35.3113H23.1546Z" fill="#009FD9"/>
<path d="M13.2088 38.0796H21.5504C21.7426 38.0801 21.9301 38.0202 22.0863 37.9083C22.2426 37.7965 22.3598 37.6383 22.4213 37.4563L23.8329 33.3588H13.6121L12.3471 36.8513C12.2971 36.9897 12.2811 37.1381 12.3005 37.284C12.3199 37.4298 12.3742 37.5689 12.4587 37.6894C12.5432 37.8098 12.6555 37.9082 12.7861 37.9761C12.9166 38.044 13.0616 38.0795 13.2088 38.0796V38.0796Z" stroke="#45413C" stroke-width="0.5" stroke-linecap="round" stroke-linejoin="round"/>
<path d="M18.6083 9.342C16.8391 10.8912 14.9416 12.7795 12.8149 14.4203C19.5064 13.6327 26.2473 13.3447 32.9816 13.5587C33.1462 13.5626 33.3089 13.5221 33.4524 13.4414C33.596 13.3608 33.7152 13.243 33.7974 13.1003L35.5574 10.0662C35.6381 9.92655 35.6804 9.76814 35.6803 9.60692C35.6801 9.4457 35.6374 9.28738 35.5565 9.14792C35.4756 9.00846 35.3594 8.8928 35.2196 8.81261C35.0797 8.73242 34.9212 8.69053 34.7599 8.69117H27.1974C24.3239 8.73517 21.4556 8.95251 18.6083 9.342Z" fill="#00B8F0"/>
<path d="M20.3955 13.7237C22.9347 13.577 25.3363 13.522 27.3805 13.5037L31.0013 8.69116H27.1972C26.2805 8.69116 25.2997 8.69116 24.328 8.78283L20.3955 13.7237Z" fill="#4ACFFF"/>
<path d="M18.6083 9.342C16.8391 10.8912 14.9416 12.7795 12.8149 14.4203C19.5064 13.6327 26.2473 13.3447 32.9816 13.5587C33.1462 13.5626 33.3089 13.5221 33.4524 13.4414C33.596 13.3608 33.7152 13.243 33.7974 13.1003L35.5574 10.0662C35.6381 9.92655 35.6804 9.76814 35.6803 9.60692C35.6801 9.4457 35.6374 9.28738 35.5565 9.14792C35.4756 9.00846 35.3594 8.8928 35.2196 8.81261C35.0797 8.73242 34.9212 8.69053 34.7599 8.69117H27.1974C24.3239 8.73517 21.4556 8.95251 18.6083 9.342V9.342Z" stroke="#45413C" stroke-width="0.5" stroke-linecap="round" stroke-linejoin="round"/>
<path d="M17.343 24.8795C17.3449 25.1374 17.2701 25.3899 17.1281 25.6052C16.9862 25.8204 16.7836 25.9887 16.5459 26.0886C16.3082 26.1886 16.0462 26.2157 15.7931 26.1665C15.54 26.1173 15.3072 25.994 15.1243 25.8124C14.9413 25.6307 14.8164 25.3988 14.7654 25.146C14.7145 24.8933 14.7397 24.6311 14.8379 24.3927C14.9362 24.1543 15.103 23.9505 15.3173 23.8071C15.5315 23.6636 15.7835 23.587 16.0414 23.587C16.385 23.587 16.7147 23.7229 16.9586 23.965C17.2024 24.2072 17.3406 24.5359 17.343 24.8795Z" fill="#FFE500" stroke="#45413C" stroke-width="0.5" stroke-linecap="round" stroke-linejoin="round"/>
<path d="M27.1333 28.702H43.5416V19.9203H30.2499C30.1579 19.919 30.0676 19.9453 29.9907 19.996C29.9139 20.0467 29.8541 20.1194 29.8191 20.2045L26.7208 28.0787C26.6944 28.1469 26.6847 28.2205 26.6926 28.2933C26.7005 28.366 26.7257 28.4358 26.7661 28.4969C26.8064 28.5579 26.8609 28.6084 26.9247 28.644C26.9886 28.6797 27.0601 28.6996 27.1333 28.702Z" fill="#00B8F0" stroke="#45413C" stroke-width="0.5" stroke-linecap="round" stroke-linejoin="round"/>
<path d="M22.1924 28.0787L25.2908 20.2045C25.3241 20.1201 25.3822 20.0478 25.4575 19.997C25.5328 19.9463 25.6217 19.9196 25.7124 19.9204H26.9591C27.0338 19.9191 27.1077 19.9365 27.174 19.9709C27.2403 20.0054 27.2969 20.0559 27.3388 20.1178C27.3807 20.1797 27.4064 20.251 27.4138 20.3254C27.4211 20.3998 27.4098 20.4748 27.3808 20.5437L24.2824 28.4545C24.2517 28.5414 24.1945 28.6165 24.1188 28.6691C24.0432 28.7217 23.9529 28.7493 23.8608 28.7479H22.6141C22.5332 28.7534 22.4523 28.7369 22.38 28.7002C22.3077 28.6634 22.2467 28.6078 22.2034 28.5392C22.1602 28.4706 22.1363 28.3915 22.1344 28.3105C22.1325 28.2294 22.1525 28.1493 22.1924 28.0787Z" fill="#00B8F0" stroke="#45413C" stroke-width="0.5" stroke-linecap="round" stroke-linejoin="round"/>
</svg>
