<svg width="44" height="45" viewBox="0 0 44 45" fill="none" xmlns="http://www.w3.org/2000/svg">
<path opacity="0.15" d="M4.54663 38.5838C4.54663 39.0578 6.43375 39.5125 9.79284 39.8477C13.1519 40.1829 17.7078 40.3713 22.4583 40.3713C27.2088 40.3713 31.7647 40.1829 35.1238 39.8477C38.4828 39.5125 40.37 39.0578 40.37 38.5838C40.37 38.1097 38.4828 37.655 35.1238 37.3198C31.7647 36.9846 27.2088 36.7963 22.4583 36.7963C17.7078 36.7963 13.1519 36.9846 9.79284 37.3198C6.43375 37.655 4.54663 38.1097 4.54663 38.5838Z" fill="#45413C"/>
<path d="M18.15 28.1428H2.32837V21.552C2.33057 20.1496 2.69023 18.7709 3.37337 17.5462L7.4342 10.3412C7.81738 9.65686 8.37616 9.08714 9.05291 8.69075C9.72967 8.29437 10.4999 8.08567 11.2842 8.08618H18.15V28.1428Z" fill="#FFFCE5"/>
<path d="M11.2842 8.08618C10.4999 8.08567 9.72967 8.29437 9.05291 8.69075C8.37616 9.08714 7.81738 9.65686 7.4342 10.3412L3.38254 17.5462C2.69391 18.7692 2.33093 20.1485 2.32837 21.552V24.5679C2.33003 23.1671 2.69313 21.7905 3.38254 20.5712L7.4342 13.357C7.8193 12.675 8.37875 12.1077 9.05526 11.7131C9.73176 11.3184 10.501 11.1107 11.2842 11.1112H18.15V8.08618H11.2842Z" fill="white"/>
<path d="M18.15 28.1428H2.32837V21.552C2.33057 20.1496 2.69023 18.7709 3.37337 17.5462L7.4342 10.3412C7.81738 9.65686 8.37616 9.08714 9.05291 8.69075C9.72967 8.29437 10.4999 8.08567 11.2842 8.08618H18.15V28.1428Z" stroke="#45413C" stroke-width="0.5" stroke-linecap="round" stroke-linejoin="round"/>
<path d="M1.52173 28.1429H42.1576V34.2113H1.52173V28.1429Z" fill="#FF6242"/>
<path d="M40.9842 28.1429H2.69506C2.38387 28.1429 2.08543 28.2665 1.86539 28.4865C1.64535 28.7066 1.52173 29.005 1.52173 29.3162V31.7545C1.52173 31.4433 1.64535 31.1449 1.86539 30.9249C2.08543 30.7048 2.38387 30.5812 2.69506 30.5812H40.9842C41.1391 30.58 41.2926 30.6094 41.4361 30.6679C41.5795 30.7263 41.7099 30.8125 41.8198 30.9216C41.9298 31.0307 42.017 31.1604 42.0765 31.3034C42.1361 31.4463 42.1667 31.5997 42.1667 31.7545V29.3162C42.1667 29.1613 42.1361 29.008 42.0765 28.865C42.017 28.7221 41.9298 28.5923 41.8198 28.4833C41.7099 28.3742 41.5795 28.288 41.4361 28.2295C41.2926 28.1711 41.1391 28.1416 40.9842 28.1429Z" fill="#FF866E"/>
<path d="M1.52173 28.1429H42.1576V34.2113H1.52173V28.1429Z" stroke="#45413C" stroke-width="0.5" stroke-linecap="round" stroke-linejoin="round"/>
<path d="M19.3418 4.71289H40.4251C40.7412 4.71289 41.0443 4.83844 41.2678 5.06192C41.4913 5.2854 41.6168 5.58851 41.6168 5.90456V28.1429H18.1501V5.90456C18.1501 5.58851 18.2757 5.2854 18.4992 5.06192C18.7227 4.83844 19.0258 4.71289 19.3418 4.71289Z" fill="#FFF48C"/>
<path d="M40.3793 4.71289H19.3418C19.0258 4.71289 18.7227 4.83844 18.4992 5.06192C18.2757 5.2854 18.1501 5.58851 18.1501 5.90456V8.93872C18.1501 8.62267 18.2757 8.31957 18.4992 8.09609C18.7227 7.87261 19.0258 7.74706 19.3418 7.74706H40.3793C40.6962 7.74705 41.0003 7.87231 41.2252 8.09553C41.4501 8.31875 41.5777 8.62183 41.5801 8.93872V5.90456C41.5777 5.58767 41.4501 5.28458 41.2252 5.06136C41.0003 4.83814 40.6962 4.71288 40.3793 4.71289Z" fill="#FFFACF"/>
<path d="M19.3418 4.71289H40.4251C40.7412 4.71289 41.0443 4.83844 41.2678 5.06192C41.4913 5.2854 41.6168 5.58851 41.6168 5.90456V28.1429H18.1501V5.90456C18.1501 5.58851 18.2757 5.2854 18.4992 5.06192C18.7227 4.83844 19.0258 4.71289 19.3418 4.71289V4.71289Z" stroke="#45413C" stroke-width="0.5" stroke-linecap="round" stroke-linejoin="round"/>
<path d="M5.9126 34.2112C5.9126 34.7794 6.02451 35.342 6.24195 35.8669C6.45938 36.3919 6.77808 36.8688 7.17985 37.2706C7.58162 37.6724 8.05859 37.9911 8.58352 38.2085C9.10846 38.4259 9.67108 38.5379 10.2393 38.5379C10.8075 38.5379 11.3701 38.4259 11.895 38.2085C12.4199 37.9911 12.8969 37.6724 13.2987 37.2706C13.7004 36.8688 14.0191 36.3919 14.2366 35.8669C14.454 35.342 14.5659 34.7794 14.5659 34.2112C14.5659 33.643 14.454 33.0804 14.2366 32.5554C14.0191 32.0305 13.7004 31.5535 13.2987 31.1518C12.8969 30.75 12.4199 30.4313 11.895 30.2139C11.3701 29.9964 10.8075 29.8845 10.2393 29.8845C9.67108 29.8845 9.10846 29.9964 8.58352 30.2139C8.05859 30.4313 7.58162 30.75 7.17985 31.1518C6.77808 31.5535 6.45938 32.0305 6.24195 32.5554C6.02451 33.0804 5.9126 33.643 5.9126 34.2112Z" fill="#656769"/>
<path d="M28.2241 34.2112C28.2241 35.3587 28.68 36.4592 29.4914 37.2706C30.3028 38.082 31.4033 38.5379 32.5508 38.5379C33.6983 38.5379 34.7988 38.082 35.6102 37.2706C36.4216 36.4592 36.8775 35.3587 36.8775 34.2112C36.8775 33.0637 36.4216 31.9632 35.6102 31.1518C34.7988 30.3404 33.6983 29.8845 32.5508 29.8845C31.4033 29.8845 30.3028 30.3404 29.4914 31.1518C28.68 31.9632 28.2241 33.0637 28.2241 34.2112Z" fill="#656769"/>
<path d="M10.2393 31.5987C11.2374 31.5994 12.2048 31.9446 12.978 32.5759C13.7512 33.2071 14.283 34.0858 14.4834 35.0637C14.6077 34.4364 14.5914 33.7893 14.4357 33.1691C14.2799 32.5489 13.9887 31.9709 13.5828 31.4767C13.1769 30.9825 12.6666 30.5845 12.0884 30.3112C11.5103 30.0379 10.8787 29.8961 10.2393 29.8961C9.59978 29.8961 8.96825 30.0379 8.39011 30.3112C7.81198 30.5845 7.30161 30.9825 6.89574 31.4767C6.48987 31.9709 6.19859 32.5489 6.04286 33.1691C5.88713 33.7893 5.87081 34.4364 5.9951 35.0637C6.19558 34.0858 6.72731 33.2071 7.50052 32.5759C8.27374 31.9446 9.24109 31.5994 10.2393 31.5987Z" fill="#525252"/>
<path d="M32.5508 31.5987C33.549 31.5994 34.5163 31.9446 35.2895 32.5759C36.0627 33.2071 36.5945 34.0858 36.795 35.0637C36.9192 34.4364 36.9029 33.7893 36.7472 33.1691C36.5915 32.5489 36.3002 31.9709 35.8943 31.4767C35.4884 30.9825 34.9781 30.5845 34.3999 30.3112C33.8218 30.0379 33.1903 29.8961 32.5508 29.8961C31.9113 29.8961 31.2798 30.0379 30.7016 30.3112C30.1235 30.5845 29.6131 30.9825 29.2073 31.4767C28.8014 31.9709 28.5101 32.5489 28.3544 33.1691C28.1986 33.7893 28.1823 34.4364 28.3066 35.0637C28.5071 34.0858 29.0388 33.2071 29.812 32.5759C30.5853 31.9446 31.5526 31.5994 32.5508 31.5987Z" fill="#525252"/>
<path d="M5.9126 34.2112C5.9126 34.7794 6.02451 35.342 6.24195 35.8669C6.45938 36.3919 6.77808 36.8688 7.17985 37.2706C7.58162 37.6724 8.05859 37.9911 8.58352 38.2085C9.10846 38.4259 9.67108 38.5379 10.2393 38.5379C10.8075 38.5379 11.3701 38.4259 11.895 38.2085C12.4199 37.9911 12.8969 37.6724 13.2987 37.2706C13.7004 36.8688 14.0191 36.3919 14.2366 35.8669C14.454 35.342 14.5659 34.7794 14.5659 34.2112C14.5659 33.643 14.454 33.0804 14.2366 32.5554C14.0191 32.0305 13.7004 31.5535 13.2987 31.1518C12.8969 30.75 12.4199 30.4313 11.895 30.2139C11.3701 29.9964 10.8075 29.8845 10.2393 29.8845C9.67108 29.8845 9.10846 29.9964 8.58352 30.2139C8.05859 30.4313 7.58162 30.75 7.17985 31.1518C6.77808 31.5535 6.45938 32.0305 6.24195 32.5554C6.02451 33.0804 5.9126 33.643 5.9126 34.2112V34.2112Z" stroke="#45413C" stroke-width="0.5" stroke-linecap="round" stroke-linejoin="round"/>
<path d="M28.2241 34.2112C28.2241 35.3587 28.68 36.4592 29.4914 37.2706C30.3028 38.082 31.4033 38.5379 32.5508 38.5379C33.6983 38.5379 34.7988 38.082 35.6102 37.2706C36.4216 36.4592 36.8775 35.3587 36.8775 34.2112C36.8775 33.0637 36.4216 31.9632 35.6102 31.1518C34.7988 30.3404 33.6983 29.8845 32.5508 29.8845C31.4033 29.8845 30.3028 30.3404 29.4914 31.1518C28.68 31.9632 28.2241 33.0637 28.2241 34.2112V34.2112Z" stroke="#45413C" stroke-width="0.5" stroke-linecap="round" stroke-linejoin="round"/>
<path d="M2.32837 22.0195H18.15V28.1337H2.32837V22.0195Z" fill="#FF6242" stroke="#45413C" stroke-width="0.5" stroke-linecap="round" stroke-linejoin="round"/>
<path d="M13.4108 11.2762H6.90245L3.37328 17.5462C3.27244 17.7296 3.18078 17.9221 3.08911 18.1146H11.6599C11.8348 18.1133 12.0073 18.0741 12.1655 17.9997C12.3238 17.9253 12.464 17.8175 12.5766 17.6837L14.3274 15.5662C14.5064 15.3533 14.6039 15.0836 14.6024 14.8054V12.4771C14.6025 12.1602 14.4772 11.8561 14.254 11.6312C14.0308 11.4062 13.7277 11.2787 13.4108 11.2762Z" fill="#00B8F0"/>
<path d="M13.411 11.2762H10.6152L6.94849 18.1146H11.6418C11.8168 18.1139 11.9895 18.075 12.1478 18.0005C12.3061 17.9261 12.4463 17.818 12.5585 17.6837L14.3093 15.5662C14.4883 15.3533 14.5857 15.0836 14.5843 14.8054V12.4771C14.5844 12.1633 14.4617 11.862 14.2424 11.6375C14.0231 11.4131 13.7247 11.2834 13.411 11.2762Z" fill="#4ACFFF"/>
<path d="M13.4108 11.2762H6.90245L3.37328 17.5462C3.27244 17.7296 3.18078 17.9221 3.08911 18.1146H11.6599C11.8348 18.1133 12.0073 18.0741 12.1655 17.9997C12.3238 17.9253 12.464 17.8175 12.5766 17.6837L14.3274 15.5662C14.5064 15.3533 14.6039 15.0836 14.6024 14.8054V12.4771C14.6025 12.1602 14.4772 11.8561 14.254 11.6312C14.0308 11.4062 13.7277 11.2787 13.4108 11.2762V11.2762Z" stroke="#45413C" stroke-width="0.5" stroke-linecap="round" stroke-linejoin="round"/>
<path d="M4.41845 23.0829C4.41846 22.8642 4.37524 22.6477 4.29129 22.4458C4.20733 22.2439 4.0843 22.0606 3.92926 21.9064C3.77422 21.7522 3.59023 21.6302 3.38787 21.5474C3.18551 21.4645 2.96878 21.4225 2.75012 21.4237H1.76929V24.7879H2.75012C2.97269 24.7892 3.19324 24.7457 3.39866 24.66C3.60407 24.5744 3.79015 24.4482 3.94581 24.2891C4.10147 24.1301 4.22354 23.9413 4.30473 23.7341C4.38593 23.5268 4.42461 23.3054 4.41845 23.0829Z" fill="#FF8A14" stroke="#45413C" stroke-width="0.5" stroke-linecap="round" stroke-linejoin="round"/>
<path d="M18.1501 10.4604H41.5801" stroke="#45413C" stroke-width="0.5" stroke-linecap="round" stroke-linejoin="round"/>
<path d="M18.1501 16.4279H41.5801" stroke="#45413C" stroke-width="0.5" stroke-linecap="round" stroke-linejoin="round"/>
<path d="M18.1501 22.5421H41.5801" stroke="#45413C" stroke-width="0.5" stroke-linecap="round" stroke-linejoin="round"/>
<path d="M8.81836 34.2112C8.81836 34.3978 8.85511 34.5826 8.92651 34.755C8.99792 34.9274 9.10258 35.084 9.23451 35.2159C9.36645 35.3479 9.52308 35.4525 9.69546 35.5239C9.86785 35.5953 10.0526 35.6321 10.2392 35.6321C10.4258 35.6321 10.6105 35.5953 10.7829 35.5239C10.9553 35.4525 11.1119 35.3479 11.2439 35.2159C11.3758 35.084 11.4805 34.9274 11.5519 34.755C11.6233 34.5826 11.66 34.3978 11.66 34.2112C11.66 34.0247 11.6233 33.8399 11.5519 33.6675C11.4805 33.4951 11.3758 33.3385 11.2439 33.2066C11.1119 33.0746 10.9553 32.97 10.7829 32.8986C10.6105 32.8272 10.4258 32.7904 10.2392 32.7904C10.0526 32.7904 9.86785 32.8272 9.69546 32.8986C9.52308 32.97 9.36645 33.0746 9.23451 33.2066C9.10258 33.3385 8.99792 33.4951 8.92651 33.6675C8.85511 33.8399 8.81836 34.0247 8.81836 34.2112Z" fill="#DAEDF7" stroke="#45413C" stroke-width="0.5" stroke-linecap="round" stroke-linejoin="round"/>
<path d="M31.1301 34.2112C31.1301 34.5881 31.2798 34.9495 31.5463 35.2159C31.8127 35.4824 32.1741 35.6321 32.551 35.6321C32.9278 35.6321 33.2892 35.4824 33.5556 35.2159C33.8221 34.9495 33.9718 34.5881 33.9718 34.2112C33.9718 33.8344 33.8221 33.473 33.5556 33.2066C33.2892 32.9401 32.9278 32.7904 32.551 32.7904C32.1741 32.7904 31.8127 32.9401 31.5463 33.2066C31.2798 33.473 31.1301 33.8344 31.1301 34.2112Z" fill="#DAEDF7" stroke="#45413C" stroke-width="0.5" stroke-linecap="round" stroke-linejoin="round"/>
</svg>
