<svg width="44" height="45" viewBox="0 0 44 45" fill="none" xmlns="http://www.w3.org/2000/svg">
<path opacity="0.15" d="M4.58301 38.9962C4.58301 39.3609 6.46626 39.7106 9.81847 39.9685C13.1707 40.2264 17.7173 40.3712 22.458 40.3712C27.1988 40.3712 31.7453 40.2264 35.0975 39.9685C38.4498 39.7106 40.333 39.3609 40.333 38.9962C40.333 38.6315 38.4498 38.2818 35.0975 38.0239C31.7453 37.7661 27.1988 37.6212 22.458 37.6212C17.7173 37.6212 13.1707 37.7661 9.81847 38.0239C6.46626 38.2818 4.58301 38.6315 4.58301 38.9962Z" fill="#45413C"/>
<path d="M6.875 29.8295H39.4167V35.3295H6.875V29.8295Z" fill="#8CA4B8"/>
<path d="M6.875 29.8295H39.4167V32.1761H6.875V29.8295Z" fill="#ADC4D9"/>
<path d="M6.875 29.8295H39.4167V35.3295H6.875V29.8295Z" stroke="#45413C" stroke-width="0.5" stroke-linecap="round" stroke-linejoin="round"/>
<path d="M38.0413 29.8295H23.833V12.8712H39.8747C39.3227 13.1463 38.8585 13.5701 38.5346 14.0949C38.2107 14.6196 38.0398 15.2245 38.0413 15.8412V29.8295Z" fill="#FF6242"/>
<path d="M39.8747 12.8712H23.833V15.6212H38.0597C38.0956 15.0442 38.2821 14.4867 38.6006 14.0043C38.919 13.5218 39.3583 13.1311 39.8747 12.8712Z" fill="#E04122"/>
<path d="M38.0413 29.8295H23.833V12.8712H39.8747C39.3227 13.1463 38.8585 13.5701 38.5346 14.0949C38.2107 14.6196 38.0398 15.2245 38.0413 15.8412V29.8295Z" stroke="#45413C" stroke-width="0.5" stroke-linecap="round" stroke-linejoin="round"/>
<path d="M16.0415 18.3712H23.8332V29.8295H16.0415V18.3712Z" fill="#656769"/>
<path d="M16.0415 18.3712H23.8332V20.4337H16.0415V18.3712Z" fill="#87898C"/>
<path d="M16.0415 18.3712H23.8332V29.8295H16.0415V18.3712Z" stroke="#45413C" stroke-width="0.5" stroke-linecap="round" stroke-linejoin="round"/>
<path d="M23.8332 8.28784H39.8748C40.118 8.28784 40.3511 8.38442 40.523 8.55633C40.6949 8.72824 40.7915 8.96139 40.7915 9.20451V12.4128C40.7915 12.5344 40.7432 12.651 40.6573 12.7369C40.5713 12.8229 40.4547 12.8712 40.3332 12.8712H23.3748C23.2533 12.8712 23.1367 12.8229 23.0507 12.7369C22.9648 12.651 22.9165 12.5344 22.9165 12.4128V9.20451C22.9165 8.96139 23.0131 8.72824 23.185 8.55633C23.3569 8.38442 23.5901 8.28784 23.8332 8.28784Z" fill="#FF6242"/>
<path d="M39.8748 8.28784H23.8332C23.5901 8.28784 23.3569 8.38442 23.185 8.55633C23.0131 8.72824 22.9165 8.96139 22.9165 9.20451V11.4962C22.9165 11.2531 23.0131 11.0199 23.185 10.848C23.3569 10.6761 23.5901 10.5795 23.8332 10.5795H39.8748C40.118 10.5795 40.3511 10.6761 40.523 10.848C40.6949 11.0199 40.7915 11.2531 40.7915 11.4962V9.20451C40.7915 8.96139 40.6949 8.72824 40.523 8.55633C40.3511 8.38442 40.118 8.28784 39.8748 8.28784Z" fill="#FF866E"/>
<path d="M23.8332 8.28784H39.8748C40.118 8.28784 40.3511 8.38442 40.523 8.55633C40.6949 8.72824 40.7915 8.96139 40.7915 9.20451V12.4128C40.7915 12.5344 40.7432 12.651 40.6573 12.7369C40.5713 12.8229 40.4547 12.8712 40.3332 12.8712H23.3748C23.2533 12.8712 23.1367 12.8229 23.0507 12.7369C22.9648 12.651 22.9165 12.5344 22.9165 12.4128V9.20451C22.9165 8.96139 23.0131 8.72824 23.185 8.55633C23.3569 8.38442 23.5901 8.28784 23.8332 8.28784Z" stroke="#45413C" stroke-width="0.5" stroke-linecap="round" stroke-linejoin="round"/>
<path d="M8.24984 17.4545H15.5832C15.7047 17.4545 15.8213 17.5028 15.9073 17.5887C15.9932 17.6747 16.0415 17.7912 16.0415 17.9128V29.8295H7.7915V17.9128C7.7915 17.7912 7.83979 17.6747 7.92575 17.5887C8.0117 17.5028 8.12828 17.4545 8.24984 17.4545Z" fill="#656769"/>
<path d="M15.5832 17.4545H8.24984C8.12828 17.4545 8.0117 17.5028 7.92575 17.5887C7.83979 17.6747 7.7915 17.7912 7.7915 17.9128V19.9753C7.7915 19.8537 7.83979 19.7372 7.92575 19.6512C8.0117 19.5653 8.12828 19.517 8.24984 19.517H15.5832C15.7047 19.517 15.8213 19.5653 15.9073 19.6512C15.9932 19.7372 16.0415 19.8537 16.0415 19.9753V17.9128C16.0415 17.7912 15.9932 17.6747 15.9073 17.5887C15.8213 17.5028 15.7047 17.4545 15.5832 17.4545Z" fill="#87898C"/>
<path d="M8.24984 17.4545H15.5832C15.7047 17.4545 15.8213 17.5028 15.9073 17.5887C15.9932 17.6747 16.0415 17.7912 16.0415 17.9128V29.8295H7.7915V17.9128C7.7915 17.7912 7.83979 17.6747 7.92575 17.5887C8.0117 17.5028 8.12828 17.4545 8.24984 17.4545Z" stroke="#45413C" stroke-width="0.5" stroke-linecap="round" stroke-linejoin="round"/>
<path d="M9.16667 8.74622H14.6667C14.7305 8.74622 14.7936 8.75878 14.8526 8.7832C14.9115 8.80761 14.9651 8.8434 15.0102 8.88851C15.0553 8.93363 15.0911 8.98718 15.1155 9.04613C15.1399 9.10507 15.1525 9.16825 15.1525 9.23205V12.4129H8.73584V9.20455C8.74164 9.08947 8.78815 8.9802 8.86707 8.89624C8.94598 8.81229 9.05217 8.75911 9.16667 8.74622Z" fill="#FFE500" stroke="#45413C" stroke-width="0.5" stroke-linecap="round" stroke-linejoin="round"/>
<path d="M8.70801 12.4128L10.083 15.1628V17.4545H13.7497V15.1628L15.1247 12.4128H8.70801Z" fill="#656769"/>
<path d="M14.2997 14.0537L15.1247 12.4128H8.70801L9.53301 14.0537H14.2997Z" fill="#525252"/>
<path d="M8.70801 12.4128L10.083 15.1628V17.4545H13.7497V15.1628L15.1247 12.4128H8.70801Z" stroke="#45413C" stroke-width="0.5" stroke-linecap="round" stroke-linejoin="round"/>
<path d="M7.79143 18.3712C7.01323 19.1483 6.40707 20.0803 6.01227 21.1068C5.61748 22.1333 5.44287 23.2313 5.49977 24.3295C5.49977 28.3995 7.79143 29.8295 7.79143 29.8295V18.3712Z" fill="#656769" stroke="#45413C" stroke-width="0.5" stroke-linecap="round" stroke-linejoin="round"/>
<path d="M8.25 10.5795H15.5833" stroke="#45413C" stroke-width="0.5" stroke-linecap="round" stroke-linejoin="round"/>
<path d="M19.9372 15.1628C19.5117 15.1628 19.1037 15.3319 18.8029 15.6327C18.502 15.9335 18.333 16.3416 18.333 16.767V18.3712H21.5413V16.767C21.5413 16.3416 21.3723 15.9335 21.0715 15.6327C20.7707 15.3319 20.3626 15.1628 19.9372 15.1628Z" fill="#656769"/>
<path d="M19.9372 15.1628C19.5117 15.1628 19.1037 15.3319 18.8029 15.6327C18.502 15.9335 18.333 16.3416 18.333 16.767V18.3712C18.333 17.9457 18.502 17.5377 18.8029 17.2369C19.1037 16.936 19.5117 16.767 19.9372 16.767C20.3626 16.767 20.7707 16.936 21.0715 17.2369C21.3723 17.5377 21.5413 17.9457 21.5413 18.3712V16.767C21.5413 16.3416 21.3723 15.9335 21.0715 15.6327C20.7707 15.3319 20.3626 15.1628 19.9372 15.1628Z" fill="#87898C"/>
<path d="M19.9372 15.1628C19.5117 15.1628 19.1037 15.3319 18.8029 15.6327C18.502 15.9335 18.333 16.3416 18.333 16.767V18.3712H21.5413V16.767C21.5413 16.3416 21.3723 15.9335 21.0715 15.6327C20.7707 15.3319 20.3626 15.1628 19.9372 15.1628V15.1628Z" stroke="#45413C" stroke-width="0.5" stroke-linecap="round" stroke-linejoin="round"/>
<path d="M16.0415 18.3712H17.8748V29.8295H16.0415V18.3712Z" fill="#FFE500"/>
<path d="M22 18.3712H23.8333V29.8295H22V18.3712Z" fill="#FFE500"/>
<path d="M16.0415 18.3712H17.8748V20.4337H16.0415V18.3712Z" fill="#FFF48C"/>
<path d="M22 18.3712H23.8333V20.4337H22V18.3712Z" fill="#FFF48C"/>
<path d="M16.0415 18.3712H17.8748V29.8295H16.0415V18.3712Z" stroke="#45413C" stroke-width="0.5" stroke-linecap="round" stroke-linejoin="round"/>
<path d="M22 18.3712H23.8333V29.8295H22V18.3712Z" stroke="#45413C" stroke-width="0.5" stroke-linecap="round" stroke-linejoin="round"/>
<path d="M27.9583 15.1628H32.5417C33.0279 15.1628 33.4942 15.356 33.838 15.6998C34.1818 16.0436 34.375 16.5099 34.375 16.9962V22.0378C34.375 22.1594 34.3267 22.276 34.2408 22.3619C34.1548 22.4479 34.0382 22.4962 33.9167 22.4962H26.5833C26.4618 22.4962 26.3452 22.4479 26.2592 22.3619C26.1733 22.276 26.125 22.1594 26.125 22.0378V16.9962C26.125 16.5099 26.3182 16.0436 26.662 15.6998C27.0058 15.356 27.4721 15.1628 27.9583 15.1628Z" fill="#00B8F0"/>
<path d="M31.5972 15.1628H27.9305C27.4443 15.1628 26.978 15.356 26.6341 15.6998C26.2903 16.0436 26.0972 16.5099 26.0972 16.9962V22.0378C26.0972 22.1594 26.1455 22.276 26.2314 22.3619C26.3174 22.4479 26.4339 22.4962 26.5555 22.4962H28.8747L31.5972 15.1628Z" fill="#4ACFFF"/>
<path d="M27.9583 15.1628H32.5417C33.0279 15.1628 33.4942 15.356 33.838 15.6998C34.1818 16.0436 34.375 16.5099 34.375 16.9962V22.0378C34.375 22.1594 34.3267 22.276 34.2408 22.3619C34.1548 22.4479 34.0382 22.4962 33.9167 22.4962H26.5833C26.4618 22.4962 26.3452 22.4479 26.2592 22.3619C26.1733 22.276 26.125 22.1594 26.125 22.0378V16.9962C26.125 16.5099 26.3182 16.0436 26.662 15.6998C27.0058 15.356 27.4721 15.1628 27.9583 15.1628V15.1628Z" stroke="#45413C" stroke-width="0.5" stroke-linecap="round" stroke-linejoin="round"/>
<path d="M23.833 24.7878H38.0413V27.5378H23.833V24.7878Z" fill="#FFE500" stroke="#45413C" stroke-width="0.5" stroke-linecap="round" stroke-linejoin="round"/>
<path d="M22.458 34.8711C22.458 35.8436 22.8443 36.7762 23.532 37.4639C24.2196 38.1515 25.1522 38.5378 26.1247 38.5378C27.0971 38.5378 28.0298 38.1515 28.7174 37.4639C29.405 36.7762 29.7913 35.8436 29.7913 34.8711C29.7913 33.8987 29.405 32.966 28.7174 32.2784C28.0298 31.5908 27.0971 31.2045 26.1247 31.2045C25.1522 31.2045 24.2196 31.5908 23.532 32.2784C22.8443 32.966 22.458 33.8987 22.458 34.8711Z" fill="#FF6242"/>
<path d="M29.7915 34.8711C29.7915 35.8436 30.1778 36.7762 30.8654 37.4639C31.5531 38.1515 32.4857 38.5378 33.4582 38.5378C34.4306 38.5378 35.3633 38.1515 36.0509 37.4639C36.7385 36.7762 37.1248 35.8436 37.1248 34.8711C37.1248 33.8987 36.7385 32.966 36.0509 32.2784C35.3633 31.5908 34.4306 31.2045 33.4582 31.2045C32.4857 31.2045 31.5531 31.5908 30.8654 32.2784C30.1778 32.966 29.7915 33.8987 29.7915 34.8711Z" fill="#FF6242"/>
<path d="M26.1247 32.5153C26.9819 32.5163 27.8117 32.8176 28.4699 33.3669C29.128 33.9162 29.5729 34.6787 29.7272 35.522C29.7671 35.3073 29.7886 35.0895 29.7913 34.8711C29.7913 33.8987 29.405 32.966 28.7174 32.2784C28.0298 31.5908 27.0971 31.2045 26.1247 31.2045C25.1522 31.2045 24.2196 31.5908 23.532 32.2784C22.8443 32.966 22.458 33.8987 22.458 34.8711C22.4608 35.0895 22.4822 35.3073 22.5222 35.522C22.6765 34.6787 23.1214 33.9162 23.7795 33.3669C24.4376 32.8176 25.2674 32.5163 26.1247 32.5153Z" fill="#FF866E"/>
<path d="M33.4582 32.5153C34.3154 32.5163 35.1452 32.8176 35.8033 33.3669C36.4615 33.9162 36.9064 34.6787 37.0607 35.522C37.1006 35.3073 37.1221 35.0895 37.1248 34.8711C37.1248 33.8987 36.7385 32.966 36.0509 32.2784C35.3633 31.5908 34.4306 31.2045 33.4582 31.2045C32.4857 31.2045 31.5531 31.5908 30.8654 32.2784C30.1778 32.966 29.7915 33.8987 29.7915 34.8711C29.7943 35.0895 29.8157 35.3073 29.8557 35.522C30.01 34.6787 30.4549 33.9162 31.113 33.3669C31.7711 32.8176 32.6009 32.5163 33.4582 32.5153Z" fill="#FF866E"/>
<path d="M22.458 34.8711C22.458 35.8436 22.8443 36.7762 23.532 37.4639C24.2196 38.1515 25.1522 38.5378 26.1247 38.5378C27.0971 38.5378 28.0298 38.1515 28.7174 37.4639C29.405 36.7762 29.7913 35.8436 29.7913 34.8711C29.7913 33.8987 29.405 32.966 28.7174 32.2784C28.0298 31.5908 27.0971 31.2045 26.1247 31.2045C25.1522 31.2045 24.2196 31.5908 23.532 32.2784C22.8443 32.966 22.458 33.8987 22.458 34.8711Z" stroke="#45413C" stroke-width="0.5" stroke-linecap="round" stroke-linejoin="round"/>
<path d="M29.7915 34.8711C29.7915 35.8436 30.1778 36.7762 30.8654 37.4639C31.5531 38.1515 32.4857 38.5378 33.4582 38.5378C34.4306 38.5378 35.3633 38.1515 36.0509 37.4639C36.7385 36.7762 37.1248 35.8436 37.1248 34.8711C37.1248 33.8987 36.7385 32.966 36.0509 32.2784C35.3633 31.5908 34.4306 31.2045 33.4582 31.2045C32.4857 31.2045 31.5531 31.5908 30.8654 32.2784C30.1778 32.966 29.7915 33.8987 29.7915 34.8711Z" stroke="#45413C" stroke-width="0.5" stroke-linecap="round" stroke-linejoin="round"/>
<path d="M13.2915 36.2461C13.2915 36.8539 13.5329 37.4368 13.9627 37.8666C14.3925 38.2964 14.9754 38.5378 15.5832 38.5378C16.191 38.5378 16.7739 38.2964 17.2036 37.8666C17.6334 37.4368 17.8748 36.8539 17.8748 36.2461C17.8748 35.6383 17.6334 35.0555 17.2036 34.6257C16.7739 34.1959 16.191 33.9545 15.5832 33.9545C14.9754 33.9545 14.3925 34.1959 13.9627 34.6257C13.5329 35.0555 13.2915 35.6383 13.2915 36.2461Z" fill="#FF6242"/>
<path d="M8.70801 36.2461C8.70801 36.8539 8.94945 37.4368 9.37922 37.8666C9.80899 38.2964 10.3919 38.5378 10.9997 38.5378C11.6075 38.5378 12.1904 38.2964 12.6201 37.8666C13.0499 37.4368 13.2913 36.8539 13.2913 36.2461C13.2913 35.6383 13.0499 35.0555 12.6201 34.6257C12.1904 34.1959 11.6075 33.9545 10.9997 33.9545C10.3919 33.9545 9.80899 34.1959 9.37922 34.6257C8.94945 35.0555 8.70801 35.6383 8.70801 36.2461Z" fill="#FF6242"/>
<path d="M15.5832 35.3295C16.0689 35.3309 16.5414 35.4873 16.9321 35.7758C17.3228 36.0643 17.6113 36.4699 17.7557 36.9336C17.8323 36.7124 17.8726 36.4802 17.8748 36.2461C17.8748 35.6383 17.6334 35.0555 17.2036 34.6257C16.7739 34.1959 16.191 33.9545 15.5832 33.9545C14.9754 33.9545 14.3925 34.1959 13.9627 34.6257C13.5329 35.0555 13.2915 35.6383 13.2915 36.2461C13.2938 36.4802 13.334 36.7124 13.4107 36.9336C13.555 36.4699 13.8435 36.0643 14.2342 35.7758C14.6249 35.4873 15.0975 35.3309 15.5832 35.3295Z" fill="#FF866E"/>
<path d="M10.9997 35.3295C11.4854 35.3309 11.9579 35.4873 12.3486 35.7758C12.7393 36.0643 13.0278 36.4699 13.1722 36.9336C13.2488 36.7124 13.2891 36.4802 13.2913 36.2461C13.2913 35.6383 13.0499 35.0555 12.6201 34.6257C12.1904 34.1959 11.6075 33.9545 10.9997 33.9545C10.3919 33.9545 9.80899 34.1959 9.37922 34.6257C8.94945 35.0555 8.70801 35.6383 8.70801 36.2461C8.71027 36.4802 8.75051 36.7124 8.82717 36.9336C8.97151 36.4699 9.26001 36.0643 9.65073 35.7758C10.0414 35.4873 10.514 35.3309 10.9997 35.3295Z" fill="#FF866E"/>
<path d="M13.2915 36.2461C13.2915 36.8539 13.5329 37.4368 13.9627 37.8666C14.3925 38.2964 14.9754 38.5378 15.5832 38.5378C16.191 38.5378 16.7739 38.2964 17.2036 37.8666C17.6334 37.4368 17.8748 36.8539 17.8748 36.2461C17.8748 35.6383 17.6334 35.0555 17.2036 34.6257C16.7739 34.1959 16.191 33.9545 15.5832 33.9545C14.9754 33.9545 14.3925 34.1959 13.9627 34.6257C13.5329 35.0555 13.2915 35.6383 13.2915 36.2461Z" stroke="#45413C" stroke-width="0.5" stroke-linecap="round" stroke-linejoin="round"/>
<path d="M8.70801 36.2461C8.70801 36.8539 8.94945 37.4368 9.37922 37.8666C9.80899 38.2964 10.3919 38.5378 10.9997 38.5378C11.6075 38.5378 12.1904 38.2964 12.6201 37.8666C13.0499 37.4368 13.2913 36.8539 13.2913 36.2461C13.2913 35.6383 13.0499 35.0555 12.6201 34.6257C12.1904 34.1959 11.6075 33.9545 10.9997 33.9545C10.3919 33.9545 9.80899 34.1959 9.37922 34.6257C8.94945 35.0555 8.70801 35.6383 8.70801 36.2461V36.2461Z" stroke="#45413C" stroke-width="0.5" stroke-linecap="round" stroke-linejoin="round"/>
<path d="M39.4165 29.8295H41.2498V33.9545H39.4165V29.8295Z" fill="#8CA4B8"/>
<path d="M39.4165 29.8295H41.2498V31.2045H39.4165V29.8295Z" fill="#ADC4D9"/>
<path d="M39.4165 29.8295H41.2498V33.9545H39.4165V29.8295Z" stroke="#45413C" stroke-width="0.5" stroke-linecap="round" stroke-linejoin="round"/>
<path d="M6.87484 29.8295V37.1628H2.2915L6.87484 29.8295Z" fill="#FF6242"/>
<path d="M2.2915 37.1628H3.7215L6.87484 32.1211V29.8295L2.2915 37.1628Z" fill="#FF866E"/>
<path d="M6.87484 29.8295V37.1628H2.2915L6.87484 29.8295Z" stroke="#45413C" stroke-width="0.5" stroke-linecap="round" stroke-linejoin="round"/>
<path d="M6.87467 33.4962L4.58301 37.1629" stroke="#45413C" stroke-width="0.5" stroke-linecap="round" stroke-linejoin="round"/>
<path d="M11 33.9545V38.5378" stroke="#45413C" stroke-width="0.5" stroke-linecap="round" stroke-linejoin="round"/>
<path d="M8.70801 36.2462H13.2913" stroke="#45413C" stroke-width="0.5" stroke-linecap="round" stroke-linejoin="round"/>
<path d="M14.208 34.8712L16.958 37.6212" stroke="#45413C" stroke-width="0.5" stroke-linecap="round" stroke-linejoin="round"/>
<path d="M14.208 37.6212L16.958 34.8712" stroke="#45413C" stroke-width="0.5" stroke-linecap="round" stroke-linejoin="round"/>
<path d="M16.5 29.8295H22.4583V34.8711C22.4583 35.1142 22.3618 35.3474 22.1898 35.5193C22.0179 35.6912 21.7848 35.7878 21.5417 35.7878H17.4167C17.1736 35.7878 16.9404 35.6912 16.7685 35.5193C16.5966 35.3474 16.5 35.1142 16.5 34.8711V29.8295Z" fill="#8CA4B8"/>
<path d="M16.5 29.8295H22.4583V32.1761H16.5V29.8295Z" fill="#ADC4D9"/>
<path d="M16.5 29.8295H22.4583V34.8711C22.4583 35.1142 22.3618 35.3474 22.1898 35.5193C22.0179 35.6912 21.7848 35.7878 21.5417 35.7878H17.4167C17.1736 35.7878 16.9404 35.6912 16.7685 35.5193C16.5966 35.3474 16.5 35.1142 16.5 34.8711V29.8295Z" stroke="#45413C" stroke-width="0.5" stroke-linecap="round" stroke-linejoin="round"/>
<path d="M26.125 31.2045V38.5378" stroke="#45413C" stroke-width="0.5" stroke-linecap="round" stroke-linejoin="round"/>
<path d="M22.9531 33.0378L29.2965 36.7045" stroke="#45413C" stroke-width="0.5" stroke-linecap="round" stroke-linejoin="round"/>
<path d="M22.9531 36.7045L29.2965 33.0378" stroke="#45413C" stroke-width="0.5" stroke-linecap="round" stroke-linejoin="round"/>
<path d="M33.458 38.5378V31.2045" stroke="#45413C" stroke-width="0.5" stroke-linecap="round" stroke-linejoin="round"/>
<path d="M36.63 36.7045L30.2866 33.0378" stroke="#45413C" stroke-width="0.5" stroke-linecap="round" stroke-linejoin="round"/>
<path d="M36.63 33.0378L30.2866 36.7045" stroke="#45413C" stroke-width="0.5" stroke-linecap="round" stroke-linejoin="round"/>
<path d="M33.9163 34.8712H22.458V33.0378H33.9163C34.1595 33.0378 34.3926 33.1344 34.5645 33.3063C34.7364 33.4782 34.833 33.7114 34.833 33.9545C34.833 34.1976 34.7364 34.4308 34.5645 34.6027C34.3926 34.7746 34.1595 34.8712 33.9163 34.8712Z" fill="#FFE500" stroke="#45413C" stroke-width="0.5" stroke-linecap="round" stroke-linejoin="round"/>
</svg>
