<svg width="67" height="87" viewBox="0 0 67 87" fill="none" xmlns="http://www.w3.org/2000/svg">
<path d="M10.3437 73.3733V84.043H7.84537V75.3853H2.94173V84.043H0.443359V73.3733H10.3437Z" fill="#166A40"/>
<path d="M17.7694 75.7206C18.5453 75.7206 19.2488 75.8985 19.8798 76.2541C20.5212 76.5996 21.023 77.0925 21.3851 77.7326C21.7471 78.3627 21.9282 79.0994 21.9282 79.9428C21.9282 80.7862 21.7471 81.528 21.3851 82.1682C21.023 82.7982 20.5212 83.291 19.8798 83.6467C19.2488 83.9922 18.5453 84.1649 17.7694 84.1649C16.7038 84.1649 15.8659 83.8347 15.2555 83.1742V87H12.8347V75.8426H15.1469V76.7876C15.7469 76.0763 16.6211 75.7206 17.7694 75.7206ZM17.3504 82.2139C17.9711 82.2139 18.478 82.0107 18.8712 81.6042C19.2746 81.1876 19.4764 80.6338 19.4764 79.9428C19.4764 79.2518 19.2746 78.7031 18.8712 78.2966C18.478 77.88 17.9711 77.6717 17.3504 77.6717C16.7297 77.6717 16.2176 77.88 15.8141 78.2966C15.421 78.7031 15.2245 79.2518 15.2245 79.9428C15.2245 80.6338 15.421 81.1876 15.8141 81.6042C16.2176 82.0107 16.7297 82.2139 17.3504 82.2139Z" fill="#166A40"/>
<path d="M23.6248 75.8426H26.0301V80.7202L30.0958 75.8426H32.3148V84.043H29.9096V79.1654L25.8594 84.043H23.6248V75.8426Z" fill="#166A40"/>
<path d="M39.4679 76.4066C40.2645 76.4066 40.9628 76.5691 41.5629 76.8943C42.1629 77.2093 42.6232 77.6564 42.944 78.2356C43.275 78.8149 43.4405 79.4855 43.4405 80.2476C43.4405 81.0301 43.244 81.7262 42.8508 82.3358C42.4681 82.9354 41.9301 83.4028 41.237 83.7381C40.5439 84.0633 39.7576 84.2259 38.8783 84.2259C37.4196 84.2259 36.2713 83.7686 35.4333 82.8541C34.6057 81.9294 34.1919 80.5779 34.1919 78.7996C34.1919 77.1534 34.554 75.8426 35.2781 74.8671C36.0126 73.8814 37.1351 73.2361 38.6455 72.9313L42.6181 72.1539L42.944 74.1964L39.4369 74.8823C38.4852 75.0652 37.7765 75.3701 37.311 75.7969C36.8558 76.2236 36.5868 76.8283 36.504 77.6107C36.8661 77.2246 37.3006 76.9299 37.8075 76.7266C38.3145 76.5133 38.8679 76.4066 39.4679 76.4066ZM38.8938 82.3816C39.5145 82.3816 40.0111 82.1834 40.3835 81.7871C40.7663 81.3908 40.9577 80.8878 40.9577 80.2781C40.9577 79.6583 40.7663 79.1654 40.3835 78.7996C40.0111 78.4338 39.5145 78.2509 38.8938 78.2509C38.2627 78.2509 37.7558 78.4338 37.373 78.7996C36.9903 79.1654 36.7989 79.6583 36.7989 80.2781C36.7989 80.898 36.9954 81.4061 37.3886 81.8024C37.7817 82.1885 38.2834 82.3816 38.8938 82.3816Z" fill="#166A40"/>
<path d="M49.4747 78.4643C50.5609 78.4744 51.3834 78.7132 51.942 79.1807C52.5006 79.6481 52.78 80.3188 52.78 81.1927C52.78 82.1072 52.4644 82.8134 51.8334 83.3114C51.2023 83.8093 50.3074 84.0582 49.1488 84.0582L45.0831 84.043V75.8426H47.4884V78.4643H49.4747ZM53.68 75.8426H56.0853V84.043H53.68V75.8426ZM48.9315 82.3663C49.3971 82.3765 49.754 82.28 50.0023 82.0767C50.2505 81.8735 50.3747 81.5686 50.3747 81.1622C50.3747 80.7659 50.2505 80.4763 50.0023 80.2934C49.7643 80.1105 49.4074 80.0139 48.9315 80.0038L47.4884 79.9885V82.3663H48.9315Z" fill="#166A40"/>
<path d="M66.426 75.8426V84.043H64.0052V77.7936H61.3671L61.2896 79.2416C61.2482 80.3188 61.1447 81.213 60.9792 81.9243C60.8137 82.6356 60.5447 83.1945 60.1723 83.601C59.7998 84.0074 59.2826 84.2107 58.6205 84.2107C58.2687 84.2107 57.8498 84.1497 57.3635 84.0278L57.4877 82.0767C57.6532 82.097 57.7722 82.1072 57.8446 82.1072C58.2067 82.1072 58.4757 81.9802 58.6515 81.7261C58.8377 81.4619 58.9619 81.1317 59.024 80.7354C59.086 80.3289 59.1326 79.7954 59.1636 79.1349L59.2878 75.8426H66.426Z" fill="#166A40"/>
<path d="M66.5564 11.8989V54.198C66.5564 57.3565 65.3017 60.3856 63.0683 62.6189C60.835 64.8523 57.8059 66.107 54.6474 66.107H12.3483C9.19072 66.1054 6.16296 64.8501 3.93058 62.6169C1.6982 60.3838 0.443893 57.3556 0.443363 54.198V11.8989C0.442796 11.2044 0.503692 10.5112 0.625323 9.82748C0.663314 9.60353 0.707289 9.38159 0.761275 9.16164C0.815261 8.9417 0.867265 8.73375 0.929249 8.52381C1.48334 6.64972 2.49079 4.94109 3.86248 3.54909C3.95845 3.44911 4.06242 3.34914 4.1584 3.25916C4.45915 2.97666 4.77417 2.70971 5.10217 2.45936C5.31945 2.29141 5.54339 2.13146 5.774 1.9795L6.12591 1.75355C6.59832 1.46183 7.09152 1.2052 7.60153 0.985745C7.85746 0.873774 8.11738 0.771805 8.38331 0.677829C8.54927 0.619844 8.71523 0.563857 8.88519 0.51387C9.05514 0.463883 9.22511 0.413895 9.39707 0.369906C9.56902 0.325918 9.74297 0.285927 9.91693 0.249936C10.0909 0.213945 10.2688 0.181956 10.4468 0.151963C10.6707 0.115973 10.8987 0.0859778 11.1266 0.061984C11.3546 0.0379902 11.5965 0.0219943 11.8344 0.0119969C12.0064 0.00399895 12.1784 4.68354e-07 12.3503 4.68354e-07H54.6494C55.1804 -0.000148532 55.7108 0.0352546 56.237 0.105973C57.1604 0.227654 58.0659 0.459233 58.9343 0.795792C59.1276 0.870439 59.3196 0.950421 59.5102 1.03573C59.6961 1.11771 59.8801 1.20569 60.062 1.30167C60.174 1.35965 60.286 1.41764 60.3959 1.47962C60.7277 1.66212 61.0495 1.86236 61.3597 2.07947C61.7731 2.36248 62.1684 2.671 62.5434 3.00323C62.6374 3.08521 62.7293 3.17118 62.8213 3.25716C62.9133 3.34314 62.9713 3.40113 63.0452 3.47511L63.1412 3.57108C63.2892 3.72104 63.4332 3.875 63.5711 4.03296C63.6451 4.11294 63.7151 4.19691 63.7851 4.28089C63.8551 4.36487 63.939 4.46685 64.013 4.56283L64.115 4.6928C64.2489 4.86475 64.3749 5.0427 64.4969 5.22466C64.793 5.65358 65.0602 6.1018 65.2967 6.56632C65.3507 6.67029 65.4007 6.76625 65.4506 6.88022C65.4491 6.88477 65.4491 6.88968 65.4506 6.89422C65.5026 7.00819 65.5546 7.12417 65.6046 7.24214C65.6546 7.36011 65.7026 7.47607 65.7486 7.59404C65.7945 7.71201 65.8385 7.82798 65.8805 7.94595L65.9765 8.23188C66.0045 8.31985 66.0325 8.40784 66.0585 8.49781C66.0845 8.58779 66.1145 8.68377 66.1385 8.77775C66.2244 9.08767 66.2964 9.40358 66.3544 9.7235C66.3804 9.86146 66.4044 9.99743 66.4244 10.1354C66.4444 10.2734 66.4644 10.4133 66.4804 10.5533C66.4804 10.6013 66.4804 10.6473 66.4944 10.6952C66.5064 10.7952 66.5144 10.8952 66.5224 10.9952C66.5424 11.2431 66.5544 11.493 66.5564 11.745C66.5564 11.785 66.5564 11.843 66.5564 11.8989Z" fill="#166A40"/>
<path d="M40.8968 33.6073H12.5321C10.0353 33.6073 8.01123 35.6313 8.01123 38.1281V53.8261C8.01123 56.3229 10.0353 58.3469 12.5321 58.3469H40.8968C43.3936 58.3469 45.4176 56.3229 45.4176 53.8261V38.1281C45.4176 35.6313 43.3936 33.6073 40.8968 33.6073Z" fill="white"/>
<path d="M40.897 58.9469H12.5323C11.1747 58.9453 9.87316 58.4053 8.91319 57.4453C7.95322 56.4854 7.41321 55.1838 7.41162 53.8262V38.1282C7.41321 36.7706 7.95322 35.4691 8.91319 34.5091C9.87316 33.5492 11.1747 33.0092 12.5323 33.0076H40.897C42.2546 33.0092 43.5562 33.5492 44.5161 34.5091C45.4761 35.4691 46.0161 36.7706 46.0177 38.1282V53.8262C46.0161 55.1838 45.4761 56.4854 44.5161 57.4453C43.5562 58.4053 42.2546 58.9453 40.897 58.9469ZM12.5323 34.2073C11.4929 34.2088 10.4965 34.6225 9.7615 35.3574C9.02652 36.0924 8.6129 37.0888 8.61131 38.1282V53.8262C8.61237 54.8658 9.02582 55.8625 9.76092 56.5976C10.496 57.3327 11.4927 57.7461 12.5323 57.7472H40.897C41.9366 57.7461 42.9333 57.3327 43.6684 56.5976C44.4035 55.8625 44.8169 54.8658 44.818 53.8262V38.1282C44.8164 37.0888 44.4028 36.0924 43.6678 35.3574C42.9328 34.6225 41.9364 34.2088 40.897 34.2073H12.5323Z" fill="#166A40"/>
<path d="M19.2385 37.9643C18.7678 37.9535 18.3126 37.7939 17.9383 37.5083C17.564 37.2227 17.2898 36.8258 17.1551 36.3747C17.1259 36.2664 17.1045 36.1561 17.0911 36.0448C17.008 35.5154 16.9619 34.9809 16.9531 34.4452C16.9531 31.9528 17.9432 29.5625 19.7056 27.8001C21.468 26.0377 23.8583 25.0476 26.3507 25.0476C28.8431 25.0476 31.2334 26.0377 32.9958 27.8001C34.7582 29.5625 35.7483 31.9528 35.7483 34.4452C35.7482 34.9813 35.702 35.5165 35.6103 36.0448C35.6115 36.0654 35.6115 36.0861 35.6103 36.1068C35.6023 36.1601 35.5923 36.2141 35.5803 36.2687V36.3187V36.3367C35.4606 36.8025 35.1893 37.2152 34.8092 37.5098C34.4291 37.8045 33.9618 37.9643 33.4809 37.9643C33.1914 37.962 32.9054 37.9002 32.6409 37.7825C32.3763 37.6648 32.1389 37.4939 31.9433 37.2805C31.5417 36.8772 31.3154 36.3319 31.3134 35.7628C31.3178 35.7032 31.3251 35.6438 31.3354 35.5849C31.3354 35.5329 31.3554 35.4549 31.3734 35.309V35.289V35.271C31.4217 35.0038 31.4445 34.7326 31.4414 34.4612C31.3754 32.3817 29.5319 29.3745 26.3767 29.3745C25.0334 29.3761 23.7456 29.9104 22.7958 30.8602C21.8459 31.8101 21.3116 33.0979 21.31 34.4412C21.3148 34.7243 21.3382 35.0069 21.38 35.287V35.309C21.398 35.4569 21.41 35.5329 21.418 35.5849C21.4286 35.643 21.4353 35.7018 21.438 35.7608C21.4362 36.328 21.2114 36.8717 20.8121 37.2745C20.6164 37.4887 20.3788 37.6605 20.1139 37.7792C19.8491 37.8978 19.5627 37.9608 19.2725 37.9643H19.2385Z" fill="white"/>
<path d="M26.3407 25.6494C28.674 25.6494 30.9117 26.5763 32.5616 28.2262C34.2115 29.8761 35.1384 32.1138 35.1384 34.4471C35.1388 34.9551 35.0953 35.4622 35.0085 35.9627C35.0092 35.9761 35.0092 35.9894 35.0085 36.0027C35.0085 36.0667 34.9864 36.1287 34.9725 36.1927C34.8863 36.5297 34.6903 36.8284 34.4155 37.0416C34.1407 37.2549 33.8027 37.3706 33.4548 37.3704C32.4551 37.3704 31.8553 36.3706 31.8873 35.8008C31.8873 35.7208 31.9073 35.6848 31.9432 35.3889C31.9987 35.0781 32.0248 34.7628 32.0212 34.4471C31.9493 32.1797 29.9378 28.7806 26.3567 28.7806C24.8538 28.7806 23.4125 29.3776 22.3498 30.4403C21.2871 31.503 20.6901 32.9443 20.6901 34.4471C20.6946 34.7625 20.7206 35.0771 20.7681 35.3889C20.8041 35.6848 20.8201 35.7208 20.8241 35.8008C20.8561 36.3726 20.2422 37.3684 19.2545 37.3704C18.9143 37.3571 18.5866 37.2386 18.3166 37.0312C18.0466 36.8239 17.8476 36.5379 17.7469 36.2127C17.7256 36.1258 17.7095 36.0376 17.6989 35.9487C17.6217 35.4517 17.5783 34.95 17.5689 34.4471C17.5689 32.1138 18.4959 29.8761 20.1457 28.2262C21.7956 26.5763 24.0334 25.6494 26.3667 25.6494H26.3407ZM26.3407 24.4497C23.6892 24.4497 21.1463 25.503 19.2714 27.3779C17.3966 29.2528 16.3433 31.7957 16.3433 34.4471C16.3523 35.013 16.4004 35.5775 16.4872 36.1367C16.5052 36.2757 16.5326 36.4133 16.5692 36.5486C16.7422 37.1232 17.0927 37.6283 17.5704 37.9914C18.0481 38.3546 18.6286 38.5571 19.2285 38.5701C19.6017 38.5678 19.9704 38.4887 20.3116 38.3377C20.6529 38.1867 20.9594 37.967 21.212 37.6923C21.7228 37.1693 22.0066 36.4659 22.0018 35.7348C21.9966 35.6551 21.9873 35.5756 21.9738 35.4969C21.9738 35.4489 21.9558 35.3769 21.9378 35.2429V35.2209V35.1989C21.9003 34.95 21.8796 34.6988 21.8758 34.4471C21.8769 33.2631 22.3476 32.1279 23.1846 31.2905C24.0217 30.4531 25.1567 29.9819 26.3407 29.9803C29.2179 29.9803 30.7535 32.8675 30.8055 34.4851C30.8074 34.713 30.788 34.9406 30.7476 35.1649V35.2029V35.2429C30.7316 35.3769 30.7196 35.4429 30.7136 35.4969C30.6981 35.5753 30.6888 35.6549 30.6856 35.7348C30.6829 36.0986 30.7523 36.4594 30.8895 36.7964C31.0268 37.1333 31.2293 37.4398 31.4854 37.6983C31.7365 37.9711 32.0412 38.1894 32.3804 38.3394C32.7196 38.4893 33.086 38.5679 33.4568 38.5701C34.0713 38.5706 34.6684 38.3665 35.1539 37.9899C35.6395 37.6134 35.9858 37.0858 36.1382 36.4906V36.4566V36.4226V36.3946C36.1502 36.3366 36.1602 36.2807 36.1702 36.2227C36.1802 36.1647 36.1821 36.1627 36.1841 36.1407C36.28 35.5813 36.3282 35.0147 36.3281 34.4471C36.3281 31.7957 35.2748 29.2528 33.3999 27.3779C31.525 25.503 28.9822 24.4497 26.3307 24.4497H26.3407Z" fill="#166A40"/>
<path d="M35.4003 27.315C35.1604 27.8489 34.5625 27.9829 34.0007 28.0228C33.8207 28.0228 33.6427 28.0348 33.4808 28.0368H33.4148H33.2149C32.9982 28.0277 32.7824 28.0036 32.569 27.9648C32.4451 27.9422 32.3251 27.9162 32.2091 27.8869C32.0932 27.8576 31.9685 27.8222 31.8352 27.7809C31.9123 28.1047 31.9717 28.4324 32.0132 28.7626C32.1431 29.8284 32.0572 30.9621 31.4133 31.7379C31.3673 31.7939 31.3213 31.8439 31.2754 31.8898C31.1476 32.0191 30.998 32.1247 30.8335 32.2018L30.7815 32.2238C30.583 32.3079 30.3692 32.3501 30.1536 32.3477C29.886 32.3425 29.621 32.2925 29.3699 32.1998C29.3119 32.1798 29.2539 32.1558 29.1939 32.1318C29.1305 32.1903 29.0638 32.2451 28.994 32.2957C28.687 32.525 28.322 32.6635 27.9402 32.6956H27.7843C27.54 32.6965 27.2978 32.6511 27.0705 32.5617C26.916 32.505 26.7689 32.4298 26.6326 32.3377C26.5541 32.4039 26.4713 32.4647 26.3846 32.5197C26.1258 32.6877 25.8352 32.8007 25.5308 32.8516C25.4137 32.8699 25.2954 32.8792 25.1769 32.8796C24.8961 32.8798 24.6178 32.8261 24.3571 32.7216C24.235 32.6725 24.1167 32.6144 24.0032 32.5477C23.9219 32.6327 23.8343 32.7115 23.7413 32.7836C23.6232 32.8772 23.4935 32.9552 23.3554 33.0155C23.2186 33.0771 23.0739 33.1195 22.9255 33.1415C22.8488 33.1535 22.7712 33.1595 22.6936 33.1595C22.4987 33.1585 22.3054 33.1247 22.1217 33.0595L22.0077 33.0155C21.8585 32.9524 21.7159 32.8747 21.5819 32.7836C21.4066 32.6657 21.2426 32.5318 21.092 32.3837C21.02 32.3137 20.964 32.2518 20.922 32.2078C20.8461 32.1258 20.7801 32.0498 20.7221 31.9838C20.2162 31.404 19.7223 30.5502 19.1945 29.3665C19.1525 29.2665 19.1065 29.1665 19.0625 29.0586C19.0185 28.9506 18.9705 28.8406 18.9285 28.7287C18.8406 28.5167 18.7546 28.3008 18.6746 28.0828C18.0091 26.2785 17.4365 24.4412 16.959 22.5782L0.783203 9.18168C0.83319 8.96574 0.889193 8.75379 0.951177 8.54385C1.50527 6.66976 2.51272 4.96113 3.88441 3.56913C3.98038 3.46915 4.08435 3.36919 4.18033 3.27921C4.48108 2.99671 4.79609 2.72976 5.1241 2.47942C5.34138 2.31146 5.56532 2.1515 5.79593 1.99954L6.14784 1.77359C6.62025 1.48187 7.11345 1.22525 7.62346 1.0058C7.87939 0.893827 8.13931 0.791846 8.40524 0.69787C8.5712 0.639885 8.73716 0.583904 8.90711 0.533917C9.07707 0.48393 9.24704 0.433942 9.41899 0.389954C9.76291 0.301976 10.1128 0.229329 10.4687 0.172011C10.6927 0.13602 10.9206 0.106025 11.1486 0.0820312L25.059 18.8772L30.1297 20.9567L30.2176 21.0486C31.0174 21.8784 31.8432 22.7202 32.689 23.546C32.9669 23.8179 33.2269 24.0679 33.4628 24.2958C35.0824 25.8534 35.7622 26.5092 35.4003 27.315Z" fill="#166A40"/>
<path d="M35.4342 25.4495C35.0803 25.0216 34.5645 24.5257 33.8526 23.8359C33.6147 23.6079 33.3588 23.36 33.0808 23.0881C32.2391 22.2683 31.4133 21.4325 30.6235 20.6067L30.4475 20.4227L30.2116 20.3248L27.8442 19.355L25.4128 18.3553L11.8283 0L11.4724 0.0199961C11.3844 0.0199961 11.2605 0.0359907 11.1205 0.0499871C10.9446 0.0679825 10.7206 0.0959777 10.4407 0.139966L24.637 19.335L29.7457 21.4305C30.2576 21.9643 31.1214 22.8561 32.2311 23.9418C34.0966 25.7634 35.0603 26.5672 34.8304 27.063C34.6724 27.4149 33.9826 27.4249 33.4308 27.4309H33.3768C33.0612 27.4312 32.7466 27.3957 32.439 27.325L32.323 27.297C31.7798 27.1554 31.2655 26.9199 30.8034 26.6012C30.8414 26.6951 30.8894 26.8151 30.9414 26.9611C30.9934 27.107 31.0334 27.231 31.0814 27.3889L31.1233 27.5369C31.2413 27.9688 31.8532 30.2022 30.9074 31.3359C30.808 31.464 30.6808 31.5679 30.5355 31.6399C30.4999 31.6564 30.4631 31.6704 30.4255 31.6819C30.3231 31.7128 30.2166 31.7283 30.1096 31.7278C29.9517 31.7247 29.7949 31.6998 29.6437 31.6539C29.5698 31.6319 29.4918 31.6039 29.4078 31.5719C29.2663 31.5128 29.1282 31.446 28.9939 31.3719L28.9799 31.3919C28.8829 31.5343 28.7634 31.6599 28.626 31.7638C28.4016 31.9412 28.1294 32.0477 27.8442 32.0698H27.7362C27.4898 32.0689 27.2477 32.0056 27.0324 31.8858C26.8599 31.7893 26.7051 31.6642 26.5745 31.5159C26.5608 31.5014 26.5481 31.4861 26.5365 31.4699C26.4476 31.6057 26.3399 31.7282 26.2166 31.8338C25.9821 32.0432 25.693 32.1819 25.3828 32.2337C25.2982 32.2471 25.2126 32.2538 25.1269 32.2537C24.8329 32.2517 24.5447 32.1724 24.2911 32.0238C24.1247 31.9315 23.9725 31.8157 23.8392 31.6798L23.8212 31.7098C23.7291 31.862 23.6205 32.0035 23.4973 32.1317C23.3112 32.3395 23.0617 32.4801 22.7875 32.5316C22.7398 32.5379 22.6917 32.5413 22.6435 32.5416C22.5252 32.5416 22.4076 32.522 22.2956 32.4836C22.1054 32.4188 21.9276 32.3221 21.7698 32.1977C21.6052 32.0699 21.4513 31.9288 21.3099 31.7758C21.2339 31.6938 21.1679 31.6179 21.1099 31.5539C20.5661 30.932 20.0402 29.9283 19.5623 28.8006C19.477 28.5993 19.393 28.3934 19.3104 28.1828C19.2284 27.9828 19.1484 27.7669 19.0725 27.5569C18.2347 25.2955 17.6168 22.9201 17.4389 22.2203L0.899141 8.51581C0.837156 8.71576 0.781153 8.93771 0.731166 9.15365C0.681179 9.3696 0.633205 9.59553 0.595215 9.81947L7.55143 15.584L16.3752 22.8961C16.8745 24.8352 17.4812 26.745 18.1927 28.6166C18.2807 28.8366 18.3686 29.0545 18.4586 29.2685V29.2825C18.5566 29.5124 18.6586 29.7323 18.7506 29.9403C19.1199 30.804 19.6085 31.6117 20.2022 32.3397L20.2182 32.3577C20.2762 32.4257 20.3461 32.5036 20.4181 32.5856C20.5442 32.7259 20.6777 32.8594 20.818 32.9855L20.832 32.9975C20.9917 33.1367 21.1637 33.2612 21.3459 33.3694C21.4991 33.4601 21.6604 33.5364 21.8277 33.5974L21.9057 33.6253C22.1381 33.7017 22.381 33.7408 22.6255 33.7413C22.7313 33.7414 22.8369 33.7333 22.9415 33.7173C23.0999 33.6937 23.2553 33.6535 23.4053 33.5974C23.6314 33.5124 23.8436 33.3945 24.0352 33.2475C24.3758 33.3877 24.7405 33.4603 25.1089 33.4614C25.2589 33.4614 25.4087 33.4494 25.5568 33.4254C25.9301 33.3644 26.2872 33.2284 26.6065 33.0255C26.954 33.19 27.3337 33.2754 27.7182 33.2754C27.7842 33.2754 27.8502 33.2754 27.9182 33.2754C28.2581 33.2497 28.5897 33.1573 28.8939 33.0035C29.013 32.9448 29.1279 32.878 29.2378 32.8036C29.5149 32.8937 29.8043 32.9402 30.0956 32.9415C30.1912 32.9416 30.2867 32.9356 30.3815 32.9235C30.5884 32.8998 30.7906 32.8452 30.9814 32.7616L31.0334 32.7396C31.1985 32.6626 31.3525 32.5638 31.4913 32.4457C31.6115 32.3464 31.722 32.236 31.8212 32.1157C32.621 31.15 32.7149 29.8063 32.549 28.5746C32.6609 28.5926 32.7729 28.6046 32.8849 28.6146C33.0449 28.6306 33.2068 28.6366 33.3688 28.6366H33.4388H33.6767C33.9143 28.633 34.1515 28.6136 34.3865 28.5786C34.9864 28.4847 35.6082 28.2367 35.9101 27.5649C36.382 26.5812 35.6722 25.7314 35.4342 25.4495Z" fill="white"/>
<path d="M23.9974 32.8955C23.9033 32.8972 23.8116 32.8656 23.7384 32.8064C23.6653 32.7471 23.6154 32.664 23.5975 32.5716L23.0477 29.7963C23.0271 29.6924 23.0486 29.5845 23.1074 29.4964C23.1663 29.4083 23.2577 29.3472 23.3616 29.3264C23.4132 29.3162 23.4663 29.3163 23.5178 29.3267C23.5694 29.3371 23.6184 29.3575 23.6621 29.3869C23.7057 29.4162 23.7431 29.4539 23.7722 29.4977C23.8013 29.5416 23.8214 29.5907 23.8315 29.6423L24.3813 32.4176C24.4019 32.5215 24.3804 32.6294 24.3216 32.7175C24.2627 32.8056 24.1713 32.8667 24.0674 32.8875C24.0443 32.8917 24.0209 32.8944 23.9974 32.8955Z" fill="white"/>
<path d="M26.7148 32.7296C26.6181 32.7307 26.5242 32.6966 26.4507 32.6337C26.3772 32.5708 26.3289 32.4834 26.3149 32.3877L25.827 29.0546C25.8194 29.0026 25.822 28.9496 25.8349 28.8986C25.8477 28.8477 25.8705 28.7997 25.9019 28.7576C25.9333 28.7154 25.9727 28.6799 26.0178 28.653C26.0629 28.626 26.1129 28.6083 26.1649 28.6007C26.2169 28.593 26.2699 28.5957 26.3209 28.6086C26.3718 28.6214 26.4197 28.6442 26.4619 28.6756C26.5041 28.707 26.5396 28.7463 26.5665 28.7915C26.5935 28.8366 26.6112 28.8866 26.6188 28.9386L27.1067 32.2718C27.1143 32.3237 27.1116 32.3767 27.0988 32.4277C27.086 32.4787 27.0632 32.5266 27.0318 32.5687C27.0004 32.6109 26.961 32.6464 26.9159 32.6734C26.8708 32.7003 26.8208 32.718 26.7688 32.7256L26.7148 32.7296Z" fill="white"/>
<path d="M29.0698 32.3037C28.9721 32.3045 28.8776 32.2696 28.8039 32.2055C28.7302 32.1414 28.6826 32.0526 28.6699 31.9558L28.31 29.2225C28.2963 29.1175 28.3249 29.0114 28.3894 28.9275C28.4538 28.8435 28.5489 28.7885 28.6539 28.7746C28.706 28.7676 28.759 28.7709 28.8099 28.7844C28.8607 28.7979 28.9084 28.8213 28.9502 28.8532C28.992 28.8851 29.027 28.925 29.0534 28.9706C29.0798 29.0161 29.0969 29.0663 29.1038 29.1185L29.4617 31.8518C29.4687 31.9039 29.4654 31.9569 29.4519 32.0078C29.4384 32.0586 29.415 32.1063 29.3831 32.1481C29.3511 32.1899 29.3112 32.225 29.2657 32.2513C29.2202 32.2777 29.1699 32.2948 29.1178 32.3017L29.0698 32.3037Z" fill="white"/>
<path d="M66.5546 11.729L57.121 19.527C56.6984 20.4601 56.2759 21.3932 55.8533 22.3263L55.8073 22.4282L55.7253 22.5082C51.7104 26.3972 49.0391 28.9326 48.5612 29.3425C48.2741 29.6093 47.9011 29.7646 47.5095 29.7803H47.4215C47.0664 29.75 46.7345 29.5915 46.4877 29.3345C46.3461 29.2005 46.233 29.0394 46.155 28.8608C46.077 28.6821 46.0358 28.4896 46.0338 28.2947C46.0341 28.1703 46.0516 28.0465 46.0858 27.9268L45.1361 28.8426C44.8236 29.1584 44.4006 29.3405 43.9564 29.3505C43.6757 29.3511 43.4013 29.2674 43.1689 29.1102C42.9364 28.9529 42.7565 28.7294 42.6527 28.4687C42.5135 28.1647 42.4852 27.8216 42.5727 27.4989L42.2928 27.7709C41.9897 28.1061 41.5664 28.3081 41.1151 28.3327C40.9609 28.3314 40.8078 28.3065 40.6612 28.2587C40.4195 28.1867 40.2009 28.0524 40.0276 27.8691C39.8542 27.6859 39.7321 27.4603 39.6735 27.215C39.6184 26.942 39.6352 26.6594 39.7221 26.3947C39.809 26.1301 39.9632 25.8926 40.1694 25.7054L40.9691 24.9196C40.8388 24.9551 40.7043 24.9733 40.5693 24.9736C40.2385 24.9789 39.9171 24.8635 39.6654 24.6489C39.4136 24.4343 39.2487 24.1353 39.2016 23.8079C39.1688 23.5639 39.1896 23.3157 39.2625 23.0806C39.3353 22.8454 39.4585 22.629 39.6235 22.4462C41.2571 20.8207 42.9966 19.1331 44.7981 17.4295C44.8261 17.4055 44.8541 17.3815 44.8841 17.3595C44.7782 17.3875 44.6702 17.4215 44.5582 17.4615C43.2605 17.9254 42.8806 18.0074 42.5587 18.0074C42.4879 18.0076 42.4171 18.0035 42.3468 17.9954H42.2848C41.507 17.9334 40.7712 17.4855 40.0854 16.6637L39.5615 16.0299L42.3608 14.9142L48.5932 12.4448L48.6632 12.4168L50.7886 12.1529L59.4844 1.04175C59.6703 1.12373 59.8543 1.2117 60.0362 1.30767C60.1482 1.36566 60.2602 1.42364 60.3701 1.48563C60.7019 1.66812 61.0237 1.86836 61.3339 2.08547C61.7473 2.36849 62.1426 2.677 62.5176 3.00923C62.6116 3.09121 62.7035 3.1772 62.7955 3.26317C62.8875 3.34915 62.9455 3.40713 63.0195 3.48111L63.1154 3.57709C63.2634 3.72706 63.4074 3.88102 63.5453 4.03897C63.6193 4.11895 63.6893 4.20293 63.7593 4.28691C63.8293 4.37089 63.9132 4.47286 63.9872 4.56883L64.0892 4.6988C64.2232 4.87076 64.3491 5.04871 64.4711 5.23066C64.7672 5.65958 65.0344 6.1078 65.2709 6.57232C65.3249 6.67629 65.3749 6.77227 65.4248 6.88624C65.4233 6.89078 65.4233 6.8957 65.4248 6.90024C65.4768 7.01421 65.5288 7.13018 65.5788 7.24815C65.6288 7.36612 65.6768 7.48209 65.7228 7.60006C65.7687 7.71803 65.8127 7.834 65.8547 7.95197L65.9507 8.23789C65.9787 8.32587 66.0067 8.41385 66.0327 8.50383C66.0587 8.59381 66.0887 8.68977 66.1127 8.78375C66.1987 9.09367 66.2706 9.40958 66.3286 9.7295C66.3546 9.86747 66.3786 10.0034 66.3986 10.1414C66.4186 10.2794 66.4386 10.4193 66.4546 10.5593C66.4546 10.6073 66.4546 10.6533 66.4686 10.7013C66.4806 10.8012 66.4886 10.9012 66.4966 11.0012C66.5406 11.2271 66.5526 11.4771 66.5546 11.729Z" fill="#166A40"/>
<path d="M66.5541 11.7289C66.5541 11.477 66.5401 11.227 66.5201 10.9791L56.6287 19.153C56.1888 20.1248 55.7476 21.0965 55.305 22.0683C51.476 25.7773 48.6567 28.4666 48.1669 28.8785C47.9876 29.0496 47.7542 29.1528 47.507 29.1704H47.459C47.2487 29.1499 47.0531 29.0532 46.9092 28.8985C46.5273 28.5186 46.5333 28.0207 46.9572 27.6028C47.9289 26.6451 48.9147 25.7013 49.8944 24.7496C50.0064 24.6396 50.1683 24.5356 50.2023 24.4037C50.2483 24.2237 50.2623 23.9338 50.1584 23.8458C50.0409 23.766 49.9001 23.728 49.7585 23.7378C49.6914 23.7378 49.6245 23.7439 49.5585 23.7558C49.4285 23.7778 49.3186 23.9558 49.2066 24.0557C47.7083 25.5034 46.212 26.9517 44.7178 28.4006C44.5174 28.608 44.2441 28.7291 43.9559 28.7385C43.7927 28.7382 43.6334 28.6886 43.4989 28.5962C43.3644 28.5038 43.261 28.3729 43.2021 28.2207C43.0182 27.7928 43.1642 27.4509 43.4881 27.1389C44.9544 25.734 46.4127 24.3223 47.8629 22.904C47.9629 22.8081 48.0629 22.7041 48.1629 22.6121C48.4168 22.3742 48.5008 22.0983 48.2389 21.8363C48.1985 21.7902 48.1491 21.753 48.0937 21.7268C48.0383 21.7007 47.9782 21.6862 47.9169 21.6844C47.7563 21.694 47.6057 21.7657 47.497 21.8843L47.3111 22.0683C45.4969 23.8185 43.6847 25.5694 41.8745 27.3209C41.7805 27.4344 41.665 27.5282 41.5346 27.5969C41.4042 27.6655 41.2615 27.7076 41.1147 27.7208C41.0236 27.7201 40.9332 27.7052 40.8467 27.6768C40.1589 27.4509 40.023 26.6771 40.5868 26.1232C42.2517 24.4996 43.9219 22.88 45.5975 21.2645L45.6735 21.1905C45.9574 20.9325 46.2594 20.6366 45.8895 20.2707C45.8483 20.2226 45.7979 20.1832 45.7412 20.1551C45.6845 20.1269 45.6227 20.1105 45.5595 20.1068C45.3376 20.1068 45.1456 20.3187 44.9597 20.5067C43.728 21.7064 42.5023 22.906 41.2606 24.0817C41.0769 24.264 40.8296 24.368 40.5708 24.3717C40.3831 24.3773 40.1999 24.3132 40.0566 24.1917C39.9133 24.0702 39.8202 23.9 39.795 23.7138C39.7779 23.5633 39.7915 23.4109 39.8352 23.2658C39.8788 23.1207 39.9515 22.9861 40.0489 22.8701C41.7458 21.1785 43.4667 19.5122 45.2116 17.8713C45.3614 17.7622 45.5445 17.7085 45.7295 17.7194C45.8082 17.7182 45.8869 17.727 45.9634 17.7454C46.3631 17.8706 46.7527 18.0257 47.1291 18.2093C47.5729 18.3937 48.0482 18.4901 48.5288 18.4932C49.3486 18.4713 50.1442 18.2107 50.8182 17.7434C51.1041 17.5594 51.2001 17.3175 51.0301 17.0356C50.9925 16.9616 50.9353 16.8994 50.8648 16.8557C50.7943 16.812 50.7132 16.7885 50.6302 16.7876C50.5098 16.7919 50.3934 16.8323 50.2963 16.9036C49.7859 17.2723 49.1743 17.4748 48.5448 17.4834C47.9409 17.4616 47.3521 17.2898 46.8312 16.9836C46.4351 16.7647 45.9901 16.6498 45.5375 16.6497C45.1314 16.6559 44.7295 16.7331 44.3498 16.8776C43.1342 17.3135 42.7842 17.3875 42.5503 17.3875C42.4683 17.3875 42.4043 17.3875 42.3204 17.3735C41.8885 17.3395 41.2646 17.1295 40.5468 16.2598L48.8307 12.9846L51.1261 12.6987L60.0538 1.28761C59.8719 1.19163 59.6879 1.10365 59.5019 1.02167C59.316 0.939694 59.12 0.855719 58.9261 0.781738L54.6532 6.24234L50.4863 11.569L49.8284 11.6509L48.6827 11.7929L48.5308 11.8129L48.3908 11.8689L41.8805 14.4462L40.1129 15.148L38.5813 15.7479L39.6311 17.0176C40.4149 17.9693 41.2926 18.4912 42.2304 18.5652H42.2864C42.3524 18.5652 42.4423 18.5792 42.5543 18.5792C42.5983 18.5792 42.6443 18.5792 42.6903 18.5792C41.4906 19.7389 40.3129 20.8826 39.1952 21.9983C38.9622 22.2471 38.7874 22.5447 38.6837 22.8694C38.5799 23.1942 38.5498 23.5379 38.5953 23.8758C38.6399 24.1861 38.7585 24.4812 38.9412 24.736C39.124 24.9907 39.3654 25.1977 39.6451 25.3394C39.3938 25.5982 39.21 25.9149 39.1099 26.2615C39.0098 26.6081 38.9965 26.974 39.0712 27.3269C39.1542 27.6719 39.3253 27.9895 39.5679 28.2485C39.8104 28.5075 40.116 28.6991 40.4548 28.8045C40.6621 28.8721 40.8786 28.9072 41.0967 28.9085C41.4378 28.9062 41.7728 28.8174 42.0704 28.6506L42.0824 28.6806C42.2325 29.0493 42.4893 29.3649 42.8199 29.5868C43.1505 29.8088 43.5398 29.9269 43.938 29.9262C44.5384 29.9179 45.1121 29.6763 45.5375 29.2524L45.6335 29.1604C45.7416 29.3737 45.8834 29.5681 46.0534 29.7363C46.401 30.0949 46.8673 30.3145 47.3651 30.3541C47.4111 30.3541 47.455 30.3541 47.497 30.3541C48.0314 30.3422 48.5432 30.1361 48.9367 29.7743C49.5085 29.2804 52.5997 26.3332 56.1348 22.912L56.2968 22.7541L56.3927 22.5541C56.7926 21.6664 57.1959 20.7786 57.6024 19.8908L62.3652 15.9518L66.5481 12.4967V11.8969C66.5561 11.8429 66.5561 11.7849 66.5541 11.7289Z" fill="white"/>
<path d="M31.9853 28.7586C31.8541 28.7586 31.7266 28.7155 31.6222 28.6361C31.5178 28.5566 31.4424 28.4452 31.4074 28.3188C31.3474 28.0948 31.2774 27.8729 31.2075 27.6549C31.0185 27.1105 30.7858 26.5822 30.5116 26.0753C30.4741 26.0059 30.4506 25.9298 30.4426 25.8512C30.4345 25.7727 30.442 25.6934 30.4647 25.6178C30.4874 25.5422 30.5247 25.4718 30.5746 25.4107C30.6245 25.3496 30.686 25.2989 30.7556 25.2615C30.8956 25.1864 31.0597 25.1698 31.2119 25.2156C31.3641 25.2613 31.492 25.3656 31.5674 25.5055C31.8733 26.069 32.1321 26.6569 32.3412 27.263C32.4251 27.505 32.5031 27.7529 32.5711 28.0008C32.6128 28.1541 32.592 28.3176 32.5133 28.4555C32.4346 28.5935 32.3043 28.6946 32.1512 28.7366C32.0973 28.7524 32.0414 28.7598 31.9853 28.7586Z" fill="white"/>
</svg>
