<svg width="44" height="45" viewBox="0 0 44 45" fill="none" xmlns="http://www.w3.org/2000/svg">
<path d="M32.9435 33.5056L33.7169 29.5565L35.8309 29.9704C36.0695 30.0172 36.2797 30.1567 36.4154 30.3585C36.5511 30.5602 36.601 30.8076 36.5543 31.0462L35.4286 36.7945L35.0868 36.7276C34.3771 36.5812 33.7539 36.1607 33.3526 35.5573C32.9512 34.954 32.8042 34.2167 32.9435 33.5056Z" fill="#656769" stroke="#45413C" stroke-width="0.5" stroke-linecap="round" stroke-linejoin="round"/>
<path d="M21.7066 24.7328C21.4544 24.9312 21.244 25.1775 21.0875 25.4576C20.931 25.7377 20.8316 26.0461 20.795 26.3648C20.7583 26.6836 20.7852 27.0064 20.874 27.3148C20.9628 27.6231 21.1118 27.9107 21.3125 28.1611L22.715 29.9303C24.2625 31.8828 26.463 33.2109 28.9116 33.6703L32.7708 34.3853L33.6875 29.5453L30.3141 28.9036C28.5572 28.5644 26.989 27.5843 25.9141 26.1536L25.135 25.1361C24.9383 24.8782 24.6922 24.6622 24.4111 24.5005C24.1299 24.3389 23.8193 24.235 23.4975 24.1949C23.1757 24.1548 22.8491 24.1792 22.5369 24.2669C22.2247 24.3545 21.9331 24.5036 21.6791 24.7053L21.7066 24.7328Z" fill="#00B8F0"/>
<path d="M25.9417 26.1812L25.1625 25.1637C24.9657 24.9109 24.721 24.6993 24.4424 24.5411C24.1638 24.3829 23.8568 24.281 23.5389 24.2415C23.221 24.2019 22.8984 24.2253 22.5895 24.3104C22.2806 24.3955 21.9915 24.5406 21.7387 24.7374C21.486 24.9342 21.2744 25.1789 21.1162 25.4575C20.9579 25.7361 20.8561 26.0431 20.8165 26.361C20.777 26.6789 20.8004 27.0016 20.8855 27.3104C20.9706 27.6193 21.1157 27.9084 21.3125 28.1612L22.715 29.9303C23.2461 30.6165 23.8621 31.2326 24.5483 31.7637C25.6433 30.4371 26.872 29.2268 28.215 28.152C27.3259 27.664 26.5509 26.9921 25.9417 26.1812Z" fill="#009FD9"/>
<path d="M21.7066 24.7328C21.4544 24.9312 21.244 25.1775 21.0875 25.4576C20.931 25.7377 20.8316 26.0461 20.795 26.3648C20.7583 26.6836 20.7852 27.0064 20.874 27.3148C20.9628 27.6231 21.1118 27.9107 21.3125 28.1611L22.715 29.9303C24.2625 31.8828 26.463 33.2109 28.9116 33.6703L32.7708 34.3853L33.6875 29.5453L30.3141 28.9036C28.5572 28.5644 26.989 27.5843 25.9141 26.1536L25.135 25.1361C24.9383 24.8782 24.6922 24.6622 24.4111 24.5005C24.1299 24.3389 23.8193 24.235 23.4975 24.1949C23.1757 24.1548 22.8491 24.1792 22.5369 24.2669C22.2247 24.3545 21.9331 24.5036 21.6791 24.7053L21.7066 24.7328Z" stroke="#45413C" stroke-width="0.5" stroke-linecap="round" stroke-linejoin="round"/>
<path d="M14.0919 35.7822L17.8049 37.3338L16.9778 39.313C16.8841 39.5373 16.7051 39.7152 16.4802 39.8075C16.2553 39.8998 16.0029 39.899 15.7786 39.8053L10.4078 37.5609L10.5422 37.2395C10.8273 36.5819 11.3578 36.0616 12.0208 35.7894C12.6839 35.5172 13.427 35.5146 14.0919 35.7822Z" fill="#656769" stroke="#45413C" stroke-width="0.5" stroke-linecap="round" stroke-linejoin="round"/>
<path d="M22.1467 24.082L19.3508 26.0895C17.3681 27.5935 15.8056 29.5822 14.8133 31.8645L13.2642 35.4303L17.8475 37.3278L19.25 33.9545C19.8817 32.4359 20.9069 31.1132 22.22 30.1228L25.1533 28.0053C25.4116 27.8098 25.6289 27.5652 25.7927 27.2857C25.9564 27.0062 26.0635 26.6971 26.1078 26.3762C26.152 26.0552 26.1326 25.7287 26.0507 25.4153C25.9687 25.1018 25.8257 24.8076 25.63 24.5495C25.4336 24.2879 25.1871 24.0681 24.9049 23.9027C24.6227 23.7373 24.3104 23.6298 23.9862 23.5862C23.6621 23.5427 23.3325 23.5642 23.0166 23.6493C22.7008 23.7344 22.4051 23.8815 22.1467 24.082Z" fill="#00B8F0"/>
<path d="M25.6025 24.5586C25.4069 24.3003 25.1624 24.0831 24.8829 23.9193C24.6033 23.7555 24.2943 23.6484 23.9733 23.6042C23.6524 23.5599 23.3259 23.5793 23.0124 23.6613C22.699 23.7433 22.4048 23.8862 22.1466 24.082L19.3508 26.0895C18.5393 26.7087 17.793 27.409 17.1233 28.1795C19.8789 28.2472 22.6359 28.1185 25.3733 27.7945C25.7964 27.374 26.0528 26.8145 26.0949 26.2195C26.137 25.6246 25.9621 25.0345 25.6025 24.5586Z" fill="#009FD9"/>
<path d="M22.1467 24.082L19.3508 26.0895C17.3681 27.5935 15.8056 29.5822 14.8133 31.8645L13.2642 35.4303L17.8475 37.3278L19.25 33.9545C19.8817 32.4359 20.9069 31.1132 22.22 30.1228L25.1533 28.0053C25.4116 27.8098 25.6289 27.5652 25.7927 27.2857C25.9564 27.0062 26.0635 26.6971 26.1078 26.3762C26.152 26.0552 26.1326 25.7287 26.0507 25.4153C25.9687 25.1018 25.8257 24.8076 25.63 24.5495V24.5495C25.4336 24.2879 25.1871 24.0681 24.9049 23.9027C24.6227 23.7373 24.3104 23.6298 23.9862 23.5862C23.6621 23.5427 23.3325 23.5642 23.0166 23.6493C22.7008 23.7344 22.4051 23.8815 22.1467 24.082V24.082Z" stroke="#45413C" stroke-width="0.5" stroke-linecap="round" stroke-linejoin="round"/>
<path d="M18.507 15.4408L19.1066 15.9666C19.3936 16.2183 19.5688 16.5736 19.5938 16.9545C19.6187 17.3354 19.4914 17.7106 19.2397 17.9975L16.387 21.2505L13.6302 18.8329L16.483 15.5799C16.7336 15.2942 17.0871 15.1191 17.4663 15.0931C17.8455 15.067 18.2196 15.192 18.507 15.4408Z" fill="#E04122" stroke="#45413C" stroke-width="0.5" stroke-linecap="round" stroke-linejoin="round"/>
<path opacity="0.15" d="M10.9541 41.0862C10.9541 41.2667 11.2268 41.4456 11.7565 41.6124C12.2863 41.7792 13.0628 41.9308 14.0417 42.0585C15.0206 42.1861 16.1827 42.2874 17.4616 42.3565C18.7406 42.4256 20.1114 42.4612 21.4958 42.4612C22.8801 42.4612 24.2509 42.4256 25.5299 42.3565C26.8089 42.2874 27.971 42.1861 28.9499 42.0585C29.9287 41.9308 30.7052 41.7792 31.235 41.6124C31.7648 41.4456 32.0374 41.2667 32.0374 41.0862C32.0374 40.9056 31.7648 40.7268 31.235 40.56C30.7052 40.3932 29.9287 40.2416 28.9499 40.1139C27.971 39.9862 26.8089 39.8849 25.5299 39.8158C24.2509 39.7467 22.8801 39.7112 21.4958 39.7112C20.1114 39.7112 18.7406 39.7467 17.4616 39.8158C16.1827 39.8849 15.0206 39.9862 14.0417 40.1139C13.0628 40.2416 12.2863 40.3932 11.7565 40.56C11.2268 40.7268 10.9541 40.9056 10.9541 41.0862Z" fill="#45413C"/>
<path d="M25.5749 22.8079L20.6249 25.3837C20.3835 25.5037 20.1049 25.5248 19.8481 25.4427C19.5914 25.3605 19.3768 25.1815 19.2499 24.9437C18.4115 23.566 17.793 22.0661 17.4166 20.4979C16.4541 17.372 16.2341 14.5304 17.8199 13.7054C18.2746 13.4469 18.8058 13.3567 19.3203 13.4506C19.8348 13.5444 20.2999 13.8164 20.6341 14.2187L25.9782 21.2679C26.0665 21.3915 26.1266 21.533 26.1541 21.6824C26.1816 21.8318 26.1759 21.9854 26.1374 22.1324C26.0989 22.2793 26.0286 22.416 25.9314 22.5327C25.8342 22.6495 25.7125 22.7434 25.5749 22.8079Z" fill="#FF6242"/>
<path d="M19.4333 25.2095C19.2041 24.6229 18.9475 23.8987 18.6725 23.0187C17.71 19.8929 17.49 17.0512 19.0758 16.2262C19.5305 15.9678 20.0617 15.8776 20.5762 15.9714C21.0907 16.0653 21.5558 16.3372 21.89 16.7395L26.07 22.2395C26.132 22.0757 26.1511 21.8988 26.1254 21.7255C26.0998 21.5522 26.0302 21.3883 25.9233 21.2495L20.5791 14.2004C20.245 13.798 19.7799 13.5261 19.2654 13.4323C18.7508 13.3384 18.2197 13.4286 17.765 13.687C16.1791 14.512 16.3991 17.3537 17.3616 20.4795C17.738 22.0477 18.3566 23.5477 19.195 24.9254C19.2554 25.0345 19.3364 25.131 19.4333 25.2095Z" fill="#FF866E"/>
<path d="M25.5749 22.8079L20.6249 25.3837C20.3835 25.5037 20.1049 25.5248 19.8481 25.4427C19.5914 25.3605 19.3768 25.1815 19.2499 24.9437C18.4115 23.566 17.793 22.0661 17.4166 20.4979C16.4541 17.372 16.2341 14.5304 17.8199 13.7054C18.2746 13.4469 18.8058 13.3567 19.3203 13.4506C19.8348 13.5444 20.2999 13.8164 20.6341 14.2187L25.9782 21.2679C26.0665 21.3915 26.1266 21.533 26.1541 21.6824C26.1816 21.8318 26.1759 21.9854 26.1374 22.1324C26.0989 22.2793 26.0286 22.416 25.9314 22.5327C25.8342 22.6495 25.7125 22.7434 25.5749 22.8079V22.8079Z" stroke="#45413C" stroke-width="0.5" stroke-linecap="round" stroke-linejoin="round"/>
<path d="M7.88328 17.9403C7.73573 18.091 7.61971 18.2695 7.54201 18.4656C7.4643 18.6616 7.42648 18.8712 7.43074 19.082C7.43501 19.2929 7.48129 19.5007 7.56686 19.6934C7.65243 19.8862 7.77559 20.0599 7.92911 20.2045L9.16661 21.3778C9.64179 21.8279 10.2028 22.1774 10.8162 22.4057C11.4296 22.6339 12.0827 22.7361 12.7365 22.7062C13.3903 22.6762 14.0313 22.5147 14.6212 22.2314C15.2112 21.948 15.7379 21.5486 16.1699 21.057L13.7499 18.9211C13.5952 19.0953 13.407 19.2365 13.1965 19.3362C12.986 19.4359 12.7575 19.4922 12.5247 19.5016C12.292 19.511 12.0597 19.4734 11.8418 19.391C11.6239 19.3086 11.4249 19.1831 11.2566 19.022L10.0924 17.8945C9.78954 17.6154 9.39042 17.4643 8.97864 17.4729C8.56687 17.4814 8.17436 17.6489 7.88328 17.9403Z" fill="#FFE500"/>
<path d="M13.145 22.6428C14.3133 22.5018 15.3895 21.9377 16.17 21.057L13.75 18.9211C13.5884 19.0994 13.3919 19.2426 13.1728 19.3419C12.9536 19.4413 12.7164 19.4946 12.4758 19.4986L13.145 22.6428Z" fill="#EBCB00"/>
<path d="M7.88328 17.9403C7.73573 18.091 7.61971 18.2695 7.54201 18.4656C7.4643 18.6616 7.42648 18.8712 7.43074 19.082C7.43501 19.2929 7.48129 19.5007 7.56686 19.6934C7.65243 19.8862 7.77559 20.0599 7.92911 20.2045L9.16661 21.3778C9.64179 21.8279 10.2028 22.1774 10.8162 22.4057C11.4296 22.6339 12.0827 22.7361 12.7365 22.7062C13.3903 22.6762 14.0313 22.5147 14.6212 22.2314C15.2112 21.948 15.7379 21.5486 16.1699 21.057V21.057L13.7499 18.9211C13.5952 19.0953 13.407 19.2365 13.1965 19.3362C12.986 19.4359 12.7575 19.4922 12.5247 19.5016C12.292 19.511 12.0597 19.4734 11.8418 19.391C11.6239 19.3086 11.4249 19.1831 11.2566 19.022L10.0924 17.8945C9.78954 17.6154 9.39042 17.4643 8.97864 17.4729C8.56687 17.4814 8.17436 17.6489 7.88328 17.9403V17.9403Z" stroke="#45413C" stroke-width="0.5" stroke-linecap="round" stroke-linejoin="round"/>
<path d="M18.4659 13.9657L18.7094 13.5992C18.9637 13.2165 19.3596 12.9505 19.81 12.8597C20.2604 12.7688 20.7285 12.8607 21.1112 13.115L24.7302 15.5194L22.5692 18.772L18.9425 16.3624C18.5598 16.1082 18.2938 15.7123 18.203 15.2618C18.1122 14.8114 18.204 14.3434 18.4583 13.9606L18.4659 13.9657Z" fill="#FF6242"/>
<path d="M20.4234 15.0712C20.7092 14.6399 21.1546 14.3397 21.6616 14.2366C22.1687 14.1335 22.6959 14.2358 23.1275 14.5212L24.695 15.557V15.5112L21.2575 13.2287C20.8261 12.9645 20.309 12.8781 19.8151 12.9876C19.3212 13.0972 18.8891 13.3942 18.6098 13.816C18.3306 14.2379 18.2259 14.7517 18.318 15.2491C18.4101 15.7466 18.6916 16.1889 19.1034 16.4828L20.6159 17.4545C20.3256 17.134 20.1493 16.7266 20.1145 16.2956C20.0797 15.8645 20.1883 15.4341 20.4234 15.0712Z" fill="#FF866E"/>
<path d="M18.4659 13.9657L18.7094 13.5992C18.9637 13.2165 19.3596 12.9505 19.81 12.8597C20.2604 12.7688 20.7285 12.8607 21.1112 13.115L24.7302 15.5194L22.5692 18.772L18.9425 16.3624C18.5598 16.1082 18.2938 15.7123 18.203 15.2618C18.1122 14.8114 18.204 14.3434 18.4583 13.9606L18.4659 13.9657Z" stroke="#45413C" stroke-width="0.5" stroke-linecap="round" stroke-linejoin="round"/>
<path d="M25.52 25.1636C25.1031 25.1088 24.725 24.8907 24.4688 24.5572C24.2127 24.2238 24.0995 23.8022 24.1541 23.3853L24.4566 21.1669C24.506 20.7979 24.4545 20.4224 24.3076 20.0802C24.1607 19.7381 23.924 19.4421 23.6225 19.2236L22.7058 18.5544L24.4841 15.8044L25.0433 16.2078C25.9591 16.8808 26.6726 17.7923 27.1058 18.843C27.539 19.8937 27.6753 21.0432 27.5 22.1661L27.2891 23.8711C27.2172 24.2728 26.9932 24.6313 26.6637 24.872C26.3341 25.1127 25.9245 25.2172 25.52 25.1636Z" fill="#FFE500"/>
<path d="M25.0433 16.2171L24.4841 15.8137L22.7058 18.5637L23.6225 19.2329C23.8677 19.4145 24.0684 19.6496 24.2091 19.9204L25.52 16.6296C25.3641 16.4829 25.2083 16.3454 25.0433 16.2171Z" fill="#EBCB00"/>
<path d="M25.52 25.1636C25.1031 25.1088 24.725 24.8907 24.4688 24.5572C24.2127 24.2238 24.0995 23.8022 24.1541 23.3853L24.4566 21.1669C24.506 20.7979 24.4545 20.4224 24.3076 20.0802C24.1607 19.7381 23.924 19.4421 23.6225 19.2236L22.7058 18.5544L24.4841 15.8044L25.0433 16.2078C25.9591 16.8808 26.6726 17.7923 27.1058 18.843C27.539 19.8937 27.6753 21.0432 27.5 22.1661L27.2891 23.8711C27.2172 24.2728 26.9932 24.6313 26.6637 24.872C26.3341 25.1127 25.9245 25.2172 25.52 25.1636V25.1636Z" stroke="#45413C" stroke-width="0.5" stroke-linecap="round" stroke-linejoin="round"/>
<path d="M8.71753 7.90281C8.71753 9.27884 9.26416 10.5985 10.2372 11.5715C11.2102 12.5445 12.5298 13.0911 13.9059 13.0911C15.2819 13.0911 16.6016 12.5445 17.5746 11.5715C18.5476 10.5985 19.0942 9.27884 19.0942 7.90281C19.0942 6.52678 18.5476 5.20711 17.5746 4.2341C16.6016 3.2611 15.2819 2.71448 13.9059 2.71448C12.5298 2.71448 11.2102 3.2611 10.2372 4.2341C9.26416 5.20711 8.71753 6.52678 8.71753 7.90281Z" fill="#FFE500" stroke="#45413C" stroke-width="0.5" stroke-linecap="round" stroke-linejoin="round"/>
<path d="M16.3075 2.29284C14.8092 1.65066 13.1242 1.59504 11.5867 2.137C11.1133 2.35797 10.5829 2.42638 10.0689 2.33278C9.5549 2.23918 9.08268 1.98818 8.71755 1.6145C8.71755 1.6145 6.81088 4.9145 9.03838 6.10617C11.3759 7.02283 14.1992 5.932 14.1992 5.932L13.9334 7.76534C13.9334 7.76534 15.1159 7.09617 15.7667 7.82033C16.4175 8.5445 16.0784 10.5703 14.7217 10.3687C14.6644 10.8268 14.7234 11.292 14.8932 11.7213C15.063 12.1507 15.3382 12.5303 15.6934 12.8253C16.5744 12.5057 17.3524 11.9534 17.9448 11.2271C18.5371 10.5008 18.9217 9.62765 19.0575 8.70033C19.4609 5.81283 18.8559 3.77784 16.3075 2.29284Z" fill="#724F3D"/>
<path d="M8.424 4.42867C8.4523 4.36054 8.4947 4.29918 8.54842 4.24863C8.60214 4.19807 8.66595 4.15946 8.73566 4.13534C8.80713 4.11246 8.88275 4.10552 8.95718 4.11502C9.03162 4.12453 9.10307 4.15023 9.1665 4.19034C9.53409 4.39175 9.94168 4.50935 10.3601 4.5347C10.7785 4.56006 11.1973 4.49255 11.5865 4.337C13.124 3.79504 14.809 3.85066 16.3073 4.49284C17.0363 4.86345 17.6662 5.40287 18.1446 6.06617C18.6229 6.72947 18.9358 7.49745 19.0573 8.30617C19.369 5.64784 18.7182 3.72284 16.3073 2.29284C14.809 1.65066 13.124 1.59504 11.5865 2.137C11.1131 2.35797 10.5827 2.42638 10.0687 2.33278C9.55468 2.23918 9.08247 1.98818 8.71733 1.6145C8.71733 1.6145 7.49816 3.7045 8.149 5.18034C8.22463 4.9242 8.31648 4.67314 8.424 4.42867Z" fill="#A86C4D"/>
<path d="M16.3075 2.29284C14.8092 1.65066 13.1242 1.59504 11.5867 2.137C11.1133 2.35797 10.5829 2.42638 10.0689 2.33278C9.5549 2.23918 9.08268 1.98818 8.71755 1.6145C8.71755 1.6145 6.81088 4.9145 9.03838 6.10617C11.3759 7.02283 14.1992 5.932 14.1992 5.932L13.9334 7.76534C13.9334 7.76534 15.1159 7.09617 15.7667 7.82033C16.4175 8.5445 16.0784 10.5703 14.7217 10.3687C14.6644 10.8268 14.7234 11.292 14.8932 11.7213C15.063 12.1507 15.3382 12.5303 15.6934 12.8253C16.5744 12.5057 17.3524 11.9534 17.9448 11.2271C18.5371 10.5008 18.9217 9.62765 19.0575 8.70033C19.4609 5.81283 18.8559 3.77784 16.3075 2.29284Z" stroke="#45413C" stroke-width="0.5" stroke-linecap="round" stroke-linejoin="round"/>
</svg>
