<svg width="256" height="81" viewBox="0 0 256 81" fill="none" xmlns="http://www.w3.org/2000/svg">
<rect x="0.649902" width="254.65" height="80.4972" rx="10" fill="black"/>
<path d="M36.8176 39.1464L16.3193 60.9029C16.3201 60.9074 16.3216 60.9112 16.3224 60.9157C16.951 63.278 19.1088 65.0176 21.6697 65.0176C22.6934 65.0176 23.6545 64.7408 24.4788 64.2549L24.5443 64.2166L47.6177 50.9024L36.8176 39.1464Z" fill="#EB3131"/>
<path d="M57.5558 35.4414L57.5361 35.428L47.5747 29.6532L36.3521 39.6397L47.6138 50.8999L57.5227 45.1826C59.2599 44.2447 60.4392 42.4133 60.4392 40.3014C60.4392 38.2047 59.2757 36.3824 57.5558 35.4414Z" fill="#F6B60B"/>
<path d="M16.3184 19.6104C16.1951 20.0648 16.1304 20.5408 16.1304 21.035V59.4797C16.1304 59.973 16.1944 60.4506 16.3191 60.9033L37.5229 39.7034L16.3184 19.6104Z" fill="#5778C5"/>
<path d="M36.9685 40.2566L47.5784 29.6498L24.5311 16.2875C23.6934 15.7857 22.7157 15.4962 21.6695 15.4962C19.1086 15.4962 16.9479 17.2388 16.3191 19.6041C16.3184 19.6064 16.3184 19.608 16.3184 19.6101L36.9685 40.2566Z" fill="#3BAD49"/>
<path d="M178.219 22.9884C178.869 23.1948 179.375 23.5302 179.736 23.9947C180.108 24.4487 180.293 24.9854 180.293 25.6046C180.293 26.2548 180.082 26.8224 179.659 27.3074C179.235 27.7821 178.668 28.1485 177.956 28.4065C177.254 28.6645 176.485 28.7935 175.649 28.7935C174.927 28.7935 174.199 28.6955 173.467 28.4994C172.744 28.293 172.073 27.9886 171.454 27.5861L172.104 26.1154C172.579 26.4354 173.105 26.6831 173.683 26.8585C174.261 27.0236 174.834 27.1062 175.402 27.1062C176.217 27.1062 176.893 26.9462 177.429 26.6263C177.976 26.3064 178.25 25.8678 178.25 25.3105C178.25 24.8357 178.054 24.4745 177.662 24.2269C177.27 23.9792 176.728 23.8553 176.036 23.8553H173.513V22.2763H175.881C176.48 22.2763 176.95 22.1525 177.29 21.9048C177.631 21.6571 177.801 21.3217 177.801 20.8986C177.801 20.3929 177.569 20.0008 177.104 19.7221C176.65 19.4435 176.067 19.3041 175.355 19.3041C174.87 19.3041 174.37 19.3764 173.854 19.5209C173.338 19.655 172.852 19.8563 172.398 20.1246L171.764 18.4992C172.321 18.1999 172.909 17.978 173.528 17.8335C174.158 17.6787 174.782 17.6013 175.402 17.6013C176.207 17.6013 176.944 17.7252 177.615 17.9728C178.296 18.2205 178.838 18.5766 179.241 19.041C179.643 19.4951 179.844 20.0317 179.844 20.6509C179.844 21.1876 179.7 21.6571 179.411 22.0596C179.122 22.4621 178.725 22.7717 178.219 22.9884Z" fill="white"/>
<path d="M159.809 17.8027H161.791V25.4964L167.611 17.8027H169.484V28.6389H167.503V20.9607L161.682 28.6389H159.809V17.8027Z" fill="white"/>
<path d="M149.419 21.4715C150.72 21.4715 151.715 21.7657 152.407 22.3539C153.109 22.9318 153.46 23.7936 153.46 24.9391C153.46 26.1363 153.078 27.0548 152.314 27.6946C151.55 28.3241 150.477 28.6389 149.094 28.6389H144.435V17.8027H146.416V21.4715H149.419ZM149.001 27.0909C149.786 27.0909 150.389 26.9103 150.812 26.5491C151.236 26.1879 151.447 25.6615 151.447 24.9701C151.447 23.6594 150.632 23.0041 149.001 23.0041H146.416V27.0909H149.001Z" fill="white"/>
<path d="M142.683 19.5056H139.091V28.6389H137.094V19.5056H133.519V17.8027H142.683V19.5056Z" fill="white"/>
<path d="M130.513 26.1311H125.095L124.026 28.6389H121.952L126.828 17.8027H128.81L133.702 28.6389H131.596L130.513 26.1311ZM129.847 24.5521L127.804 19.8152L125.776 24.5521H129.847Z" fill="white"/>
<path d="M120.293 17.8027V28.6389H118.296V24.5521C117.274 24.934 116.304 25.1249 115.386 25.1249C114.003 25.1249 112.935 24.7946 112.181 24.1341C111.438 23.4633 111.067 22.5036 111.067 21.2548V17.8027H113.064V21.0381C113.064 21.8018 113.286 22.3849 113.729 22.7874C114.173 23.1899 114.808 23.3911 115.634 23.3911C116.573 23.3911 117.46 23.2002 118.296 22.8183V17.8027H120.293Z" fill="white"/>
<path d="M107.761 26.1311H102.343L101.275 28.6389H99.2002L104.076 17.8027H106.058L110.95 28.6389H108.844L107.761 26.1311ZM107.095 24.5521L105.052 19.8152L103.024 24.5521H107.095Z" fill="white"/>
<path d="M93.9446 24.0722H91.9322V28.6389H89.9507V17.8027H91.9322V22.3384H94.0065L97.118 17.8027H99.2543L95.5545 23.0505L99.3936 28.6389H97.118L93.9446 24.0722Z" fill="white"/>
<path d="M83.7789 28.7937C82.6849 28.7937 81.6942 28.5563 80.8067 28.0816C79.9294 27.5966 79.238 26.9309 78.7323 26.0847C78.2369 25.2384 77.9893 24.2838 77.9893 23.2208C77.9893 22.1579 78.2421 21.2032 78.7478 20.357C79.2535 19.5107 79.9449 18.8502 80.8221 18.3755C81.7097 17.8905 82.7004 17.6479 83.7943 17.6479C84.6819 17.6479 85.492 17.8028 86.2247 18.1124C86.9575 18.422 87.5767 18.8709 88.0824 19.4591L86.782 20.6821C85.9977 19.8358 85.0328 19.4127 83.8872 19.4127C83.1442 19.4127 82.4785 19.5778 81.8903 19.9081C81.302 20.228 80.8428 20.6769 80.5125 21.2548C80.1823 21.8328 80.0172 22.4881 80.0172 23.2208C80.0172 23.9536 80.1823 24.6089 80.5125 25.1868C80.8428 25.7647 81.302 26.2188 81.8903 26.5491C82.4785 26.869 83.1442 27.029 83.8872 27.029C85.0328 27.029 85.9977 26.6007 86.782 25.7441L88.0824 26.9825C87.5767 27.5708 86.9523 28.0197 86.2093 28.3293C85.4765 28.6389 84.6664 28.7937 83.7789 28.7937Z" fill="white"/>
<path d="M204.15 62.0916H207.742V38.0218H204.15V62.0916ZM236.51 46.6923L232.391 57.1277H232.268L227.994 46.6923H224.124L230.533 61.2778L226.879 69.3908H230.628L240.505 46.6923H236.51ZM216.135 59.3577C214.957 59.3577 213.316 58.7695 213.316 57.3135C213.316 55.4557 215.361 54.7435 217.125 54.7435C218.706 54.7435 219.447 55.0841 220.408 55.5491C220.129 57.7783 218.209 59.3577 216.135 59.3577ZM216.568 46.1657C213.967 46.1657 211.274 47.3119 210.159 49.8511L213.347 51.1823C214.029 49.8511 215.298 49.4171 216.63 49.4171C218.488 49.4171 220.377 50.5325 220.408 52.5143V52.7617C219.757 52.3901 218.365 51.8329 216.661 51.8329C213.224 51.8329 209.724 53.7213 209.724 57.2517C209.724 60.4724 212.542 62.5474 215.7 62.5474C218.117 62.5474 219.447 61.4636 220.285 60.1941H220.408V62.0518H223.875V52.8233C223.875 48.5507 220.687 46.1657 216.568 46.1657ZM194.365 49.6223H189.255V41.3718H194.365C197.051 41.3718 198.576 43.5956 198.576 45.497C198.576 47.3623 197.051 49.6223 194.365 49.6223ZM194.272 38.0218H185.664V62.0916H189.255V52.9723H194.272C198.254 52.9723 202.168 50.0894 202.168 45.497C202.168 40.9047 198.254 38.0218 194.272 38.0218ZM147.329 59.3622C144.847 59.3622 142.769 57.2841 142.769 54.4299C142.769 51.5456 144.847 49.436 147.329 49.436C149.78 49.436 151.703 51.5456 151.703 54.4299C151.703 57.2841 149.78 59.3622 147.329 59.3622ZM151.454 48.04H151.33C150.524 47.0787 148.972 46.2101 147.019 46.2101C142.924 46.2101 139.171 49.8081 139.171 54.4299C139.171 59.0208 142.924 62.588 147.019 62.588C148.972 62.588 150.524 61.7192 151.33 60.7273H151.454V61.9058C151.454 65.0392 149.78 66.7141 147.081 66.7141C144.879 66.7141 143.514 65.1316 142.955 63.7981L139.822 65.1008C140.722 67.2721 143.111 69.9399 147.081 69.9399C151.299 69.9399 154.867 67.4579 154.867 61.4095V46.7065H151.454V48.04ZM157.348 62.0916H160.946V38.021H157.348V62.0916ZM166.251 54.1509C166.157 50.9867 168.701 49.3742 170.531 49.3742C171.959 49.3742 173.168 50.0871 173.57 51.1116L166.251 54.1509ZM177.417 51.4214C176.736 49.5908 174.656 46.2101 170.407 46.2101C166.188 46.2101 162.683 49.5291 162.683 54.3991C162.683 58.99 166.157 62.588 170.81 62.588C174.564 62.588 176.736 60.2925 177.635 58.959L174.843 57.0975C173.913 58.4626 172.64 59.3622 170.81 59.3622C168.98 59.3622 167.678 58.5244 166.84 56.8809L177.789 52.3518L177.417 51.4214ZM90.1809 48.7228V52.1968H98.4938C98.2456 54.1509 97.5943 55.5776 96.6015 56.5703C95.3922 57.7805 93.4999 59.114 90.1809 59.114C85.0626 59.114 81.0614 54.9886 81.0614 49.8705C81.0614 44.7524 85.0626 40.6265 90.1809 40.6265C92.9417 40.6265 94.9574 41.7124 96.4465 43.1083L98.897 40.6581C96.8189 38.6724 94.0579 37.1525 90.1809 37.1525C83.1703 37.1525 77.2769 42.8601 77.2769 49.8705C77.2769 56.8809 83.1703 62.588 90.1809 62.588C93.9655 62.588 96.8189 61.3478 99.052 59.0208C101.347 56.7253 102.061 53.4995 102.061 50.8943C102.061 50.0871 101.999 49.3433 101.875 48.7228H90.1809ZM111.512 59.3622C109.03 59.3622 106.89 57.3149 106.89 54.3991C106.89 51.4522 109.03 49.436 111.512 49.436C113.993 49.436 116.134 51.4522 116.134 54.3991C116.134 57.3149 113.993 59.3622 111.512 59.3622ZM111.512 46.2101C106.983 46.2101 103.292 49.6531 103.292 54.3991C103.292 59.114 106.983 62.588 111.512 62.588C116.041 62.588 119.732 59.114 119.732 54.3991C119.732 49.6531 116.041 46.2101 111.512 46.2101ZM129.444 59.3622C126.963 59.3622 124.822 57.3149 124.822 54.3991C124.822 51.4522 126.963 49.436 129.444 49.436C131.925 49.436 134.066 51.4522 134.066 54.3991C134.066 57.3149 131.925 59.3622 129.444 59.3622ZM129.444 46.2101C124.915 46.2101 121.224 49.6531 121.224 54.3991C121.224 59.114 124.915 62.588 129.444 62.588C133.972 62.588 137.664 59.114 137.664 54.3991C137.664 49.6531 133.972 46.2101 129.444 46.2101Z" fill="white"/>
</svg>
