<svg width="44" height="45" viewBox="0 0 44 45" fill="none" xmlns="http://www.w3.org/2000/svg">
<path opacity="0.15" d="M8.23193 41.6454C8.23193 41.8392 8.58806 42.0311 9.27999 42.2102C9.97191 42.3892 10.9861 42.5519 12.2646 42.689C13.5431 42.826 15.0609 42.9347 16.7314 43.0089C18.4018 43.083 20.1922 43.1212 22.0003 43.1212C23.8084 43.1212 25.5987 43.083 27.2692 43.0089C28.9396 42.9347 30.4574 42.826 31.7359 42.689C33.0145 42.5519 34.0286 42.3892 34.7205 42.2102C35.4125 42.0311 35.7686 41.8392 35.7686 41.6454C35.7686 41.4516 35.4125 41.2597 34.7205 41.0806C34.0286 40.9016 33.0145 40.7389 31.7359 40.6018C30.4574 40.4648 28.9396 40.3561 27.2692 40.2819C25.5987 40.2077 23.8084 40.1696 22.0003 40.1696C20.1922 40.1696 18.4018 40.2077 16.7314 40.2819C15.0609 40.3561 13.5431 40.4648 12.2646 40.6018C10.9861 40.7389 9.97191 40.9016 9.27999 41.0806C8.58806 41.2597 8.23193 41.4516 8.23193 41.6454Z" fill="#45413C"/>
<path d="M36.4927 34.5228C36.6078 34.5231 36.7215 34.5479 36.8262 34.5957C36.9309 34.6435 37.0241 34.7132 37.0997 34.8C37.1752 34.8869 37.2313 34.9888 37.2642 35.0991C37.297 35.2094 37.3059 35.3255 37.2902 35.4395C36.6027 40.8845 30.4702 41.7553 21.6427 41.7553C12.8152 41.7553 6.67355 40.8387 5.98605 35.4395C5.97036 35.3255 5.97924 35.2094 6.01211 35.0991C6.04497 34.9888 6.10106 34.8869 6.1766 34.8C6.25214 34.7132 6.34538 34.6435 6.45007 34.5957C6.55476 34.5479 6.66846 34.5231 6.78355 34.5228H36.4927Z" fill="#BF8256"/>
<path d="M6.41688 37.0345C6.53807 36.9692 6.6734 36.9346 6.81105 36.9337H36.4927C36.6305 36.9335 36.7661 36.9681 36.8869 37.0345C37.0888 36.5191 37.2243 35.98 37.2902 35.4303C37.3059 35.3163 37.297 35.2003 37.2642 35.09C37.2313 34.9797 37.1752 34.8777 37.0997 34.7909C37.0241 34.704 36.9309 34.6344 36.8262 34.5866C36.7215 34.5388 36.6078 34.5139 36.4927 34.5137H6.78355C6.66846 34.5139 6.55476 34.5388 6.45007 34.5866C6.34538 34.6344 6.25214 34.704 6.1766 34.7909C6.10106 34.8777 6.04497 34.9797 6.01211 35.09C5.97924 35.2003 5.97036 35.3163 5.98605 35.4303C6.06076 35.9812 6.20554 36.5203 6.41688 37.0345Z" fill="#DEA47A"/>
<path d="M36.4927 34.5228C36.6078 34.5231 36.7215 34.5479 36.8262 34.5957C36.9309 34.6435 37.0241 34.7132 37.0997 34.8C37.1752 34.8869 37.2313 34.9888 37.2642 35.0991C37.297 35.2094 37.3059 35.3255 37.2902 35.4395C36.6027 40.8845 30.4702 41.7553 21.6427 41.7553C12.8152 41.7553 6.67355 40.8387 5.98605 35.4395C5.97036 35.3255 5.97924 35.2094 6.01211 35.0991C6.04497 34.9888 6.10106 34.8869 6.1766 34.8C6.25214 34.7132 6.34538 34.6435 6.45007 34.5957C6.55476 34.5479 6.66846 34.5231 6.78355 34.5228H36.4927Z" stroke="#45413C" stroke-width="0.5" stroke-linecap="round" stroke-linejoin="round"/>
<path d="M23.8335 4.8137H22.8252V30.4804H37.0794C37.2352 30.4798 37.3876 30.4342 37.518 30.3489C37.6485 30.2637 37.7514 30.1425 37.8145 29.9999C37.8775 29.8574 37.8979 29.6997 37.8732 29.5458C37.8484 29.3919 37.7797 29.2485 37.6752 29.1329C31.6077 22.2902 27.1449 14.1789 24.6127 5.3912C24.5644 5.22268 24.4618 5.07479 24.321 4.9704C24.1801 4.866 24.0088 4.81093 23.8335 4.8137Z" fill="#FF6242"/>
<path d="M26.9499 12.0278C25.6168 12.6293 24.2448 13.1408 22.8433 13.5587V19.0128C25.0041 18.4251 27.099 17.6173 29.0949 16.602C28.3341 15.117 27.6008 13.6045 26.9499 12.0278Z" fill="#FFE500"/>
<path d="M31.2674 20.4886C28.6249 21.959 25.7893 23.0513 22.8433 23.7336V29.1328C26.8108 28.3374 30.5868 26.781 33.9624 24.5495C32.9999 23.2111 32.0833 21.8728 31.2674 20.4886Z" fill="#FFE500"/>
<path d="M23.8335 4.8137H22.8252V30.4804H37.0794C37.2352 30.4798 37.3876 30.4342 37.518 30.3489C37.6485 30.2637 37.7514 30.1425 37.8145 29.9999C37.8775 29.8574 37.8979 29.6997 37.8732 29.5458C37.8484 29.3919 37.7797 29.2485 37.6752 29.1329C31.6077 22.2902 27.1449 14.1789 24.6127 5.3912C24.5644 5.22268 24.4618 5.07479 24.321 4.9704C24.1801 4.866 24.0088 4.81093 23.8335 4.8137V4.8137Z" stroke="#45413C" stroke-width="0.5" stroke-linecap="round" stroke-linejoin="round"/>
<path d="M21.239 1.60535V32.1212H4.01485C3.85454 32.1258 3.69663 32.0815 3.56218 31.9941C3.42773 31.9066 3.32315 31.7803 3.26239 31.6319C3.20162 31.4834 3.18757 31.32 3.22211 31.1634C3.25665 31.0068 3.33813 30.8644 3.45568 30.7553C10.4865 23.9445 16.3074 13.9528 21.239 1.60535Z" fill="#FF6242"/>
<path d="M21.2393 10.5795C19.5343 11.3678 17.8659 12.0278 16.2893 12.5778C14.8593 15.3584 13.3681 17.9525 11.8159 20.3603C15.048 19.5161 18.2009 18.3936 21.2393 17.0053V10.5795Z" fill="#FFE500"/>
<path d="M3.4559 30.7461C3.33484 30.8545 3.25022 30.9976 3.21362 31.1559C3.17702 31.3142 3.19023 31.48 3.25143 31.6305C3.31264 31.781 3.41886 31.9089 3.55555 31.9967C3.69224 32.0846 3.85273 32.128 4.01506 32.1211H10.6884C14.3726 30.9124 17.9113 29.2984 21.2392 27.3086V20.892C16.8388 23.4915 12.0965 25.4631 7.15006 26.7495C5.98705 28.1433 4.75407 29.4772 3.4559 30.7461Z" fill="#FFE500"/>
<path d="M21.239 1.60535V32.1212H4.01485C3.85454 32.1258 3.69663 32.0815 3.56218 31.9941C3.42773 31.9066 3.32315 31.7803 3.26239 31.6319C3.20162 31.4834 3.18757 31.32 3.22211 31.1634C3.25665 31.0068 3.33813 30.8644 3.45568 30.7553C10.4865 23.9445 16.3074 13.9528 21.239 1.60535Z" stroke="#45413C" stroke-width="0.5" stroke-linecap="round" stroke-linejoin="round"/>
<path d="M21.2393 1.60535H22.8434V34.5228H21.2393V1.60535Z" fill="#BF8256" stroke="#45413C" stroke-width="0.5" stroke-linecap="round" stroke-linejoin="round"/>
</svg>
